<?xml version="1.0" encoding="UTF-8" standalone="no"?>
<svg
   width="7680"
   height="3268.0852"
   viewBox="0 0 7680 3268.0852"
   version="1.1"
   xml:space="preserve"
   style="clip-rule:evenodd;fill-rule:evenodd;stroke-miterlimit:1.41421"
   id="svg22"
   sodipodi:docname="new-mirror-sjtug_wechat.svg"
   inkscape:version="1.2.1 (9c6d41e410, 2022-07-14)"
   inkscape:export-filename="new-mirror-sjtug.png"
   inkscape:export-xdpi="24"
   inkscape:export-ydpi="24"
   xmlns:inkscape="http://www.inkscape.org/namespaces/inkscape"
   xmlns:sodipodi="http://sodipodi.sourceforge.net/DTD/sodipodi-0.dtd"
   xmlns="http://www.w3.org/2000/svg"
   xmlns:svg="http://www.w3.org/2000/svg"><defs
   id="defs26">
        
        
        
    </defs><sodipodi:namedview
   id="namedview24"
   pagecolor="#ffffff"
   bordercolor="#000000"
   borderopacity="0.25"
   inkscape:showpageshadow="2"
   inkscape:pageopacity="0.0"
   inkscape:pagecheckerboard="0"
   inkscape:deskcolor="#d1d1d1"
   showgrid="false"
   inkscape:zoom="0.11377603"
   inkscape:cx="4201.2363"
   inkscape:cy="909.68192"
   inkscape:window-width="1920"
   inkscape:window-height="991"
   inkscape:window-x="0"
   inkscape:window-y="0"
   inkscape:window-maximized="1"
   inkscape:current-layer="svg22" />
    
<g
   id="g11710"
   transform="translate(0,354.04262)"><text
     xml:space="preserve"
     style="font-style:normal;font-variant:normal;font-weight:normal;font-stretch:normal;font-size:300.61px;line-height:1.15;font-family:'Trebuchet MS';-inkscape-font-specification:'Trebuchet MS';font-variant-ligatures:normal;font-variant-position:normal;font-variant-caps:normal;font-variant-numeric:normal;font-variant-alternates:normal;font-variant-east-asian:normal;font-feature-settings:normal;font-variation-settings:normal;text-indent:0;text-align:start;text-decoration-line:none;text-decoration-style:solid;text-decoration-color:#000000;letter-spacing:normal;word-spacing:normal;text-transform:none;writing-mode:lr-tb;direction:ltr;text-orientation:mixed;dominant-baseline:auto;baseline-shift:baseline;white-space:normal;clip-rule:evenodd;opacity:0.5;fill:#618ea5;fill-opacity:1;fill-rule:evenodd;stroke:none;stroke-width:8.87631;stroke-linecap:round;stroke-linejoin:miter;stroke-miterlimit:0;stroke-dasharray:none;stroke-dashoffset:0;stroke-opacity:1;stop-color:#000000"
     x="322.58426"
     y="350.85388"
     id="text7646"><tspan
       sodipodi:role="line"
       id="tspan7644"
       x="322.58426"
       y="350.85388"
       style="font-size:300.61px;opacity:0.47023;fill:#618ea5;fill-opacity:1;stroke-width:8.87631">01001110  01100101  01110111</tspan><tspan
       sodipodi:role="line"
       x="322.58426"
       y="696.55536"
       id="tspan7648"
       style="font-size:300.61px;opacity:0.47023;fill:#618ea5;fill-opacity:1;stroke-width:8.87631">                00100000  01001101  01101001</tspan><tspan
       sodipodi:role="line"
       x="322.58426"
       y="1042.2568"
       id="tspan7650"
       style="font-size:300.61px;opacity:0.47023;fill:#618ea5;fill-opacity:1;stroke-width:8.87631">01110010  01110010  01101111</tspan><tspan
       sodipodi:role="line"
       x="322.58426"
       y="1387.9583"
       id="tspan7652"
       style="font-size:300.61px;opacity:0.47023;fill:#618ea5;fill-opacity:1;stroke-width:8.87631">                                01110010  00001010  01010100</tspan><tspan
       sodipodi:role="line"
       x="322.58426"
       y="1733.6598"
       id="tspan7654"
       style="font-size:300.61px;opacity:0.47023;fill:#618ea5;fill-opacity:1;stroke-width:8.87631">                01101000  01100001  01101110 </tspan><tspan
       sodipodi:role="line"
       x="322.58426"
       y="2079.3613"
       id="tspan7656"
       style="font-size:300.61px;opacity:0.47023;fill:#618ea5;fill-opacity:1;stroke-width:8.87631">                                01101011  00100000  01111001</tspan><tspan
       sodipodi:role="line"
       x="322.58426"
       y="2425.0627"
       id="tspan7658"
       style="font-size:300.61px;opacity:0.47023;fill:#618ea5;fill-opacity:1;stroke-width:8.87631">                01101111  01110101  00100001</tspan></text><g
     id="g7678"
     transform="matrix(3.4173463,0,0,3.4173463,327.41106,275.96581)"><g
       transform="matrix(0.845768,0,0,0.845768,92.2275,-12.8563)"
       id="g4">
            <path
   d="M 360,30.436 C 542.013,30.436 689.564,177.987 689.564,360 689.564,542.014 542.013,689.565 360,689.565 177.986,689.565 30.435,542.014 30.435,360 30.435,177.987 177.986,30.436 360,30.436 Z"
   style="fill:#ffa600"
   id="path2" />
        </g><g
       transform="matrix(0.845768,0,0,0.845768,92.2275,-12.8563)"
       id="g8">
            <path
   d="m 281.923,474.938 c 13.839,10.437 -12.049,68.1 -57.822,128.794 -45.773,60.694 -73.64,69.846 -107.938,90.999 12.514,-40.918 12.049,-68.101 57.822,-128.795 45.773,-60.694 94.098,-101.435 107.938,-90.998 z"
   style="fill:#ffc200"
   id="path6" />
        </g><g
       transform="matrix(0.845768,0,0,0.845768,92.2275,-12.8563)"
       id="g19">
            <path
   d="m 556.898,110.327 c -61.787,3.473 -147.33,46.321 -214.675,135.619 -22.045,29.232 -41.857,61.43 -56.498,92.031 -31.16,7.525 -77.571,15.611 -94.758,23.192 -36.386,59.64 -33.658,120.558 -41.886,174.693 35.179,-52.467 55.175,-74.393 111.442,-101.773 2.037,18.34 8.834,32.676 21.226,41.079 11.486,9.605 27.138,12.199 45.332,9.116 -10.858,61.626 -26.444,86.879 -67.218,135.125 49.788,-22.791 109.109,-36.915 156.448,-88.294 2.565,-18.609 -2.419,-65.455 -3.75,-97.483 25.399,-22.488 50.91,-50.388 72.955,-79.62 67.345,-89.298 85.028,-183.324 71.382,-243.685 z m -61.508,81.559 c 5.023,3.788 6.025,10.932 2.236,15.956 -3.789,5.023 -10.933,6.025 -15.956,2.236 -5.024,-3.789 -6.025,-10.933 -2.237,-15.956 3.789,-5.024 10.933,-6.025 15.957,-2.236 z"
   style="fill:#ffffff"
   id="path10" />
            <clipPath
   id="_clip1">
                <path
   d="m 556.898,110.327 c -61.787,3.473 -147.33,46.321 -214.675,135.619 -22.045,29.232 -41.857,61.43 -56.498,92.031 -31.16,7.525 -77.571,15.611 -94.758,23.192 -36.386,59.64 -33.658,120.558 -41.886,174.693 35.179,-52.467 55.175,-74.393 111.442,-101.773 2.037,18.34 8.834,32.676 21.226,41.079 11.486,9.605 27.138,12.199 45.332,9.116 -10.858,61.626 -26.444,86.879 -67.218,135.125 49.788,-22.791 109.109,-36.915 156.448,-88.294 2.565,-18.609 -2.419,-65.455 -3.75,-97.483 25.399,-22.488 50.91,-50.388 72.955,-79.62 67.345,-89.298 85.028,-183.324 71.382,-243.685 z m -61.508,81.559 c 5.023,3.788 6.025,10.932 2.236,15.956 -3.789,5.023 -10.933,6.025 -15.956,2.236 -5.024,-3.789 -6.025,-10.933 -2.237,-15.956 3.789,-5.024 10.933,-6.025 15.957,-2.236 z"
   id="path12" />
            </clipPath>
            <g
   clip-path="url(#_clip1)"
   id="g17">
                <path
   d="m 285.075,300.926 38.973,61.257 -24.338,49.053 38.073,28.766 40.538,-36.813 69.574,20.756"
   style="fill:none;stroke:#ffa600;stroke-width:2.25px"
   id="path15" />
            </g>
        </g></g><circle
     style="fill:#000000;fill-opacity:1;stroke:none;stroke-width:4.71281;stroke-linecap:round;stroke-miterlimit:0"
     id="path786"
     cx="5991.8062"
     cy="1280"
     r="957.64362" /><g
     id="g732"
     style="clip-rule:evenodd;fill-rule:evenodd;stroke-miterlimit:1.41421"
     transform="matrix(5.5994431,0,0,5.5994431,-26624.706,-11001.526)"><rect
       style="opacity:0.96;fill:#af1515;fill-opacity:1;stroke-width:5.04726;stroke-linecap:round;paint-order:stroke fill markers;stop-color:#000000"
       id="rect844-8-5-5-4"
       width="91.634453"
       height="145.56619"
       x="7595.3154"
       y="1964.9464"
       transform="matrix(0.98802429,0.15429845,-0.85036974,0.52618562,0,0)"
       rx="10.775533" /><rect
       style="opacity:0.96;fill:#e1a100;fill-opacity:1;stroke-width:5.04726;stroke-linecap:round;paint-order:stroke fill markers;stop-color:#000000"
       id="rect844-3-58-04-3-2"
       width="81.45285"
       height="145.56619"
       x="7499.2676"
       y="1858.9138"
       transform="matrix(0.98802429,0.15429845,-0.85036974,0.52618562,0,0)"
       rx="10.775533" /><rect
       style="opacity:0.96;fill:#007ed1;fill-opacity:1;stroke-width:5.04726;stroke-linecap:round;paint-order:stroke fill markers;stop-color:#000000"
       id="rect844-3-5-43-8-8-2"
       width="40.726425"
       height="69.750473"
       x="7595.6724"
       y="1881.4683"
       transform="matrix(0.98802429,0.15429845,-0.85036974,0.52618562,0,0)"
       rx="10.775533"
       inkscape:export-filename="aosc-os.png"
       inkscape:export-xdpi="90.311111"
       inkscape:export-ydpi="90.311111" /><rect
       style="opacity:0.96;fill:#e5e5e5;fill-opacity:1;stroke-width:5.04726;stroke-linecap:round;paint-order:stroke fill markers;stop-color:#000000"
       id="rect844-3-6-71-7-8-7"
       width="50.908028"
       height="90.978874"
       x="7434.6416"
       y="1792.0219"
       transform="matrix(0.98802429,0.15429845,-0.85036974,0.52618562,0,0)"
       inkscape:transform-center-x="5.6372972"
       inkscape:transform-center-y="33.13425"
       rx="10.775533"
       inkscape:export-filename="test3"
       inkscape:export-xdpi="90.311111"
       inkscape:export-ydpi="90.311111" /></g></g></svg>
