<?xml version="1.0" encoding="UTF-8" standalone="no"?>
<svg
   width="7680"
   height="3268.0852"
   viewBox="0 0 7680 3268.0852"
   version="1.1"
   xml:space="preserve"
   style="clip-rule:evenodd;fill-rule:evenodd;stroke-miterlimit:1.41421"
   id="svg22"
   sodipodi:docname="new-mirror-sjtug_wechat.svg"
   inkscape:version="1.2.1 (9c6d41e410, 2022-07-14)"
   inkscape:export-filename="new-mirror-nit-cips_wechat.png"
   inkscape:export-xdpi="24"
   inkscape:export-ydpi="24"
   xmlns:inkscape="http://www.inkscape.org/namespaces/inkscape"
   xmlns:sodipodi="http://sodipodi.sourceforge.net/DTD/sodipodi-0.dtd"
   xmlns="http://www.w3.org/2000/svg"
   xmlns:svg="http://www.w3.org/2000/svg"><defs
   id="defs26">
        
        
        
    </defs><sodipodi:namedview
   id="namedview24"
   pagecolor="#ffffff"
   bordercolor="#000000"
   borderopacity="0.25"
   inkscape:showpageshadow="2"
   inkscape:pageopacity="0.0"
   inkscape:pagecheckerboard="0"
   inkscape:deskcolor="#d1d1d1"
   showgrid="false"
   inkscape:zoom="0.11377603"
   inkscape:cx="2944.3812"
   inkscape:cy="909.68194"
   inkscape:window-width="1920"
   inkscape:window-height="991"
   inkscape:window-x="0"
   inkscape:window-y="0"
   inkscape:window-maximized="1"
   inkscape:current-layer="svg22" />
    
<g
   id="g5718"
   style="clip-rule:evenodd;fill-rule:evenodd;stroke-miterlimit:1.41421"
   transform="translate(-9.8049637e-6,-525.95738)"><text
     xml:space="preserve"
     style="font-style:normal;font-variant:normal;font-weight:normal;font-stretch:normal;font-size:300.61px;line-height:1.15;font-family:'Trebuchet MS';-inkscape-font-specification:'Trebuchet MS';font-variant-ligatures:normal;font-variant-position:normal;font-variant-caps:normal;font-variant-numeric:normal;font-variant-alternates:normal;font-variant-east-asian:normal;font-feature-settings:normal;font-variation-settings:normal;text-indent:0;text-align:start;text-decoration-line:none;text-decoration-style:solid;text-decoration-color:#000000;letter-spacing:normal;word-spacing:normal;text-transform:none;writing-mode:lr-tb;direction:ltr;text-orientation:mixed;dominant-baseline:auto;baseline-shift:baseline;white-space:normal;clip-rule:evenodd;opacity:0.5;fill:#618ea5;fill-opacity:1;fill-rule:evenodd;stroke:none;stroke-width:8.87631;stroke-linecap:round;stroke-linejoin:miter;stroke-miterlimit:0;stroke-dasharray:none;stroke-dashoffset:0;stroke-opacity:1;stop-color:#000000"
     x="322.58426"
     y="1230.8539"
     id="text7646"><tspan
       sodipodi:role="line"
       id="tspan7644"
       x="322.58426"
       y="1230.8539"
       style="font-size:300.61px;opacity:0.47023;fill:#618ea5;fill-opacity:1;stroke-width:8.87631">01001110  01100101  01110111</tspan><tspan
       sodipodi:role="line"
       x="322.58426"
       y="1576.5553"
       id="tspan7648"
       style="font-size:300.61px;opacity:0.47023;fill:#618ea5;fill-opacity:1;stroke-width:8.87631">                00100000  01001101  01101001</tspan><tspan
       sodipodi:role="line"
       x="322.58426"
       y="1922.2568"
       id="tspan7650"
       style="font-size:300.61px;opacity:0.47023;fill:#618ea5;fill-opacity:1;stroke-width:8.87631">01110010  01110010  01101111</tspan><tspan
       sodipodi:role="line"
       x="322.58426"
       y="2267.9583"
       id="tspan7652"
       style="font-size:300.61px;opacity:0.47023;fill:#618ea5;fill-opacity:1;stroke-width:8.87631">                                01110010  00001010  01010100</tspan><tspan
       sodipodi:role="line"
       x="322.58426"
       y="2613.6597"
       id="tspan7654"
       style="font-size:300.61px;opacity:0.47023;fill:#618ea5;fill-opacity:1;stroke-width:8.87631">                01101000  01100001  01101110 </tspan><tspan
       sodipodi:role="line"
       x="322.58426"
       y="2959.3613"
       id="tspan7656"
       style="font-size:300.61px;opacity:0.47023;fill:#618ea5;fill-opacity:1;stroke-width:8.87631">                                01101011  00100000  01111001</tspan><tspan
       sodipodi:role="line"
       x="322.58426"
       y="3305.0627"
       id="tspan7658"
       style="font-size:300.61px;opacity:0.47023;fill:#618ea5;fill-opacity:1;stroke-width:8.87631">                01101111  01110101  00100001</tspan></text><circle
     style="fill:#000000;fill-opacity:1;stroke:none;stroke-width:4.71281;stroke-linecap:round;stroke-miterlimit:0"
     id="path786"
     cx="5991.8062"
     cy="2160"
     r="957.64362" /><g
     id="g732"
     style="clip-rule:evenodd;fill-rule:evenodd;stroke-miterlimit:1.41421"
     transform="matrix(5.5994431,0,0,5.5994431,-26624.706,-10121.526)"><rect
       style="opacity:0.96;fill:#af1515;fill-opacity:1;stroke-width:5.04726;stroke-linecap:round;paint-order:stroke fill markers;stop-color:#000000"
       id="rect844-8-5-5-4"
       width="91.634453"
       height="145.56619"
       x="7595.3154"
       y="1964.9464"
       transform="matrix(0.98802429,0.15429845,-0.85036974,0.52618562,0,0)"
       rx="10.775533" /><rect
       style="opacity:0.96;fill:#e1a100;fill-opacity:1;stroke-width:5.04726;stroke-linecap:round;paint-order:stroke fill markers;stop-color:#000000"
       id="rect844-3-58-04-3-2"
       width="81.45285"
       height="145.56619"
       x="7499.2676"
       y="1858.9138"
       transform="matrix(0.98802429,0.15429845,-0.85036974,0.52618562,0,0)"
       rx="10.775533" /><rect
       style="opacity:0.96;fill:#007ed1;fill-opacity:1;stroke-width:5.04726;stroke-linecap:round;paint-order:stroke fill markers;stop-color:#000000"
       id="rect844-3-5-43-8-8-2"
       width="40.726425"
       height="69.750473"
       x="7595.6724"
       y="1881.4683"
       transform="matrix(0.98802429,0.15429845,-0.85036974,0.52618562,0,0)"
       rx="10.775533"
       inkscape:export-filename="aosc-os.png"
       inkscape:export-xdpi="90.311111"
       inkscape:export-ydpi="90.311111" /><rect
       style="opacity:0.96;fill:#e5e5e5;fill-opacity:1;stroke-width:5.04726;stroke-linecap:round;paint-order:stroke fill markers;stop-color:#000000"
       id="rect844-3-6-71-7-8-7"
       width="50.908028"
       height="90.978874"
       x="7434.6416"
       y="1792.0219"
       transform="matrix(0.98802429,0.15429845,-0.85036974,0.52618562,0,0)"
       inkscape:transform-center-x="5.6372972"
       inkscape:transform-center-y="33.13425"
       rx="10.775533"
       inkscape:export-filename="test3"
       inkscape:export-xdpi="90.311111"
       inkscape:export-ydpi="90.311111" /></g><g
     id="g36"
     transform="matrix(6.8284259,0,0,6.8284259,-789.18437,1037.8249)">
	<g
   id="g18">
		<path
   class="st0"
   d="m 423.43,287.15 c 0,0 -0.97,3.57 4.12,2 0,0 3.87,-3.72 4.13,-4.64 0,0 2.09,-0.72 1.3,1.24 0,0 -1.37,2.22 -3.13,5.94 0,0 -0.22,4.12 -0.22,6.86 0,0 -2.39,3.27 0,5.13 0,0 3.18,0.69 3.05,-4.14 l 4.77,-8.55 c 0,0 2.48,-3.98 -1.18,-2.61 0,0 -2.55,5.29 -3.39,6.14 0,0 -1.22,1.57 -1.35,-0.78 0,0 2.99,-7.05 3.64,-7.25 0,0 2.61,-5.35 -3.33,-4.11 0,0 -3.82,2.45 -6.2,4.37 -0.01,0 -0.93,0.61 -2.21,0.4 z"
   id="path4"
   style="clip-rule:evenodd;fill:#d7000f;fill-rule:evenodd" />
		<path
   class="st0"
   d="m 259.07,280.03 5.01,-0.66 c 0,0 0.5,-2.01 0.93,-7.56 0,0 2.32,-0.35 2.31,0.78 l -0.17,5.22 c 0,0 0.63,0.52 2.26,0.19 0,0 -0.31,-0.51 0.05,-2.34 0,0 0.43,-0.2 1.47,0.32 0,0 1.22,0.62 3.26,0.65 0,0 0.77,0.95 -0.54,1.47 0,0 -4.55,2.71 -5.86,2.45 0,0 -2.09,0.75 -4.31,3.52 0,0 -1.57,2.35 1.57,0.78 0,0 2.87,-2.87 6.26,-3.13 0,0 3.92,-1.83 5.61,-1.44 0,0 2.47,-2.55 4.44,-1.83 0,0 2.26,-0.26 2.26,1.96 0,0 -1.74,20.03 -7.22,22.12 0,0 -0.71,1.43 -7.24,-3.53 0,0 -0.4,-0.77 -1.23,2.82 0,0 -3.11,0.1 -1.71,-2.35 0,0 1.57,-5.74 -1.17,-3.52 0,0 -3.92,3 -3.13,-1.57 0,0 3.78,-3.26 0.26,-2.74 0,0 -2.38,2.54 -2.77,-1.37 l -4.4,-0.05 c 0,0 -0.25,-0.71 0.53,-1.22 1.79,-1.17 5.49,-2.57 4.43,-3.36 0,0 0.78,-1.04 1.7,-1.96 0,0 2.19,-2.64 -2.35,-1.96 0.01,0 -0.69,-0.36 -0.25,-1.69 z m 1.15,8.86 v 0.98 c 0,0 0.47,0.05 0.88,0.02 0.41,-0.03 0.38,-0.39 0.38,-0.39 l 1.37,0.05 c 0.07,0.39 1.03,0.59 1.03,0.59 0.46,-0.13 1.7,-2.67 1.7,-2.67 1.3,-1.57 -0.65,-0.91 -0.65,-0.91 -0.33,0.65 -2.41,1.96 -2.41,1.96 -1.06,0.56 -2.3,0.37 -2.3,0.37 z m 8.08,-2.86 c 1.79,-0.17 1.02,1.21 1.02,1.21 -0.75,1.41 -2.18,2.56 -2.18,2.56 0.98,0.26 0.46,1.89 0.46,1.89 2.93,-0.2 1.89,5.48 1.89,5.48 1.76,2.22 5.35,2.22 5.35,2.22 2.56,-1.77 2.41,-5.41 2.41,-5.41 2.61,-2.93 2.61,-12.39 2.61,-12.39 0,-1.11 -1.11,-0.52 -1.11,-0.52 -1.7,0.98 -3.07,2.35 -3.07,2.35 -3.07,0.2 -5.74,0.85 -5.74,0.85 -1.77,0.17 -1.64,1.76 -1.64,1.76 z m -15.68,5.88 c 0.85,3.56 -1.17,4.96 -1.17,4.96 -1.18,4.96 2.61,5.67 2.61,5.67 2.61,-0.8 1.63,-3.25 1.63,-3.25 0.07,-4.83 -0.98,-7.44 -0.98,-7.44 -1.82,-2.04 -2.09,0.06 -2.09,0.06 z"
   id="path6-3"
   style="clip-rule:evenodd;fill:#d7000f;fill-rule:evenodd" />
		<path
   class="st0"
   d="m 397.77,278.39 c 0.01,-0.02 -2.48,-0.59 -1.3,1.24 0,0 1.11,2.41 4.5,4.96 0,0 1.83,-0.39 2.87,-1.89 0,0 0.68,-0.62 3.42,-0.16 0,0 -0.03,0.95 -0.03,1.66 0,0 -6.51,2.47 -11.15,4.63 0,0 -1.83,2.09 3.72,1.43 0,0 9,-4.89 10.83,-5.94 0,0 1.7,-0.91 1.04,0.72 0,0 -5.87,3.13 -6.33,5.22 0,0 -2.61,0.07 -3,0.07 0,0 -1.7,1.7 0.72,2.54 0,0 0.71,0.21 0.19,1.58 0,0 -0.2,3.07 -6.01,4.24 0,0 -0.78,0.59 0,1.7 0,0 -0.26,0.78 3.46,-0.2 0,0 0.59,-1.37 2.55,-0.72 0,0 0.26,1.24 0.07,1.96 0,0 -0.52,0.52 -1.31,1.17 0,0 -2.42,-0.33 -3.13,0.78 0,0 -0.65,2.03 3.53,1.44 0,0 4.64,0.52 3.85,-3.07 0,0 -0.59,-2.68 1.57,-2.74 0,0 1.37,-2.94 3.13,-2.87 0,0 0.91,-2.74 -2.22,-2.35 0,0 -1.24,-0.12 -1.07,0.99 0,0 -1.76,0.13 -2.05,0.1 0,0 -0.14,-1.48 1.56,-1.87 0,0 0.46,-2.22 -1.04,-2.09 0,0 -0.39,-0.72 1.24,-0.78 0,0 7.9,-4.7 8.03,-6.27 0,0 3.53,-2.68 -0.46,-3.39 0,0 -2.61,0.52 -3.4,1.63 0,0 -1.96,-0.59 0.65,-2.41 0,0 3.39,-4.63 3.78,-5.02 0,0 0.91,-3.59 -4.3,-1.96 0,0 -0.72,0.78 0.07,1.5 0,0 0.39,1.04 -0.2,1.57 0,0 -0.98,0.39 -1.17,2.35 0,0 -0.39,1.76 -2.93,-0.98 0,0 -0.52,-1.37 -1.63,-2.35 0,0 -0.72,-1.43 1.63,-2.87 0,0 0.52,-1.98 -2.74,-2.78 0,0 -1.3,0.24 -0.91,0.89 0,0 1.5,0.85 0.2,2.22 0,0 -0.52,3.26 -2.8,2.74 0,0 -0.26,1.76 -0.52,2.48 0,0 0.98,0.91 2.67,-0.33 0,0 -0.29,-1.17 1.57,-0.72 0,0 -0.13,3.65 -3.52,3.26 0,0 -0.78,0 0.85,1.5 0,0 0.16,1.34 -1.5,0.62 -0.05,-0.01 -0.86,-2.32 -2.98,-3.43 z m -7.78,12.6 c 0,0 -0.07,1.31 -0.07,2.35 0,0 -1.46,1.31 -1.06,3.46 0,0 1.19,0.98 2.56,0.33 0,0 0.78,-1.31 0.85,-3.59 0,0 0.07,-1.44 -0.26,-2.42 0,0 -0.49,-0.26 -2.02,-0.13 z m 3.81,-10.32 c 1.03,-0.03 1.22,0.39 1.22,0.39 0.65,0.2 3.2,3.72 3.2,3.72 1.5,1.3 -1.64,2.29 -1.64,2.29 -0.46,-0.26 -1.69,-2.36 -1.69,-2.36 -0.07,-2.15 -1.43,-2.22 -1.43,-2.22 -0.58,-1.25 0.34,-1.82 0.34,-1.82 z m 12.65,-0.5 c 0,0 -0.11,-0.21 0.02,-0.43 0.13,-0.21 -0.04,-0.09 0.13,-0.3 0.17,-0.21 0.04,-0.24 0.17,-0.24 0.13,0 0.06,-0.28 0.26,0 0.19,0.28 0.19,0.28 0.26,0.43 0.06,0.15 0.06,0.26 0.06,0.26 0,0 0.15,0.56 -0.17,0.58 -0.37,0.02 -0.4,-0.09 -0.73,-0.3 z m -0.32,19.7 c 0,0 -0.32,0.02 -0.38,-0.09 -0.07,-0.11 -0.18,-0.2 -0.18,-0.2 0,0 0,-0.05 0,-0.45 0,-0.41 0,-0.18 0.02,-0.34 0.02,-0.16 0.14,-0.18 0.2,-0.32 0.07,-0.14 0.2,-0.16 0.2,-0.16 0.11,-0.26 0.55,-0.73 0.68,-0.09 0.02,0.11 -0.11,0.2 -0.11,0.2 0,0 -0.14,0.14 -0.2,0.29 -0.07,0.16 -0.02,0.09 -0.09,0.36 -0.07,0.27 -0.09,0.14 -0.09,0.3 0,0.16 -0.07,0.18 -0.05,0.32 0.02,0.13 0,0.18 0,0.18 z"
   id="path8"
   style="clip-rule:evenodd;fill:#d7000f;fill-rule:evenodd" />
		<path
   class="st0"
   d="m 368.61,279.56 c 0,0 -2.41,-1.57 -0.2,-2.35 0,0 3.13,-1.5 9.52,0.26 0,0 1.3,0.65 -0.85,2.8 0,0 -4.24,5.87 -3.91,9.59 0,0 6.65,-1.96 7.04,-0.72 0,0 1.34,0.29 -0.42,1.53 0,0 -1.94,0.56 -4.08,2.12 0,0 -3.65,1.24 -5.94,2.61 0,0 -2.09,2.9 -7.17,2.13 0,0 -2.14,-2.57 7.26,-6.1 0,0 0.83,-5.54 2.75,-9.31 0,0 2.38,-3.55 -0.52,-3.1 0.01,0.02 -2.6,-0.01 -3.48,0.54 z"
   id="path10-6"
   style="clip-rule:evenodd;fill:#d7000f;fill-rule:evenodd" />
		<path
   class="st0"
   d="m 342.46,281.84 c 0,0 -5.54,0.52 -1.76,-2.15 0,0 6.52,-2.48 9.2,-5.61 0,0 0.91,0.13 2.09,-0.07 0,0 0.91,-0.91 3.07,-0.07 0,0 1.01,0.8 0.59,1.63 -0.42,0.83 -0.14,0.29 -0.14,0.29 0,0 -6.45,5.19 -5.79,6.56 0,0 -0.59,1.57 -0.78,3.91 0,0 -0.91,-0.13 -0.65,1.24 l 0.07,2.71 c 0,0 1.5,0.95 -0.33,5.25 0,0 0.2,0.91 2.93,-0.59 0,0 5.84,-0.93 0.55,2.02 0,0 -0.71,0.29 -1.71,0.7 -1.37,0.57 -3.03,1.52 -4.13,0.99 0,0 -0.2,-1.27 -1.14,-1.47 0,0 -0.75,-1.24 0.39,-2.25 0,0 3.36,-3.64 -0.42,-4.81 0,0 -0.4,-0.9 0.08,-2.18 0.17,-0.44 0.8,-0.95 1.02,-1.45 0.33,-0.75 0.32,-1.93 0.85,-2.35 0,0 0.46,-2.63 0.75,-3.49 0,0 1.27,-1.7 -1.17,-1.08 -0.02,0.02 -2.69,2.21 -3.57,2.27 z m -14.52,-1.61 c 4.27,0.16 4.97,-0.73 4.97,-0.73 1.92,-1.24 1.53,0.75 1.53,0.75 -0.16,1.04 -2.03,1.73 -2.03,1.73 -4.19,2.44 -1.04,5.48 -1.04,5.48 -0.78,7.7 -3.65,9 -3.65,9 -3.26,4.18 2.35,4.15 2.35,4.15 2.91,-4.3 6.77,-8.47 8.74,-12.89 1.57,-4.83 -1.04,-2.61 -1.04,-2.61 -1.1,1.18 -1.27,3.41 -2.93,4.8 -0.29,0.24 -0.41,0.55 -1.03,0.46 -1.04,-1.57 2.14,-5.65 2.14,-5.65 -0.26,-3.91 1.04,-6 1.04,-6 0.78,-3 -4.05,-2.09 -4.05,-2.09 -1.7,1.7 -4.31,1.44 -4.31,1.44 -1.7,0.64 -0.69,2.16 -0.69,2.16 z m 21.33,-3.11 c -0.23,0.05 -0.3,0.99 -0.3,0.99 0.46,0.39 1.49,0.16 1.49,0.16 0.33,-0.22 0.16,-0.42 0.35,-0.62 0.08,-0.08 0.19,-0.04 0.27,-0.11 0.23,-0.19 0.37,-0.44 0.37,-0.44 0.01,-0.02 0.04,-0.07 0.06,-0.09 0.2,-0.17 0.45,-0.23 0.53,-0.35 0.44,-0.59 -0.42,-0.72 -0.42,-0.72 -0.05,-0.18 -0.93,0.02 -1.2,0.17 -0.21,0.12 -0.08,0.25 -0.28,0.39 -0.16,0.11 -0.71,0.26 -0.82,0.35 -0.25,0.21 -0.05,0.27 -0.05,0.27 z"
   id="path12-7"
   style="clip-rule:evenodd;fill:#d7000f;fill-rule:evenodd" />
		<path
   class="st0"
   d="m 308.15,274.54 c -0.75,-2.78 3.29,-1.97 3.64,0.05 0.38,1.93 -1.55,2.81 -1.66,5.33 0.42,0.09 1.15,0.36 1.47,0 0.36,-1.93 2.46,-5.48 2.56,-7.27 -0.28,-3.1 1.75,-2.38 3.07,-1.37 0.83,1.2 0.97,3.24 -0.26,4.17 -2.07,1.1 -3.02,3.83 -3.26,5.94 -3.06,0.62 -2.54,4.49 -2.69,5.49 -0.56,0.93 -1.79,1.49 -1.5,2.59 1.07,0.7 2.4,-0.89 3.34,-2.28 1.85,-0.66 6.6,-0.41 6.17,3.95 -0.49,0.72 -0.18,0.28 -0.88,1.52 -2.86,5.05 -5.73,8.66 -9.14,10.35 -1.58,0.57 -4.15,0.56 -6.2,-0.83 -0.41,-1.77 2.01,-1.36 3.5,-0.44 1.51,1.11 3.73,-2.03 5.53,-4.04 1.58,-2.58 3.05,-4.08 4.24,-7.27 -0.26,-1.72 -1.53,-1.97 -3.23,-0.55 -0.85,0.92 -2.22,0.63 -1.27,4.27 -0.43,1.55 -1.33,2.65 -2.38,3.69 -0.83,0.5 -1.16,1.49 -2.48,1.5 -0.39,-0.22 -0.16,0.09 -0.72,-0.75 0.24,-0.68 1.39,-1.85 2.09,-2.77 1.03,-1.13 1.39,-2.02 1.52,-3 -0.84,-0.01 -1.3,-0.27 -1.97,0.33 -0.55,0.28 -0.34,1.73 -0.59,2.15 -1.09,1.46 -1.67,1.49 -2.58,3 -0.78,0.61 -2.37,0.42 -2.51,-0.05 0.93,-1.89 2.3,-3.53 3.46,-5.3 l 0.73,-2.58 c -0.97,-0.17 -1.93,-0.58 -2.51,-1.21 0.9,-3 2.21,-5.46 2.36,-8.28 0.59,-0.16 1.59,0.15 1.77,-0.47 0.77,-1.49 0.8,-2.95 0.51,-4.82 -0.04,-0.35 -0.08,-0.7 -0.13,-1.05 z m -13.3,6.39 c 0.23,-0.29 1.3,-0.91 1.3,-0.91 2.28,-2.74 2.22,-0.78 2.22,-0.78 -0.52,0.46 -2.61,3.33 -2.61,3.33 v 3 c 0.98,0.91 0,1.43 0,1.43 -3.72,0.59 -3.71,9.67 -3.71,9.67 -2.47,1.85 0.65,6.53 0.65,6.53 1.54,0.33 2.09,-0.98 2.09,-0.98 l 0.2,-4.11 c 2.94,-1.89 2.61,-3.59 2.61,-3.59 -0.59,-1.5 -1.48,-0.14 -1.48,-0.14 -0.52,1.31 -1.61,0.45 -1.61,0.45 0.2,-1.43 1.17,-5.15 1.17,-5.15 1.43,-2.8 2.8,0.33 2.8,0.33 0.72,0.39 2.22,0.13 2.22,0.13 1.17,-1.17 -1.24,-3.72 -1.24,-3.72 -2.67,-2.74 0.98,-5.67 0.98,-5.67 2.41,-4.57 0.78,-5.02 0.78,-5.02 -1.89,-0.78 -3.46,-0.13 -3.46,-0.13 -1.17,1.83 -4.96,3.26 -4.96,3.26 -1.47,2.46 2.05,2.07 2.05,2.07 z m 11.93,7.57 c 0,0 0.92,0.37 0.93,-0.71 0.78,-0.09 0.68,-0.63 1.03,-0.95 0,0 0.2,-1.66 0.07,-2.12 0,0 -1.3,-0.73 -2.02,2.82 0,0 -0.33,0.45 -0.01,0.96 z"
   id="path14"
   style="clip-rule:evenodd;fill:#d7000f;fill-rule:evenodd" />
		<path
   class="st0"
   d="m 455.88,273.1 c 0,0 0.52,-2.67 -4.17,-2.28 0,0 -1.92,-0.24 -0.82,2.66 0,0 -10.09,3.55 -13.68,11.44 -0.04,0.1 -0.2,0.39 -0.14,0.45 0,0 1,3.06 4.78,0.45 0,0 1.37,-2.67 6,-5.15 0,0 1.96,-1.3 1.96,0.72 0,0 -5.74,3.26 -5.41,5.74 0,0 4.17,0 0,3.2 0,0 -0.72,1.57 2.74,2.54 0,0 -1.01,2.89 -6.1,6.35 0,0 -1.83,-0.07 -2.35,1.11 0,0 -0.52,2.68 3.2,1.37 0,0 0.78,-2.81 2.81,-1.5 0,0 4.83,2.26 6.27,2.87 0,0 -0.21,0.65 3.13,0.07 0,0 2.18,-4.31 3.34,-4.57 0,0 -0.34,-2.87 -2.75,-0.59 0,0 -1.37,3.39 -4.44,2.87 0,0 -3.53,-1.89 -3.98,-1.89 0,0 -1.5,-1.5 3.33,-3.59 0,0 2.68,-3.66 -1.83,-4.96 0,0 -1.6,-0.99 1.85,-2.69 0,0 1.45,-1.65 -0.85,-2.8 0,0 1.64,-3.46 5.15,-3.98 0,0 3.46,-3.46 -4.89,-2.54 0,0 -6.09,3.13 -7.44,4.3 0,0 -1.89,-0.33 3,-3.33 0,0 3.02,-2.72 9.7,-5.6 0.51,-0.23 0.65,-0.09 1.59,-0.67 z"
   id="path16"
   style="clip-rule:evenodd;fill:#d7000f;fill-rule:evenodd" />
	</g>
	<g
   id="g34">
		<path
   class="st0"
   d="M 302.61,209.23 V 99.6 l 10.92,-7.72 v 120.5 h -0.01 c -0.4,-0.15 -0.81,-0.29 -1.21,-0.43 -0.14,-0.05 -0.29,-0.1 -0.43,-0.15 -0.39,-0.13 -0.78,-0.26 -1.17,-0.39 -0.18,-0.06 -0.35,-0.11 -0.53,-0.17 -0.35,-0.11 -0.71,-0.22 -1.06,-0.33 -0.2,-0.06 -0.41,-0.12 -0.61,-0.18 -0.34,-0.1 -0.67,-0.2 -1.01,-0.29 -0.22,-0.06 -0.45,-0.12 -0.67,-0.18 -0.32,-0.09 -0.63,-0.17 -0.95,-0.25 -0.24,-0.06 -0.48,-0.12 -0.73,-0.18 -0.31,-0.08 -0.61,-0.15 -0.92,-0.22 -0.25,-0.06 -0.51,-0.12 -0.76,-0.18 -0.28,-0.08 -0.57,-0.14 -0.86,-0.2 z"
   id="path20"
   style="clip-rule:evenodd;fill:#d7000f;fill-rule:evenodd" />
		<path
   class="st0"
   d="m 354.33,23.75 c 72.75,0 131.75,59 131.75,131.75 0,26.69 -7.95,51.52 -21.59,72.27 -2.02,-1.81 -4.76,-3.9 -8.13,-5.99 l 0.02,-0.02 c -12.5,-7.79 -27.67,-12.36 -44.04,-12.36 -3.82,0 -7.58,0.25 -11.26,0.73 v -91.4 c 0,-7.07 -0.68,-11.32 -5.7,-17 -6.54,-7.4 -15.73,-12 -27.54,-12 -8.76,0 -17.54,3.6 -24.4,9.53 V 87.42 c 8.06,-7.56 19.41,-12.28 31.62,-12.28 25.43,0 43.34,16.66 43.34,41.78 v 83.76 c 0.86,-0.03 1.73,-0.04 2.6,-0.04 15.22,0 29.42,3.95 41.39,10.77 8.69,-16.74 13.6,-35.76 13.6,-55.92 0,-67.18 -54.48,-121.66 -121.66,-121.66 -66.37,0 -121.66,54.63 -121.66,121.66 0,19.09 4.4,37.16 12.25,53.24 10.02,-5.61 21.81,-8.85 34.41,-8.85 2.57,0 5.1,0.13 7.59,0.39 v -89.59 l 8.91,-6.3 v 103.69 c -0.6,-0.07 -1.19,-0.14 -1.79,-0.2 l -0.23,-0.02 c -0.99,-0.1 -1.98,-0.17 -2.97,-0.23 l -0.31,-0.02 c -0.47,-0.03 -0.95,-0.05 -1.42,-0.06 -0.13,0 -0.26,-0.01 -0.38,-0.01 -0.37,-0.01 -0.73,-0.02 -1.1,-0.02 -0.15,0 -0.29,0 -0.44,0 -0.43,0 -0.86,0 -1.28,0 -0.15,0 -0.29,0 -0.43,0.01 -0.35,0.01 -0.69,0.01 -1.04,0.02 -0.24,0.01 -0.48,0.01 -0.72,0.02 -0.33,0.01 -0.66,0.03 -0.99,0.05 -0.18,0.01 -0.36,0.02 -0.54,0.03 -0.31,0.02 -0.63,0.04 -0.94,0.06 -0.26,0.02 -0.51,0.04 -0.77,0.06 -0.31,0.03 -0.62,0.05 -0.93,0.09 -0.23,0.02 -0.45,0.05 -0.68,0.07 -0.3,0.03 -0.59,0.07 -0.89,0.1 -0.24,0.03 -0.47,0.06 -0.71,0.09 -0.3,0.04 -0.6,0.08 -0.9,0.12 -0.27,0.04 -0.54,0.08 -0.81,0.12 -0.26,0.04 -0.52,0.08 -0.78,0.13 -0.24,0.04 -0.49,0.08 -0.73,0.13 -0.27,0.05 -0.54,0.1 -0.8,0.15 -0.28,0.05 -0.56,0.11 -0.84,0.16 -0.27,0.05 -0.53,0.11 -0.8,0.17 -0.27,0.06 -0.55,0.12 -0.82,0.18 -0.22,0.05 -0.43,0.1 -0.65,0.15 -0.29,0.07 -0.58,0.14 -0.88,0.21 -0.25,0.06 -0.5,0.13 -0.75,0.19 -0.3,0.08 -0.6,0.16 -0.89,0.24 -0.19,0.05 -0.39,0.11 -0.58,0.16 -0.31,0.09 -0.61,0.18 -0.92,0.27 -0.22,0.07 -0.44,0.13 -0.66,0.2 -0.3,0.1 -0.61,0.19 -0.91,0.29 -0.21,0.07 -0.41,0.14 -0.62,0.21 -0.32,0.11 -0.65,0.22 -0.97,0.34 -0.17,0.06 -0.34,0.12 -0.51,0.18 -0.31,0.11 -0.63,0.23 -0.94,0.35 -0.2,0.08 -0.4,0.15 -0.6,0.23 -0.32,0.13 -0.65,0.26 -0.97,0.39 -0.15,0.06 -0.3,0.12 -0.45,0.19 -0.34,0.14 -0.67,0.28 -1,0.43 -0.17,0.08 -0.35,0.15 -0.52,0.23 -0.33,0.15 -0.65,0.29 -0.98,0.45 -0.14,0.06 -0.27,0.13 -0.41,0.19 v 0 c -2.34,1.1 -4.6,2.33 -6.77,3.67 l 0.03,0.05 c -1.12,0.69 -2.22,1.43 -3.3,2.19 -1.9,1.33 -3.54,2.61 -4.87,3.79 C 229.54,203.94 222.56,180.53 222.56,155.5 222.59,82.74 281.58,23.75 354.33,23.75 Z"
   id="path22"
   style="clip-rule:evenodd;fill:#d7000f;fill-rule:evenodd" />
		<path
   class="st0"
   d="m 335.9,76.08 v 148.4 c -4.01,-2.95 -8.15,-5.52 -12.37,-7.7 l -0.25,-0.13 c -0.49,-0.25 -0.98,-0.5 -1.47,-0.74 l -0.03,-0.02 c -0.49,-0.24 -0.98,-0.47 -1.47,-0.7 l -0.02,-0.01 0.03,-3.46 V 87.09 Z"
   id="path24"
   style="clip-rule:evenodd;fill:#d7000f;fill-rule:evenodd" />
		<path
   class="st0"
   d="m 361.5,225.72 v 0.78 c 3.83,-3 8,-5.67 12.44,-7.96 v -3.56 -2.5 -89.34 c -0.52,-15.05 -19.58,-14.39 -27.79,-8.97 -1.02,0.67 -1.93,1.35 -2.73,2.07 v 7.27 c 0.09,-0.09 0.18,-0.19 0.27,-0.31 2.44,-3.18 5.73,-5.07 9.56,-4.95 3.69,0.12 6.13,1.81 7.47,4.53 0.81,1.64 0.78,2.87 0.78,4.65 z"
   id="path26"
   style="clip-rule:evenodd;fill:#d7000f;fill-rule:evenodd" />
		<path
   class="st0"
   d="m 393.55,120.97 c 0,-15.83 -15.57,-24.56 -30.49,-24.56 -7.33,0 -14.23,3.5 -19.61,8.02 v 6.38 c 5.12,-3.12 11.22,-4.97 16.75,-4.97 10.03,0 16.28,3.65 19.58,10.37 0.89,1.82 0.96,2.89 0.96,4.87 l -0.01,94.36 c 4.1,-1.65 8.38,-2.99 12.81,-3.98 v -90.49 z"
   id="path28"
   style="clip-rule:evenodd;fill:#d7000f;fill-rule:evenodd" />
		<path
   class="st0"
   d="m 352.52,247.89 c -15.94,-19.02 -34,-28.41 -58.98,-29.04 -15.96,-0.4 -32.4,2.58 -43.38,15.27 3.1,4.15 6.32,8.06 9.92,11.81 3.77,3.99 7.79,7.75 12.03,11.25 l 0.18,0.15 c 10.42,-12.38 24.37,-20.5 41.05,-18.66 12.05,1.07 22.6,6.53 31.64,16.39 v 10.74 h 15.54 v -11.1 c 8.96,-9.62 19.4,-14.96 31.3,-16.02 17.48,-1.92 34.08,7.54 43.26,22.1 8.71,-6.57 16.58,-14.18 23.42,-22.67 -12.34,-14.92 -27.55,-19.73 -46.87,-19.24 -24.98,0.63 -43.03,10.01 -58.98,29.04 -0.07,0.04 -0.06,0.04 -0.13,-0.02 z"
   id="path30"
   style="clip-rule:evenodd;fill:#d7000f;fill-rule:evenodd" />
		<path
   class="st1"
   d="m 247.22,183.1 0.65,2.13 5.18,-1.58 c 2.24,-0.68 4.03,-1.29 5.88,-2.05 l 0.04,0.05 c -1.29,1.11 -2.65,2.46 -3.9,3.88 l -5.29,5.96 0.76,2.51 14.06,-4.28 -0.65,-2.13 -5.25,1.6 c -2.46,0.75 -4.27,1.34 -6.02,2.01 l -0.04,-0.07 c 1.37,-1.18 2.74,-2.6 3.99,-3.98 l 5.36,-6 -0.71,-2.33 z m -2.12,-11.51 0.41,2.92 15.23,2.77 -0.34,-2.45 -4.47,-0.76 -0.68,-4.82 4.08,-2.02 -0.35,-2.51 z m 9.09,2.36 -4,-0.72 c -0.94,-0.14 -2.04,-0.24 -2.97,-0.34 l -0.01,-0.04 c 0.86,-0.35 1.86,-0.76 2.77,-1.19 l 3.64,-1.77 z m -10.18,-22.42 -0.03,2.22 5.42,0.07 c 2.34,0.03 4.23,-0.01 6.23,-0.17 l 0.02,0.06 c -1.57,0.67 -3.27,1.54 -4.89,2.51 l -6.86,4.06 -0.04,2.62 14.69,0.2 0.03,-2.22 -5.49,-0.07 c -2.57,-0.03 -4.48,-0.02 -6.34,0.08 l -0.02,-0.08 c 1.66,-0.71 3.41,-1.64 5.01,-2.57 l 6.93,-4.08 0.03,-2.43 z m 0.85,-11.6 3.65,2.2 c 1.05,0.61 1.98,1.17 2.93,1.64 v 0.04 c -1.07,0.33 -2.03,0.71 -3.14,1.14 l -3.98,1.55 -0.23,2.71 8.9,-3.95 6.13,0.51 0.2,-2.4 -6.18,-0.51 -8.05,-5.61 z m 2.71,-12.56 15.43,-1.19 -0.61,2.46 -4.53,0.36 -1.17,4.72 3.86,2.37 -0.59,2.4 -13.1,-8.25 z m 7.55,5.57 0.98,-3.98 -4.03,0.29 c -1,0.05 -2.08,0.06 -3.01,0.07 l -0.01,0.04 c 0.82,0.44 1.81,0.94 2.63,1.42 z m -0.79,-24.47 -0.85,2.05 5,2.08 c 2.16,0.9 3.93,1.56 5.84,2.16 l -0.01,0.06 c -1.7,0.04 -3.61,0.21 -5.48,0.52 l -7.88,1.23 -1,2.42 13.57,5.64 0.85,-2.05 -5.07,-2.11 c -2.38,-0.99 -4.15,-1.68 -5.92,-2.28 l 0.01,-0.08 c 1.81,-0.04 3.77,-0.26 5.61,-0.53 l 7.95,-1.22 0.93,-2.25 z m 13.85,-10.74 6.26,3.77 c -0.18,0.93 -0.72,2.65 -1.7,4.27 -3.55,5.9 -8.32,4.04 -10.33,2.83 -4.08,-2.45 -4.76,-6.82 -2.31,-10.9 0.8,-1.34 1.71,-2.36 2.43,-2.85 l 1.28,1.4 c -0.65,0.48 -1.36,1.17 -2.11,2.42 -1.68,2.8 -1.27,5.79 1.92,7.71 3.17,1.91 5.97,1.05 7.58,-1.62 0.54,-0.89 0.8,-1.58 0.83,-1.97 l -3.55,-2.14 -1.42,2.35 -1.53,-0.92 z m 16.37,-7.88 1.63,-1.78 -10.85,-9.91 -1.63,1.78 z m 2.54,-22.33 9.58,11.14 -1.84,1.59 -7.65,-2.49 c -1.76,-0.58 -3.62,-1.27 -5.25,-2.05 l -0.05,0.07 c 1.31,1.33 2.58,2.75 4.26,4.7 l 3.58,4.17 -1.69,1.45 -9.58,-11.14 1.99,-1.71 7.59,2.45 c 1.81,0.57 3.59,1.27 5.12,2 l 0.03,-0.06 c -1.44,-1.39 -2.72,-2.78 -4.25,-4.56 l -3.53,-4.11 z m 10.78,-6.66 c -0.75,0.1 -1.9,0.44 -3.17,1.28 -2.64,1.74 -3.37,4.3 -2.09,6.24 1.1,1.67 3.16,1.89 5.63,1.33 1.98,-0.43 3.08,-0.23 3.77,0.81 0.73,1.11 0.34,2.44 -1.24,3.48 -1.09,0.72 -2.38,1.11 -3.36,1.17 l 0.57,1.85 c 0.91,-0.02 2.45,-0.55 3.7,-1.38 2.99,-1.96 3.63,-4.59 2.28,-6.64 -1.11,-1.68 -2.84,-2.08 -5.54,-1.54 -2.13,0.43 -3.21,0.41 -3.9,-0.63 -0.52,-0.79 -0.42,-2.07 1.17,-3.11 1.09,-0.72 2.14,-0.95 2.72,-1.01 z m 11.86,-6.68 0.87,1.69 -3.83,1.96 5.83,11.39 -2.15,1.1 -5.83,-11.39 -3.81,1.95 -0.87,-1.69 z m 7.89,12.8 2.23,-0.91 -5.54,-13.61 -2.23,0.91 z m 9.6,-18.68 0.55,1.82 -4.12,1.24 3.69,12.25 -2.31,0.69 -3.69,-12.25 -4.1,1.23 -0.55,-1.82 z m 13.86,-2.56 -2.37,0.42 1.56,8.76 c 0.51,2.88 -0.49,4.34 -2.46,4.69 -1.8,0.32 -3.31,-0.68 -3.82,-3.57 l -1.56,-8.76 -2.37,0.42 1.53,8.63 c 0.77,4.31 3.25,5.66 6.46,5.09 3.34,-0.59 5.33,-2.82 4.56,-7.11 z m 14.22,-0.69 -10.99,0.38 0.07,1.9 4.28,-0.15 0.44,12.79 2.41,-0.08 -0.44,-12.79 4.3,-0.15 z m 10.47,13.45 -6.25,-0.32 0.25,-4.87 5.56,0.29 0.1,-1.84 -5.56,-0.29 0.22,-4.25 5.9,0.3 0.1,-1.86 -8.3,-0.43 -0.76,14.68 8.66,0.45 z m 25.31,-7.01 c -3.82,-1.41 -7.49,0.47 -9.08,4.81 -1.53,4.16 -0.14,7.9 3.66,9.3 3.63,1.34 7.31,-0.07 9.08,-4.86 1.46,-3.95 0.3,-7.79 -3.66,-9.25 z m -0.7,1.68 c 2.67,0.98 2.93,4.14 1.96,6.77 -1.08,2.93 -3.35,4.94 -5.96,3.98 -2.58,-0.95 -3,-4.01 -1.97,-6.8 0.99,-2.7 3.22,-4.96 5.97,-3.95 z m 5.59,16.6 -2.16,-1.07 6.55,-13.16 7.41,3.69 -0.83,1.67 -5.25,-2.61 -2.03,4.07 4.88,2.43 -0.82,1.65 -4.88,-2.44 z m 34.45,6.07 -8.4,-7.1 -1.23,1.45 3.27,2.76 -8.26,9.77 1.84,1.56 8.26,-9.77 3.29,2.78 z m -1.35,17.09 -1.33,1.3 -6.05,-6.21 10.53,-10.25 5.8,5.96 -1.33,1.3 -4.12,-4.23 -3.05,2.97 3.89,3.99 -1.32,1.28 -3.89,-3.99 -3.49,3.4 z m 7.34,9.55 c -0.65,-0.38 -1.46,-1.15 -2.09,-2.03 -1.91,-2.67 -1.46,-5.5 1.47,-7.6 3.11,-2.22 6,-1.48 7.79,1.02 0.69,0.96 1.03,1.87 1.18,2.58 l 1.78,-0.64 c -0.08,-0.48 -0.44,-1.6 -1.5,-3.09 -2.56,-3.58 -6.76,-4.77 -10.82,-1.87 -3.81,2.72 -4.28,6.71 -1.7,10.32 1,1.4 2.04,2.32 2.68,2.69 z m 17.74,5.78 -12.79,7.23 -1.19,-2.1 5.81,-3.29 -3.19,-5.65 -5.81,3.29 -1.19,-2.1 12.79,-7.23 1.19,2.1 -5.28,2.98 3.19,5.65 5.28,-2.98 z m 6.1,14.78 -0.84,-2.06 -5.01,2.05 c -2.17,0.89 -3.89,1.66 -5.67,2.59 l -0.04,-0.05 c 1.18,-1.22 2.41,-2.69 3.52,-4.22 l 4.72,-6.42 -0.99,-2.42 -13.6,5.56 0.84,2.06 5.08,-2.08 c 2.38,-0.97 4.13,-1.73 5.81,-2.55 l 0.05,0.07 c -1.25,1.3 -2.49,2.84 -3.61,4.33 l -4.79,6.47 0.92,2.25 z m 2.98,11.42 c 0.77,4.15 -1.95,7.1 -6.1,7.87 -5.02,0.93 -8.1,-1.53 -8.81,-5.33 -0.74,-3.99 1.77,-7.09 6.13,-7.9 4.56,-0.84 8.04,1.35 8.78,5.36 z m -1.8,0.25 c -0.53,-2.88 -3.62,-3.64 -6.45,-3.12 -2.92,0.54 -5.34,2.47 -4.84,5.16 0.51,2.74 3.39,3.67 6.46,3.1 2.75,-0.51 5.34,-2.34 4.83,-5.14 z m -8.74,19.17 -0.62,-6.1 12.75,-1.29 -0.24,-2.4 -14.62,1.48 0.86,8.5 z m 12.86,8.34 c 0.16,-4.07 -2.76,-6.97 -7.38,-7.16 -4.43,-0.17 -7.56,2.3 -7.72,6.35 -0.15,3.86 2.32,6.94 7.42,7.14 4.21,0.17 7.51,-2.11 7.68,-6.33 z m -1.82,-0.15 c -0.11,2.85 -3.04,4.06 -5.84,3.95 -3.12,-0.12 -5.73,-1.66 -5.62,-4.44 0.11,-2.74 2.89,-4.09 5.86,-3.97 2.87,0.1 5.71,1.53 5.6,4.46 z m -7.92,20.78 0.94,-4.98 -1.75,-0.33 -0.51,2.7 -4.07,-0.77 c -0.1,-0.38 -0.1,-1.12 0.09,-2.14 0.58,-3.06 2.9,-4.85 6.54,-4.16 3.66,0.69 5.09,3.35 4.48,6.56 -0.27,1.43 -0.69,2.32 -1.13,3 l 1.69,0.87 c 0.5,-0.71 1,-1.99 1.29,-3.52 0.88,-4.68 -1.28,-8.53 -5.96,-9.42 -2.3,-0.43 -7.42,-0.51 -8.69,6.25 -0.35,1.86 -0.26,3.65 -0.1,4.59 z m 3.22,12.63 -3.09,-2.94 c -0.89,-0.82 -1.68,-1.57 -2.5,-2.24 l 0.01,-0.04 c 1.12,-0.09 2.13,-0.25 3.31,-0.43 l 4.23,-0.64 0.81,-2.6 -9.55,1.92 -5.87,-1.83 -0.72,2.3 5.92,1.85 6.64,7.23 z"
   id="path32"
   style="clip-rule:evenodd;fill:#e60012;fill-rule:evenodd" />
	</g>
</g></g></svg>
