<?xml version="1.0" encoding="UTF-8" standalone="no"?>
<!-- Created with Inkscape (http://www.inkscape.org/) -->

<svg
   width="2560"
   height="1440"
   viewBox="0 0 677.33331 381"
   version="1.1"
   id="svg1"
   xml:space="preserve"
   inkscape:version="1.3.2 (091e20ef0f, 2023-11-25)"
   sodipodi:docname="oma-comic.svg"
   inkscape:export-filename="oma-comic.png"
   inkscape:export-xdpi="96"
   inkscape:export-ydpi="96"
   xmlns:inkscape="http://www.inkscape.org/namespaces/inkscape"
   xmlns:sodipodi="http://sodipodi.sourceforge.net/DTD/sodipodi-0.dtd"
   xmlns:xlink="http://www.w3.org/1999/xlink"
   xmlns="http://www.w3.org/2000/svg"
   xmlns:svg="http://www.w3.org/2000/svg"><sodipodi:namedview
     id="namedview1"
     pagecolor="#ffe6d6"
     bordercolor="#000000"
     borderopacity="0.25"
     inkscape:showpageshadow="2"
     inkscape:pageopacity="0.0"
     inkscape:pagecheckerboard="0"
     inkscape:deskcolor="#d1d1d1"
     inkscape:document-units="mm"
     inkscape:zoom="0.20381575"
     inkscape:cx="1491.5432"
     inkscape:cy="461.20087"
     inkscape:window-width="1536"
     inkscape:window-height="886"
     inkscape:window-x="0"
     inkscape:window-y="0"
     inkscape:window-maximized="1"
     inkscape:current-layer="layer1"
     inkscape:export-bgcolor="#ffe6d6ff" /><defs
     id="defs1"><pattern
       inkscape:collect="always"
       xlink:href="#Strips1_2"
       preserveAspectRatio="xMidYMid"
       id="pattern180"
       patternTransform="matrix(1.8885408,1.0903495,-1.0903495,1.8885408,8.0927547,-18.360091)"
       x="0"
       y="0" /><pattern
       inkscape:collect="always"
       patternUnits="userSpaceOnUse"
       width="3"
       height="1"
       patternTransform="translate(0,0) scale(2,2)"
       preserveAspectRatio="xMidYMid"
       id="Strips1_2"
       style="fill:#000000"
       inkscape:stockid="Stripes 03 (1:2)"
       inkscape:isstock="true"
       inkscape:label="Stripes 03 (1:2)">
      <rect
   style="stroke:none"
   x="0"
   y="-0.5"
   width="1"
   height="2"
   id="rect146" />
    </pattern><pattern
       patternUnits="userSpaceOnUse"
       width="128.00002"
       height="135.63091"
       patternTransform="translate(133.94884,1111.7477)"
       preserveAspectRatio="xMidYMid"
       id="pattern3"
       inkscape:label="pattern3"><path
         style="color:#000000;opacity:0.2;fill:#594f09;fill-opacity:1;stroke-width:5.7346;stroke-linecap:round;stroke-linejoin:round;-inkscape-stroke:none;paint-order:fill markers stroke"
         d="M 47.763256,0.08713934 C 44.904573,-0.18725436 41.897354,0.15290312 38.858991,1.5879897 33.113354,4.3020307 30.246317,9.366522 28.453839,14.098793 26.66136,18.831064 25.816295,23.781489 25.317738,28.435259 24.614632,34.99822 24.914122,37.872437 25.015376,40.89005 22.558191,42.244481 20.56691,43.119177 15.987861,46.523813 9.163508,51.597942 0.50302299,57.957451 0.01614425,69.462182 -0.22914709,75.255555 2.3578639,79.9941 5.246708,83.619423 c 2.8889197,3.62536 6.332447,6.480075 9.654728,8.870702 4.418041,3.179074 6.326891,3.913625 8.758677,5.152139 0.07635,2.949696 -0.04044,5.849916 1.086463,12.253226 0.793587,4.50966 1.950198,9.28781 4.121726,13.78764 2.171527,4.4998 5.695181,9.33324 11.816352,11.20037 6.310602,1.92484 11.851541,-0.19276 16.419742,-2.67689 4.56824,-2.48421 8.63384,-5.80494 12.264416,-9.12831 5.240655,-4.79725 7.21595,-7.42217 9.21789,-9.81151 3.112478,0.76589 6.479395,1.80216 13.955641,2.52008 5.130293,0.49266 10.666247,0.6627 16.106157,-0.23509 5.43987,-0.8979 11.35812,-2.89202 15.35565,-8.27709 4.18662,-5.63973 4.41789,-12.238977 3.65133,-18.099777 -0.76653,-5.8608 -2.67409,-11.533833 -4.79377,-16.69973 -3.29643,-8.033915 -5.85392,-11.942929 -7.45942,-14.616491 1.25196,-2.421543 2.58523,-4.590425 4.49132,-10.19229 1.35859,-3.992693 2.54559,-8.391382 2.81133,-13.070853 0.2657,-4.679433 -0.36019,-10.215232 -4.34578,-14.739666 -4.20204,-4.770444 -9.91457,-5.820775 -14.78445,-5.947427 -4.869885,-0.126614 -9.620903,0.709909 -14.000468,1.758463 -5.897575,1.412031 -8.081877,2.471849 -10.92034,3.572938 C 76.387924,16.933439 74.351968,14.587561 68.831174,10.31318 64.918154,7.2835866 60.562853,4.3175267 55.737946,2.2712905 53.325511,1.2482102 50.621977,0.36157084 47.763294,0.08725273 Z M 45.982418,16.674881 c -0.486425,0.229795 0.598073,-0.155716 3.236901,0.963213 2.638791,1.11908 6.14245,3.357808 9.38589,5.869001 6.486879,5.02235 11.91719,10.830766 11.91719,10.830766 a 8.3458605,8.3458605 0 0 0 9.38589,1.993663 c 0,0 6.476561,-2.729991 13.552441,-4.424164 3.53794,-0.847106 7.18794,-1.375143 9.67714,-1.310438 2.48916,0.06463 3.10103,0.760063 2.68808,0.291024 -0.19616,-0.222615 0.34167,0.486122 0.21278,2.755313 -0.12888,2.269153 -0.88679,5.525367 -1.94887,8.64669 -2.12413,6.242645 -5.174554,11.771565 -5.174554,11.771565 a 8.3458605,8.3458605 0 0 0 0.224126,8.51229 c 0,0 4.704758,7.534299 8.277048,16.240516 1.78617,4.353109 3.22999,8.957972 3.69616,12.522029 0.46612,3.564019 -0.17726,5.537045 -0.51523,5.992176 -0.14891,0.200315 -1.51608,1.237795 -4.67055,1.758463 -3.15447,0.52063 -7.527043,0.498293 -11.782791,0.08957 C 85.63261,98.35924 77.825165,96.230875 77.825165,96.230875 a 8.3458605,8.3458605 0 0 0 -8.74749,2.856113 c 0,0 -4.908132,6.127182 -10.976353,11.681952 -3.034129,2.77739 -6.353008,5.3523 -8.971464,6.77624 -2.618533,1.42394 -4.059515,1.23262 -3.584164,1.37764 0.28611,0.0873 -0.558652,-0.24378 -1.646438,-2.4977 -1.087786,-2.25408 -2.087168,-5.81394 -2.721713,-9.41953 C 39.908528,99.79444 39.91193,92.691536 39.91193,92.691536 a 8.3458605,8.3458605 0 0 0 -4.849776,-7.605052 c 0,0 -5.330268,-2.489234 -10.41634,-6.148989 -2.54298,-1.829858 -4.935119,-3.947112 -6.350589,-5.723376 -1.415471,-1.776302 -1.608832,-2.876523 -1.601651,-3.046488 0.0189,-0.421985 3.788523,-6.178129 9.262715,-10.24834 5.474154,-4.070211 11.02114,-6.91064 11.02114,-6.91064 a 8.3458605,8.3458605 0 0 0 4.558564,-7.974652 c 0,0 -0.432302,-7.228384 0.380787,-14.818091 0.406564,-3.794835 1.167761,-7.609058 2.150476,-10.203515 0.982753,-2.594419 2.070576,-3.411062 1.915276,-3.337701 z"
         id="path74-7" /></pattern></defs><g
     inkscape:label="图层 1"
     inkscape:groupmode="layer"
     id="layer1"><path
       d="M 0,0 0,380.99999 M 13.229166,0 l 0,380.99999 M 26.458332,0 l 0,380.99999 M 39.687499,0 l 0,380.99999 M 52.916665,0 l 0,380.99999 M 66.145831,0 l 0,380.99999 M 79.374997,0 l 0,380.99999 M 92.604163,0 l 0,380.99999 M 105.83333,0 l 0,380.99999 M 119.0625,0 l 0,380.99999 M 132.29166,0 l 0,380.99999 M 145.52083,0 l 0,380.99999 M 158.74999,0 l 0,380.99999 M 171.97916,0 l 0,380.99999 M 185.20833,0 l 0,380.99999 M 198.43749,0 l 0,380.99999 M 211.66666,0 l 0,380.99999 M 224.89583,0 l 0,380.99999 M 238.12499,0 l 0,380.99999 M 251.35416,0 l 0,380.99999 M 264.58332,0 l 0,380.99999 M 277.81249,0 l 0,380.99999 M 291.04166,0 l 0,380.99999 M 304.27082,0 l 0,380.99999 M 317.49999,0 l 0,380.99999 M 330.72916,0 l 0,380.99999 M 343.95832,0 l 0,380.99999 M 357.18749,0 l 0,380.99999 M 370.41665,0 l 0,380.99999 M 383.64582,0 l 0,380.99999 M 396.87499,0 l 0,380.99999 M 410.10415,0 l 0,380.99999 M 423.33332,0 l 0,380.99999 M 436.56248,0 l 0,380.99999 M 449.79165,0 l 0,380.99999 M 463.02082,0 l 0,380.99999 M 476.24998,0 l 0,380.99999 M 489.47915,0 l 0,380.99999 M 502.70832,0 l 0,380.99999 M 515.93748,0 l 0,380.99999 M 529.16665,0 l 0,380.99999 M 542.39581,0 l 0,380.99999 M 555.62498,0 l 0,380.99999 M 568.85415,0 l 0,380.99999 M 582.08331,0 l 0,380.99999 M 595.31248,0 l 0,380.99999 M 608.54165,0 l 0,380.99999 M 621.77081,0 l 0,380.99999 M 634.99998,0 l 0,380.99999 M 648.22914,0 l 0,380.99999 M 661.45831,0 l 0,380.99999 M 674.68748,0 l 0,380.99999 M 0,0 677.33331,0 M 0,13.229166 l 677.33331,0 M 0,26.458332 l 677.33331,0 M 0,39.687499 l 677.33331,0 M 0,52.916665 l 677.33331,0 M 0,66.145831 l 677.33331,0 M 0,79.374997 l 677.33331,0 M 0,92.604163 l 677.33331,0 M 0,105.83333 l 677.33331,0 M 0,119.0625 l 677.33331,0 M 0,132.29166 l 677.33331,0 M 0,145.52083 l 677.33331,0 M 0,158.74999 l 677.33331,0 M 0,171.97916 l 677.33331,0 M 0,185.20833 l 677.33331,0 M 0,198.43749 l 677.33331,0 M 0,211.66666 l 677.33331,0 M 0,224.89583 l 677.33331,0 M 0,238.12499 l 677.33331,0 M 0,251.35416 l 677.33331,0 M 0,264.58332 l 677.33331,0 M 0,277.81249 l 677.33331,0 M 0,291.04166 l 677.33331,0 M 0,304.27082 l 677.33331,0 M 0,317.49999 l 677.33331,0 M 0,330.72916 l 677.33331,0 M 0,343.95832 l 677.33331,0 M 0,357.18749 l 677.33331,0 M 0,370.41665 l 677.33331,0"
       style="fill:none;stroke:#00578d;stroke-width:0.4;stroke-opacity:0.30980393;opacity:1;stroke-dasharray:none"
       id="path140" /><g
       id="g2"
       transform="translate(4.2901447)"><text
         xml:space="preserve"
         style="font-weight:bold;font-size:24.6944px;line-height:0.9;font-family:misans;-inkscape-font-specification:'misans Bold';letter-spacing:0px;fill:#000000;fill-opacity:1;stroke:none;stroke-width:0.4;stroke-linecap:round;stroke-linejoin:round;stroke-dasharray:none;stroke-opacity:1"
         x="69.640251"
         y="332.20575"
         id="text163"><tspan
           sodipodi:role="line"
           id="tspan163"
           style="stroke-width:0.4"
           x="69.640251"
           y="332.20575" /></text><g
         id="g1"
         transform="translate(-21.166667,-10.583333)"><text
           xml:space="preserve"
           style="font-size:147.706px;line-height:1.1;font-family:MiSans;-inkscape-font-specification:MiSans;text-decoration-color:#000000;letter-spacing:0px;fill:url(#pattern180);fill-opacity:1;stroke:#000000;stroke-width:2.1807;stroke-linecap:round;stroke-linejoin:round;stroke-dasharray:none;stroke-opacity:1;paint-order:stroke fill markers"
           x="52.569077"
           y="218.58319"
           id="text1"><tspan
             sodipodi:role="line"
             id="tspan1"
             style="font-style:normal;font-variant:normal;font-weight:normal;font-stretch:normal;font-size:147.706px;font-family:'Trebuchet MS';-inkscape-font-specification:'Trebuchet MS';fill:url(#pattern180);fill-opacity:1;stroke:#000000;stroke-width:2.1807;stroke-dasharray:none;stroke-opacity:1"
             x="52.569077"
             y="218.58319">oma</tspan></text><text
           xml:space="preserve"
           style="font-style:normal;font-variant:normal;font-weight:normal;font-stretch:normal;font-size:21.4881px;line-height:1.1;font-family:'Trebuchet MS';-inkscape-font-specification:'Trebuchet MS';text-decoration-color:#000000;letter-spacing:0px;fill:#000000;stroke-width:0.611645;stroke-linecap:round;stroke-linejoin:round;-inkscape-stroke:none;paint-order:stroke fill markers"
           x="63.890224"
           y="128.73695"
           id="text2"><tspan
             sodipodi:role="line"
             id="tspan2"
             style="font-style:normal;font-variant:normal;font-weight:normal;font-stretch:normal;font-size:21.4881px;font-family:'小赖字体 SC';-inkscape-font-specification:'小赖字体 SC';stroke-width:0.611645"
             x="63.890224"
             y="128.73695">小熊猫包管理</tspan></text><text
           xml:space="preserve"
           style="font-weight:bold;font-size:24.7184px;line-height:0.9;font-family:misans;-inkscape-font-specification:'misans Bold';letter-spacing:0px;fill:#000000;fill-opacity:1;stroke:none;stroke-width:0.400389;stroke-linecap:round;stroke-linejoin:round;stroke-dasharray:none;stroke-opacity:1"
           x="34.358356"
           y="320.5228"
           id="text164"
           transform="rotate(-15)"><tspan
             sodipodi:role="line"
             id="tspan164"
             style="font-style:normal;font-variant:normal;font-weight:normal;font-stretch:normal;font-family:'小赖字体 SC';-inkscape-font-specification:'小赖字体 SC';stroke-width:0.400389"
             x="34.358356"
             y="320.5228">轻松管、轻松用！</tspan></text><path
           style="fill:#000000;fill-opacity:1;stroke:none;stroke-width:0.400389;stroke-linecap:round;stroke-linejoin:round;stroke-dasharray:none;stroke-opacity:1"
           id="path164"
           d="m 147.79084,321.05954 c 35.7468,-20.91228 73.64946,-38.1169 112.96528,-51.1617 12.1799,-4.04123 24.47261,-7.7812 36.90579,-10.95892 11.59967,-2.96472 23.42385,-4.96923 35.13576,-7.45383 10.17933,-1.48122 20.35868,-2.96243 30.53802,-4.44365 0,0 -1.20749,-0.85005 -1.20749,-0.85005 v 0 c -10.06537,1.56412 -20.13074,3.12823 -30.19611,4.69235 -11.65354,2.5278 -23.41524,4.60036 -34.96065,7.5834 -23.03463,5.95155 -51.41516,15.46466 -73.51609,24.17917 -26.87419,10.59658 -52.7822,23.50308 -78.51699,36.56109 z" /><circle
           id="path165"
           style="fill:#000000;stroke:#000000;stroke-width:0.26484"
           cx="168.71025"
           cy="284.07962"
           r="0.16587971" /></g><g
         id="g161"
         transform="matrix(1.0386486,0,0,1.0386486,-19.372294,10.113168)"><g
           id="g162"><path
             id="rect50-7"
             style="fill:none;fill-opacity:1;stroke:#000000;stroke-width:6.15804;stroke-linecap:round;stroke-linejoin:round;stroke-opacity:1;paint-order:fill markers stroke"
             d="m 491.20518,276.26648 8.50732,0.2283 c 9.85841,1.77843 18.29731,1.07452 18.29731,1.07452 11.60016,0.27538 11.48404,0.5182 16.73397,-1.43881 0,0 20.29977,15.27427 24.57051,16.90367 1.89588,0.72333 2.28337,1.88242 2.22379,2.65261 -0.51983,6.72014 0.1664,15.22818 1.99588,18.34441 1.2952,2.20615 8.05767,-4.94649 8.68123,-3.91218 5.23944,8.69063 8.85208,16.81162 8.85208,16.81162 0,0 1.83146,4.19181 5.48121,4.4101 3.52864,0.21095 4.39942,-2.68942 5.79254,-3.31914 1.26023,-0.56966 3.25927,0.54796 5.30065,0.4011 1.4971,-0.1077 3.49593,-0.42097 4.7402,-1.07168 4.27892,-2.23773 13.86865,4.25975 8.37694,15.75199 2.22681,2.86536 3.10453,13.70943 3.09129,16.35236 h -48.96375 l -1.59618,-21.60068 -7.35024,-0.97886 -4.00356,22.57954 h -72.09591 l -2.76719,-17.2111 -7.96927,2.56565 c 0,0 -0.0816,2.94808 -2.42518,9.09181 -1.60931,3.32996 -3.59007,7.70452 -6.24618,8.75282 -6.74164,1.79017 -17.16274,-3.19918 -17.16274,-3.19918 h -55.39786 l 11.49559,-17.22697 c 0.51761,-8.19191 6.55801,-11.50383 8.29811,-21.40921 0.3663,-2.08511 -0.38137,-5.42913 0.10135,-4.25183 6.35515,3.02185 12.79009,7.0755 19.00921,8.33812 -0.11426,-0.18204 15.91523,-15.59715 35.2538,-11.1959 3.70162,0.84244 2.17209,-6.96934 5.96906,-13.58046 3.83223,-6.67253 6.2924,-11.91507 6.46282,-14.84913 z"
             sodipodi:nodetypes="ccccsssscssssccccccccccccccsccsscc" /><path
             id="rect1-0"
             style="fill:none;fill-opacity:1;stroke:#000000;stroke-width:0.423172;stroke-linecap:square;stroke-opacity:0;paint-order:fill markers stroke"
             d="m 487.32735,172.8277 3.07679,34.2177 37.47343,-2.63361 5.23173,-6.53059 10.12272,2.6915 -1.62567,-27.52363 24.93769,18.60537 6.59744,14.40816 -3.11577,43.29802 c -23.02373,34.85419 -57.86185,33.23786 -96.71934,19.21392 l -10.40556,-64.19402 z"
             sodipodi:nodetypes="cccccccccccc" /><path
             style="color:#000000;fill:#000000;fill-opacity:1;stroke-width:2.11586;stroke-linecap:round;stroke-linejoin:round;-inkscape-stroke:none;paint-order:fill markers stroke"
             d="m 563.81234,219.6414 a 15.422593,15.422593 0 0 1 -15.42259,15.4226 15.422593,15.422593 0 0 1 -15.42259,-15.4226 15.422593,15.422593 0 0 1 15.42259,-15.42259 15.422593,15.422593 0 0 1 15.42259,15.42259 z"
             id="path27"
             inkscape:label="path27" /><ellipse
             style="fill:#ffe6d6;fill-opacity:1;stroke:none;stroke-width:6.15804;stroke-linecap:round;stroke-linejoin:round;stroke-dasharray:none;stroke-opacity:0.70604;paint-order:fill markers stroke"
             id="path21"
             cx="546.74341"
             cy="229.89795"
             ry="7.1901603"
             rx="7.8700066" /><path
             style="color:#000000;display:inline;fill:#000000;stroke-width:2.08032;stroke-linecap:round;stroke-linejoin:round;-inkscape-stroke:none;paint-order:fill markers stroke"
             d="m 549.00581,201.13865 c -9.84252,0 -17.88507,8.31968 -17.88507,18.50136 0,10.18168 8.04255,18.50136 17.88507,18.50136 9.84252,0 17.88506,-8.31968 17.88506,-18.50136 0,-10.18168 -8.04254,-18.50136 -17.88506,-18.50136 z m 0,6.15748 c 6.62531,0 11.93269,5.49025 11.93269,12.34388 0,6.85362 -5.30738,12.34389 -11.93269,12.34389 -6.62534,0 -11.9327,-5.49027 -11.9327,-12.34389 0,-6.85363 5.30736,-12.34388 11.9327,-12.34388 z"
             id="path28" /><path
             style="fill:none;fill-opacity:1;stroke:#000000;stroke-width:6.15804;stroke-linecap:round;stroke-linejoin:round;stroke-dasharray:none;stroke-opacity:0.997315;paint-order:fill markers stroke"
             d="m 396.14796,159.70867 c 6.71951,0.28262 12.13475,2.62863 17.31138,5.37249"
             id="path72"
             sodipodi:nodetypes="cc" /><path
             style="fill:#000000;fill-opacity:1;stroke:#000000;stroke-width:2.23928;stroke-linecap:round;stroke-linejoin:round;stroke-dasharray:none;stroke-opacity:1;paint-order:fill markers stroke"
             d="m 473.91472,288.06218 c -1.11325,11.32744 2.34413,27.5056 4.02308,38.02853"
             id="path69"
             sodipodi:nodetypes="cc" /><path
             style="fill:none;fill-opacity:1;stroke:#000000;stroke-width:2.23928;stroke-linecap:round;stroke-linejoin:round;stroke-dasharray:none;stroke-opacity:1;paint-order:fill markers stroke"
             d="m 549.34218,287.82317 c 2.4168,10.75686 4.67262,21.72836 5.40827,34.72675"
             id="path70"
             sodipodi:nodetypes="cc" /><path
             style="fill:none;fill-opacity:1;stroke:#000000;stroke-width:5.03839;stroke-linecap:round;stroke-linejoin:round;stroke-dasharray:none;stroke-opacity:1;paint-order:fill markers stroke"
             d="m 451.85086,149.34435 c 3.20987,-35.97295 -0.43211,-25.24489 -3.82704,-57.644724 -3.39494,-32.399834 32.38474,-1.68307 28.94195,40.901444"
             id="path37"
             sodipodi:nodetypes="czc" /><path
             style="color:#000000;fill:#000001;fill-opacity:1;stroke-width:2.11586;stroke-linecap:round;stroke-linejoin:round;-inkscape-stroke:none;paint-order:fill markers stroke"
             d="m 470.74956,103.782 c 2.86636,8.20285 4.55896,18.0503 3.70476,28.61606 -0.11271,1.38794 0.92201,2.60406 2.31009,2.71508 1.38639,0.1103 2.59988,-0.92376 2.71094,-2.31009 0.75375,-9.32325 -0.27817,-18.07061 -2.37674,-25.78776 z"
             id="path37-4"
             sodipodi:nodetypes="cccccc" /><path
             style="color:#000000;fill:#000001;fill-opacity:1;stroke-width:2.11586;stroke-linecap:round;stroke-linejoin:round;-inkscape-stroke:none;paint-order:fill markers stroke"
             d="m 449.55849,117.48475 c 0.1356,0.7121 0.2593,1.40361 0.36924,2.09419 0.89425,5.61724 1.01259,11.61896 -0.58682,29.54349 -0.12276,1.38523 0.90014,2.60792 2.28529,2.73161 1.38677,0.12519 2.6121,-0.89839 2.73574,-2.28529 1.61046,-18.04839 1.51436,-24.67135 0.54136,-30.78326 -0.41652,-2.6164 -0.96893,-5.05814 -1.59671,-8.25661 0,0 -3.66296,7.20856 -3.7481,6.95587 z"
             id="path37-8"
             sodipodi:nodetypes="cscccscc" /><path
             style="fill:none;fill-opacity:0.524832;stroke:#000000;stroke-width:6.15804;stroke-linecap:round;stroke-linejoin:round;stroke-dasharray:none;stroke-opacity:1;paint-order:fill markers stroke"
             d="m 433.15213,69.670799 c 5.62345,37.669381 15.67739,72.025831 16.3037,109.695211 0,0 -4.95806,1.95579 -10.77511,6.965 -2.05373,1.76852 0.18763,8.27468 -3.45683,12.64041 -2.52437,3.02396 -4.43886,1.49482 -7.3425,3.66793 -1.97606,1.47891 -0.85239,7.48497 -2.91714,9.42851 -2.92763,2.75578 -9.51862,2.50503 -9.51862,2.50503"
             id="path1"
             sodipodi:nodetypes="ccssssc" /><path
             style="fill:none;fill-opacity:0.524832;stroke:#000000;stroke-width:6.15804;stroke-linecap:round;stroke-linejoin:round;stroke-dasharray:none;stroke-opacity:1;paint-order:fill markers stroke"
             d="m 414.33638,234.5734 c 0,0 6.44399,5.75826 12.71852,-0.0914 1.4292,-1.33242 2.15077,-5.00113 4.00956,-6.21605 2.11196,-1.38039 6.82884,4.37993 9.01849,2.26354 2.40375,-2.32334 3.36386,-9.39826 6.081,-12.12128 3.98277,-3.9914 8.76817,1.39365 12.5416,-2.06102 4.82219,-4.41486 1.63286,-11.3055 4.48625,-13.85802 2.75834,-2.46748 4.31458,-2.60917 6.1303,-4.75828 1.45492,-1.72206 -0.59312,-5.37816 0.7638,-7.02367 1.81297,-2.19855 5.65668,-2.09396 7.48975,-3.87822 1.51172,-1.47148 -1.04201,-5.17548 0.15378,-6.52126 3.75695,-4.22823 9.79284,-5.21662 9.79284,-5.21662"
             id="path2"
             sodipodi:nodetypes="cssssssssssc" /><path
             style="fill:none;fill-opacity:0.524832;stroke:#000000;stroke-width:6.15804;stroke-linecap:round;stroke-linejoin:round;stroke-dasharray:none;stroke-opacity:1;paint-order:fill markers stroke"
             d="m 542.09023,174.33856 c 0,0 -5.72885,-4.30659 5.21257,1.57518 1.74093,0.93587 1.38862,4.46666 4.41675,6.75728 1.74194,1.31769 4.3478,0.57232 6.42233,2.1525 1.83517,1.39788 0.2172,3.79261 2.20471,5.369 2.00445,1.58984 4.33971,-0.53557 6.50537,1.13102 1.76522,1.35842 -1.88123,5.38028 1.81088,8.00082 4.31694,3.06404 4.94095,8.71434 7.90353,10.78348 5.53263,3.86417 8.06411,1.19304 12.47237,2.68434 2.34422,0.79305 2.60507,4.25408 4.79143,5.80168 2.40177,1.70012 7.73925,2.45091 7.73925,2.45091"
             id="path3"
             sodipodi:nodetypes="csssssssssc" /><path
             style="fill:none;fill-opacity:0.524832;stroke:#000000;stroke-width:6.15804;stroke-linecap:round;stroke-linejoin:round;stroke-dasharray:none;stroke-opacity:1;paint-order:fill markers stroke"
             d="m 585.58462,184.76834 c 4.58615,1.19899 11.44783,7.58464 16.03398,12.32138"
             id="path4"
             sodipodi:nodetypes="cc" /><path
             style="fill:none;fill-opacity:0.524832;stroke:#000000;stroke-width:6.15804;stroke-linecap:round;stroke-linejoin:round;stroke-dasharray:none;stroke-opacity:1;paint-order:fill markers stroke"
             d="m 462.25235,208.1496 c 6.04132,32.78153 11.78583,64.4198 12.20739,76.44137"
             id="path5"
             sodipodi:nodetypes="cs" /><path
             style="fill:none;fill-opacity:1;stroke:#000000;stroke-width:5.03839;stroke-linecap:round;stroke-linejoin:round;stroke-dasharray:none;stroke-opacity:1;paint-order:fill markers stroke"
             d="m 543.93889,90.025296 c 11.51336,-36.316743 32.20787,22.747294 27.26763,58.362294"
             id="path38"
             sodipodi:nodetypes="cc" /><path
             style="color:#000000;fill:#000001;fill-opacity:1;stroke-width:2.11586;stroke-linecap:round;stroke-linejoin:round;-inkscape-stroke:none;paint-order:fill markers stroke"
             d="m 566.35835,109.68804 c 2.72142,12.49022 3.94489,26.85984 2.35083,38.35167 -0.19212,1.38007 0.77258,2.65397 2.15305,2.84318 1.37717,0.18975 2.64774,-0.77196 2.83906,-2.14892 1.36756,-9.85907 0.87137,-21.23336 -0.83272,-32.00765 0,0 -6.4788,-7.34116 -6.51022,-7.03828 z"
             id="path38-9"
             sodipodi:nodetypes="cccccc" /><path
             style="fill:none;fill-opacity:0.995973;stroke:#000000;stroke-width:5.03839;stroke-linecap:round;stroke-linejoin:round;stroke-dasharray:none;stroke-opacity:1;paint-order:fill markers stroke"
             d="m 543.03993,79.834266 c 9.93687,-54.527004 33.55651,19.31427 28.03789,67.393694"
             id="path13"
             sodipodi:nodetypes="cc" /><path
             style="color:#000000;fill:#000001;fill-opacity:1;stroke-width:2.11586;stroke-linecap:round;stroke-linejoin:round;-inkscape-stroke:none;paint-order:fill markers stroke"
             d="m 567.96903,109.65518 c 1.51487,12.49901 1.93442,25.72836 0.60791,37.28527 -0.15827,1.38188 0.83324,2.63058 2.21504,2.78946 1.38187,0.15833 2.63057,-0.83323 2.78947,-2.21503 1.09641,-9.55228 1.08262,-20.0059 0.26598,-30.28461 0,0 -5.56883,-7.31159 -5.8784,-7.57509 z"
             id="path13-1"
             sodipodi:nodetypes="cccccc" /><path
             style="fill:none;fill-opacity:0.524832;stroke:#000000;stroke-width:6.15804;stroke-linecap:round;stroke-linejoin:round;stroke-dasharray:none;stroke-opacity:1;paint-order:fill markers stroke"
             d="m 448.41923,152.74396 c 52.80212,-45.20587 97.39125,-36.98178 138.41741,12.3276"
             id="path6"
             sodipodi:nodetypes="cc" /><path
             style="color:#000000;fill:#000000;stroke-width:2.11586;stroke-linecap:round;stroke-linejoin:round;-inkscape-stroke:none;paint-order:fill markers stroke"
             d="m 603.70763,152.87891 c -6.9561,5.61045 -9.88631,10.49959 -12.85219,15.60858 -0.21195,0.36509 -0.52444,0.80801 -0.73973,1.17777 -6.75458,-2.66708 -13.72781,-4.74487 -21.49331,-4.23585 a 3.0793256,3.0793256 0 0 0 -2.85145,3.49613 c 0.46843,3.37474 0.33856,7.37081 1.60344,11.59589 1.26486,4.22508 4.22435,8.5039 9.99658,11.68681 a 3.0793256,3.0793256 0 0 0 3.68623,-0.54136 c 5.64693,-5.76557 8.84771,-10.22182 11.4306,-14.22419 6.15029,2.64726 12.53253,5.5731 19.69153,7.52535 a 3.0793256,3.0793256 0 0 0 3.79365,-2.2233 c 3.44593,-13.79361 -2.01567,-22.70616 -8.02124,-29.5063 a 3.0793256,3.0793256 0 0 0 -4.24411,-0.35953 z m 1.67781,6.97985 c 3.84652,4.76539 6.18687,9.92372 5.05408,17.94347 -4.88608,-1.65099 -9.70427,-3.67165 -14.52585,-5.79382 0.0738,-0.12708 0.19572,-0.30418 0.26861,-0.42978 2.49024,-4.28968 4.8976,-7.74161 9.20316,-11.71987 z m -33.01069,12.06287 c 4.77833,0.24767 9.50619,1.4304 14.2779,3.26883 -1.9324,2.88653 -4.67374,6.25357 -8.2444,10.10818 -2.82391,-2.0564 -4.41309,-4.13836 -5.13261,-6.5418 -0.57321,-1.91464 -0.69506,-4.45188 -0.90089,-6.83521 z"
             id="path44" /><path
             style="fill:none;fill-opacity:0.524832;stroke:#000000;stroke-width:6.15804;stroke-linecap:round;stroke-linejoin:round;stroke-dasharray:none;stroke-opacity:1;paint-order:fill markers stroke"
             d="m 541.0219,59.168114 c 2.30224,23.713162 4.60449,47.426326 6.90674,71.139496"
             id="path7"
             sodipodi:nodetypes="cc" /><path
             style="fill:none;fill-opacity:0.524832;stroke:#000000;stroke-width:6.15804;stroke-linecap:round;stroke-linejoin:round;stroke-dasharray:none;stroke-opacity:1;paint-order:fill markers stroke"
             d="m 489.28757,161.5578 c -3.24984,15.65251 -1.20739,31.36554 0.47642,46.03132 12.74647,0.0933 25.40904,0.5782 38.87451,-2.6838 l 3.82759,-8.28309 10.31415,5.20879 c 2.36703,-15.72369 -2.43044,-31.31053 -7.88241,-41.53062"
             id="path8"
             sodipodi:nodetypes="cccccc" /><path
             style="fill:none;fill-opacity:0.524832;stroke:#000000;stroke-width:5.03839;stroke-linecap:round;stroke-linejoin:round;stroke-dasharray:none;stroke-opacity:1;paint-order:fill markers stroke"
             d="m 469.16253,189.9574 c 8.75909,-6.01863 21.63052,-6.80162 29.39693,-5.76623"
             id="path9"
             sodipodi:nodetypes="cc" /><path
             style="fill:none;fill-opacity:0.524832;stroke:#000000;stroke-width:5.03839;stroke-linecap:round;stroke-linejoin:round;stroke-dasharray:none;stroke-opacity:1;paint-order:fill markers stroke"
             d="m 534.76147,180.3157 c 5.58924,-4.68401 18.19562,-5.46609 27.6006,-2.83568"
             id="path10"
             sodipodi:nodetypes="cc" /><path
             style="fill:none;fill-opacity:0.261745;stroke:#000000;stroke-width:5.03839;stroke-linecap:round;stroke-linejoin:round;stroke-dasharray:none;stroke-opacity:1;paint-order:fill markers stroke"
             d="m 471.63974,264.39724 c 18.51089,16.27548 92.82608,24.02605 99.17793,-26.77369"
             id="path11"
             sodipodi:nodetypes="cc" /><path
             style="fill:none;fill-opacity:0.261745;stroke:#000000;stroke-width:5.03839;stroke-linecap:round;stroke-linejoin:round;stroke-dasharray:none;stroke-opacity:1;paint-order:fill markers stroke"
             d="m 575.62824,209.74659 c 0,0 -4.23055,0.40801 -5.36924,10.14343 -0.28964,2.47629 3.64349,4.63248 4.31445,9.47028 0.34143,2.46178 -3.79325,5.87602 -3.50014,8.65075 0.21095,1.99695 4.71881,6.50762 4.8893,8.52477 0.20037,2.3715 -3.18967,5.14695 -2.76701,6.9398 2.21348,9.38887 4.54785,12.02153 4.54785,12.02153 l 7.78089,2.41736 c 0,0 2.74664,-4.08455 4.50471,-12.52433 0.43809,-2.10316 -3.78282,-5.32312 -3.46542,-9.29619 0.18493,-2.31562 4.47244,-4.24735 4.89595,-6.78395 0.34719,-2.07947 -4.2125,-7.28993 -4.03084,-9.3574 0.24792,-2.82154 3.27089,-4.11958 4.0304,-6.03206 1.51451,-3.81356 1.08325,-6.86397 1.08325,-6.86397"
             id="path12"
             sodipodi:nodetypes="csssssccsssssc" /><path
             style="color:#000000;fill:#000001;stroke-width:2.11586;stroke-linecap:round;stroke-linejoin:round;-inkscape-stroke:none;paint-order:fill markers stroke"
             d="m 542.3932,30.869933 c -2.45379,0.541981 -4.79937,1.760332 -6.81455,3.68209 -4.03035,3.843513 -6.99982,10.041297 -9.19489,19.022059 -7.52291,30.778704 -13.01869,50.466108 -13.49686,66.075108 l -11.07933,0.78932 c -0.61007,-15.37765 -3.96511,-24.296684 -9.78171,-34.638914 -14.23385,-25.308612 -31.4016,-41.586337 -46.02404,-46.408375 -7.31122,-2.411018 -14.4975,-1.743065 -19.35266,2.954762 -4.85516,4.697829 -6.9827,12.570759 -6.4261,23.377753 1.93779,37.623854 0.0905,99.768144 -5.42601,143.084904 -1.26958,1.17102 -3.74983,3.20048 -5.32271,7.0625 -1.71448,4.20969 -1.78311,10.31787 0.90916,19.05924 -3.69453,15.28031 -14.54342,32.70433 -17.58807,49.5243 -1.53818,8.49757 -0.91564,17.11719 4.14493,24.74149 4.93371,7.43318 13.87077,13.66343 28.00619,18.6584 l 3.71515,5.38056 c -2.92963,7.87576 -0.70593,16.46432 5.207,22.72068 6.39577,6.76725 16.7752,11.0992 29.12197,10.30241 1.13285,-0.0735 2.13338,-0.76434 2.6035,-1.79765 2.7351,-6.02163 6.4746,-12.57027 6.05003,-21.67928 5.16434,0.93365 7.97891,-0.53323 9.74039,-0.89676 1.33164,-0.27621 2.3244,-1.39327 2.44232,-2.74814 0.70357,-8.03719 -5.5318,-16.36513 -17.62113,-19.94361 l -2.02081,-6.34758 12.22404,-22.80744 c 6.63227,-4.11253 11.53857,-9.31445 17.64582,-11.23679 15.84994,4.37341 26.62646,2.18993 38.47814,1.63691 8.48256,4.21684 16.73554,10.65205 22.99344,15.48461 2.30233,6.46045 3.56192,13.13211 4.4962,19.4353 0.28319,1.9141 2.24075,3.09581 4.0664,2.45473 5.98716,-2.1017 11.35416,-6.41613 15.78629,-11.30249 1.66135,1.97001 3.25673,3.46379 5.31444,3.96723 1.48294,0.36283 3.3898,-0.11722 4.4714,-1.11992 1.08161,-1.00269 1.52431,-2.15287 1.82658,-3.26469 0.95173,-3.50058 0.49503,-7.31877 -0.3802,-10.62888 13.06267,-6.33645 20.21457,-16.48755 21.89418,-28.84509 1.69939,-12.50328 -1.59637,-27.01128 -7.52122,-42.76761 4.20665,-3.06255 6.28423,-8.46548 6.45502,-13.70762 0.10198,-3.13175 -0.44262,-6.28621 -1.90097,-9.02959 -1.15788,-2.17818 -3.15853,-3.87307 -5.55413,-4.98797 -3.131,-8.41648 -5.42292,-17.97465 -9.48416,-26.70858 -0.11145,-0.23891 -0.25311,-0.46252 -0.42152,-0.66534 l -3.54157,-4.2813 C 602.29078,133.6718 591.78166,89.535946 576.35851,60.380367 568.49706,45.519251 559.62607,34.354626 549.85243,31.241863 547.40902,30.463671 544.847,30.327954 542.3932,30.869933 Z m 1.31002,5.855802 c 1.30648,-0.285307 2.68216,-0.12911 4.2813,0.380194 6.39658,2.037216 15.41825,11.947903 22.93143,26.150683 15.0264,28.405554 24.92885,73.112878 13.85227,100.784268 -0.41874,1.04703 -0.23167,2.23921 0.48764,3.10767 l 4.26477,5.1574 c 3.75027,8.17217 6.03771,17.89082 9.53376,26.99372 0.36133,0.93962 1.15914,1.6433 2.13653,1.88444 1.57678,0.38866 2.59093,1.29075 3.4052,2.82252 0.81426,1.53177 1.25912,3.69124 1.18604,5.93433 -0.1462,4.48617 -2.43224,8.76987 -5.11195,9.81064 -1.587,0.61541 -2.37367,2.40164 -1.75631,3.98788 6.31799,16.205 9.53194,30.69035 7.98818,42.04856 -1.54377,11.35817 -7.34046,19.75468 -20.48912,25.29525 -1.55263,0.65437 -2.0954,2.48132 -1.46149,4.04241 0.57611,1.41668 0.6709,5.64733 0.48621,8.0659 -0.61876,-0.49725 -1.13899,-0.68554 -2.82664,-3.04154 -1.20477,-1.67614 -3.68513,-1.71553 -4.94252,-0.0785 -3.23406,4.21481 -7.76864,7.69029 -12.32322,10.07099 -0.92973,-5.51963 -2.09921,-11.29174 -4.26891,-17.13762 -0.20002,-0.54101 -0.54797,-1.01497 -1.00421,-1.36788 -6.38287,-4.91586 -15.54359,-12.32274 -25.47294,-17.11695 -0.453,-0.21777 -0.95241,-0.32134 -1.45465,-0.30168 -13.37539,0.48965 -23.68834,3.64245 -39.11445,-0.92569 -0.55809,-0.16422 -1.15127,-0.167 -1.71087,-0.008 -7.06043,3.77224 -15.5921,9.05448 -17.50551,7.71726 -0.73808,0.8068 -0.59089,5.91368 -5.49314,10.76883 l -11.18154,19.3142 c -0.39286,0.73387 -0.47187,1.59553 -0.21903,2.38861 l 2.85558,8.96347 c 0.32709,1.02887 1.1691,1.81129 2.21917,2.06212 10.03279,2.39504 13.8855,7.62627 14.44735,12.18685 -1.69308,0.6414 -3.17521,1.01168 -8.05845,-0.85129 -2.27384,-0.867 -4.60747,1.12187 -4.11187,3.50439 1.84431,8.90607 -1.263,14.07627 -4.45074,20.71226 -9.82877,0.16757 -17.76271,-3.3391 -22.47686,-8.32707 -5.00626,-5.29703 -6.51336,-11.77798 -3.58291,-17.70378 0.49423,-1.00171 0.40726,-2.19252 -0.22729,-3.11179 l -5.04582,-7.31459 c -0.37504,-0.54155 -0.91385,-0.94856 -1.5373,-1.16125 -14.0145,-4.79563 -21.85133,-10.56894 -25.88207,-16.6417 -4.03074,-6.07277 -4.57994,-12.69716 -3.21511,-20.23704 2.72964,-15.07975 13.72936,-32.70351 17.68725,-49.72265 0.12748,-0.55179 0.10031,-1.12805 -0.0785,-1.66541 -2.87747,-8.66391 -2.39044,-13.25852 -1.28522,-15.97225 1.10522,-2.71374 2.93755,-3.7968 4.84746,-5.88888 l -0.89676,0.67775 c 0.91612,-0.45739 1.54496,-1.34024 1.67781,-2.35554 5.68516,-43.92756 7.54656,-106.77723 5.56653,-145.22124 -0.50619,-9.828093 1.59902,-15.770332 4.55818,-18.633602 2.95916,-2.863268 7.17182,-3.501779 13.14146,-1.53317 11.9393,3.937219 28.85509,19.163629 42.58578,43.577588 6.05653,10.76884 9.01608,18.058854 9.20316,34.944714 0.0197,1.77313 1.529,3.16331 3.29776,3.03742 l 16.81115,-1.19844 c 1.62372,-0.11601 2.87665,-1.47576 2.85972,-3.10353 -0.14574,-14.40866 5.54447,-34.754574 13.53818,-67.459512 2.03829,-8.339303 4.79915,-13.49334 7.45923,-16.030104 1.33004,-1.26838 2.56983,-1.99585 3.87632,-2.281159 z"
             id="path79"
             sodipodi:nodetypes="sssccsssscscssccsccccccccccccccssscscssccccssscsscccccssccsscccccccccccccccccccccsccccssccscccssssscccsscc" /><path
             style="color:#000000;fill:#000000;stroke-width:2.11586;stroke-linecap:round;stroke-linejoin:round;-inkscape-stroke:none;paint-order:fill markers stroke"
             d="m 577.59828,262.54813 c -7.76309,0 -14.12501,6.36192 -14.12501,14.125 0,7.76308 6.36192,14.12088 14.12501,14.12088 7.76308,0 14.12085,-6.3578 14.12085,-14.12088 0,-7.76308 -6.35777,-14.125 -14.12085,-14.125 z m 0,6.16161 c 4.43503,0 7.96339,3.52836 7.96339,7.96339 0,4.43503 -3.52836,7.96339 -7.96339,7.96339 -4.43505,0 -7.96342,-3.52836 -7.96342,-7.96339 0,-4.43503 3.52837,-7.96339 7.96342,-7.96339 z"
             id="path42" /><circle
             style="fill:#000000;fill-opacity:1;stroke:none;stroke-width:8.93908;stroke-linecap:round;stroke-linejoin:round;stroke-dasharray:none;stroke-opacity:0.70604;paint-order:fill markers stroke"
             id="path14"
             cx="578.98486"
             cy="274.7066"
             r="2.6018331" /><path
             style="fill:none;fill-opacity:0.571812;stroke:#000000;stroke-width:3.91874;stroke-linecap:round;stroke-linejoin:round;stroke-dasharray:none;stroke-opacity:1;paint-order:fill markers stroke"
             d="m 578.81136,274.76441 c -5.09154,3.43095 -7.75716,7.37612 -9.01969,9.59788"
             id="path15"
             sodipodi:nodetypes="cc" /><path
             style="fill:none;fill-opacity:0.571812;stroke:#000000;stroke-width:6.15804;stroke-linecap:round;stroke-linejoin:round;stroke-dasharray:none;stroke-opacity:1;paint-order:fill markers stroke"
             d="m 569.67604,285.0561 c -6.78467,5.95362 -8.90404,14.19249 -7.9946,21.64778"
             id="path16"
             sodipodi:nodetypes="cc" /><path
             style="fill:none;fill-opacity:0.571812;stroke:#000000;stroke-width:6.15804;stroke-linecap:round;stroke-linejoin:round;stroke-dasharray:none;stroke-opacity:1;paint-order:fill markers stroke"
             d="m 584.36684,285.57865 c 2.98992,4.3151 3.52054,8.36735 4.34572,13.11373"
             id="path17"
             sodipodi:nodetypes="cc" /><path
             style="fill:none;fill-opacity:0.571812;stroke:#000000;stroke-width:6.15804;stroke-linecap:round;stroke-linejoin:round;stroke-dasharray:none;stroke-opacity:1;paint-order:fill markers stroke"
             d="m 470.85212,216.51112 c 14.25916,0.18408 24.59455,2.33292 32.85829,5.19913 -12.18449,5.04964 -22.86885,12.39516 -28.72641,16.0001"
             id="path18"
             sodipodi:nodetypes="ccc" /><path
             style="fill:none;fill-opacity:0.571812;stroke:#000000;stroke-width:6.15804;stroke-linecap:round;stroke-linejoin:round;stroke-dasharray:none;stroke-opacity:1;paint-order:fill markers stroke"
             d="m 534.40443,212.80316 c 6.12714,-16.1684 29.88596,-16.99228 38.20192,-8.2293"
             id="path20"
             sodipodi:nodetypes="cc" /><path
             style="color:#000000;fill:#000000;fill-opacity:0.998658;stroke-width:2.11586;stroke-linecap:round;stroke-linejoin:round;-inkscape-stroke:none;paint-order:fill markers stroke"
             d="m 531.38826,240.93496 a 2.2392864,2.2392864 0 0 0 -1.71087,0.0785 c -1.93994,0.90821 -5.51656,2.03609 -9.41805,0.66121 a 2.2395104,2.2395104 0 0 0 -1.95469,0.22731 c -3.36759,2.15989 -6.79806,3.20192 -10.38919,3.46304 a 2.2395104,2.2395104 0 0 0 -2.07453,2.34317 c 0.20096,4.11993 0.91734,11.74472 4.41355,16.3979 0.87405,1.16327 2.01009,2.1882 3.49612,2.68199 1.48603,0.49382 3.2142,0.33715 4.79787,-0.39257 3.16736,-1.45948 6.16691,-4.83321 9.8561,-10.94709 a 2.2392864,2.2392864 0 0 0 -0.76039,-3.07462 2.2392864,2.2392864 0 0 0 -3.0746,0.7604 c -3.48224,5.77092 -6.32277,8.47128 -7.89315,9.19488 -0.78518,0.36181 -1.15209,0.3264 -1.5125,0.20672 -0.36042,-0.11976 -0.82337,-0.44473 -1.33068,-1.11992 -1.76766,-2.3526 -2.84032,-8.12014 -3.24404,-12.0422 3.2021,-0.51576 6.36344,-1.5331 9.39739,-3.35149 4.87328,1.25927 9.23047,0.15297 11.58762,-0.95049 a 2.2392864,2.2392864 0 0 0 1.0786,-2.97955 2.2392864,2.2392864 0 0 0 -1.26456,-1.15712 z"
             id="path30" /><path
             style="fill:none;fill-opacity:0.480537;stroke:#000000;stroke-width:3.35892;stroke-linecap:round;stroke-linejoin:round;stroke-dasharray:none;stroke-opacity:1;paint-order:fill markers stroke"
             d="m 480.94141,243.71585 3.05476,6.00045"
             id="path23" /><path
             style="fill:none;fill-opacity:0.480537;stroke:#000000;stroke-width:3.35892;stroke-linecap:round;stroke-linejoin:round;stroke-dasharray:none;stroke-opacity:1;paint-order:fill markers stroke"
             d="m 475.81377,243.82496 2.40017,5.89134"
             id="path24" /><path
             style="fill:none;fill-opacity:0.480537;stroke:#000000;stroke-width:3.35892;stroke-linecap:round;stroke-linejoin:round;stroke-dasharray:none;stroke-opacity:1;paint-order:fill markers stroke"
             d="m 557.41966,238.91552 2.08335,5.12763"
             id="path25"
             sodipodi:nodetypes="cc" /><path
             style="fill:none;fill-opacity:0.480537;stroke:#000000;stroke-width:3.35892;stroke-linecap:round;stroke-linejoin:round;stroke-dasharray:none;stroke-opacity:1;paint-order:fill markers stroke"
             d="m 562.6564,238.37003 2.07289,5.67312"
             id="path26"
             sodipodi:nodetypes="cc" /><path
             style="fill:none;fill-opacity:1;stroke:#000000;stroke-width:2;stroke-linecap:round;stroke-linejoin:round;stroke-dasharray:none;stroke-opacity:1;paint-order:fill markers stroke"
             d="m 616.08201,196.43587 c -12.55692,-2.66548 -24.50502,3.99248 -30.3271,6.72778"
             id="path45"
             sodipodi:nodetypes="cc" /><path
             style="fill:none;fill-opacity:1;stroke:#000000;stroke-width:2;stroke-linecap:round;stroke-linejoin:round;stroke-dasharray:none;stroke-opacity:1;paint-order:fill markers stroke"
             d="m 616.69632,199.82274 c -10.43717,-1.15964 -17.10575,-3.56393 -27.8256,6.74963"
             id="path45-8"
             sodipodi:nodetypes="cc" /><path
             style="color:#000000;fill:#000000;stroke-width:2.11586;stroke-linecap:round;stroke-linejoin:round;-inkscape-stroke:none;paint-order:fill markers stroke"
             d="m 612.99535,187.16175 c -5.09847,1.41161 -9.23804,5.45949 -13.01335,9.73625 -0.30572,-0.12432 -0.86079,-0.30106 -1.16537,-0.42151 -4.19257,-1.65804 -8.42023,-2.87204 -15.33997,-2.98783 a 2.239507,2.239507 0 0 0 -2.25223,2.54565 c 1.06439,7.66831 3.34905,12.81872 8.76511,16.33178 a 2.239507,2.239507 0 0 0 2.77707,-0.26861 c 2.80749,-2.70942 5.6603,-6.44944 8.57915,-9.95115 3.32037,1.37842 6.36498,2.80902 12.33974,4.43834 a 2.239507,2.239507 0 0 0 2.64068,-1.26456 c 1.58423,-3.64075 2.42259,-6.79537 2.29357,-9.74865 -0.12907,-2.95328 -1.34596,-5.61974 -3.40107,-7.78983 a 2.239507,2.239507 0 0 0 -2.22333,-0.61988 z m -0.091,5.0417 c 0.71097,1.08317 1.18393,2.18971 1.24389,3.56224 0.0624,1.42792 -0.68653,3.58579 -1.4216,5.72769 -3.4287,-1.04428 -5.74447,-1.9608 -8.08323,-2.91343 2.76229,-2.94119 5.55929,-5.22822 8.26094,-6.3765 z m -26.50609,6.06656 c 4.21303,0.34125 7.36979,1.0682 10.43465,2.26463 -2.01349,2.44338 -3.99889,4.79529 -5.72769,6.65751 -2.43701,-2.05228 -3.87194,-4.88543 -4.70696,-8.92214 z"
             id="path47" /><path
             style="fill:none;fill-opacity:1;stroke:#000000;stroke-width:6.15804;stroke-linecap:round;stroke-linejoin:round;stroke-dasharray:none;stroke-opacity:1;paint-order:fill markers stroke"
             d="m 427.57725,324.96029 c 8.78669,-8.07205 15.83557,-10.90054 26.26936,-11.54374 2.22277,-0.13703 4.59916,-0.17488 7.17869,-0.14312"
             id="path48"
             sodipodi:nodetypes="csc" /><path
             style="fill:none;fill-opacity:1;stroke:#000000;stroke-width:6.15804;stroke-linecap:round;stroke-linejoin:round;stroke-dasharray:none;stroke-opacity:1;paint-order:fill markers stroke"
             d="m 431.69525,331.90834 c 11.36762,-5.28221 20.71334,-8.29333 32.08096,-10.65675"
             id="path49"
             sodipodi:nodetypes="cc" /><path
             style="fill:none;fill-opacity:1;stroke:#000000;stroke-width:6.15804;stroke-linecap:round;stroke-linejoin:round;stroke-dasharray:none;stroke-opacity:1;paint-order:fill markers stroke"
             d="m 406.96499,324.34559 2.46528,5.14972 c -2.09711,2.29186 -2.61559,4.05494 -2.01334,6.44266 0.60225,2.38775 2.4084,4.71128 5.63733,5.36889"
             id="path50"
             sodipodi:nodetypes="cczc" /><path
             style="fill:none;fill-opacity:1;stroke:#000000;stroke-width:6.15804;stroke-linecap:round;stroke-linejoin:round;stroke-dasharray:none;stroke-opacity:1;paint-order:fill markers stroke"
             d="m 421.67374,349.25419 c 1.40789,4.14283 5.10348,7.07877 7.15609,9.28745"
             id="path51"
             sodipodi:nodetypes="cc" /><circle
             style="fill:#000000;fill-opacity:1;stroke:none;stroke-width:9.33036;stroke-linecap:round;stroke-linejoin:round;stroke-dasharray:none;stroke-opacity:1;paint-order:fill markers stroke"
             id="path52"
             cx="417.88629"
             cy="344.93085"
             r="2.760165" /><path
             style="fill:#fafafd;fill-opacity:0.716779;stroke:none;stroke-width:6.15804;stroke-linecap:round;stroke-linejoin:round;stroke-dasharray:none;stroke-opacity:0.444295;paint-order:fill markers stroke"
             d="m 396.54494,346.9442 16.10666,10.60354"
             id="path53" /><path
             style="fill:none;fill-opacity:0.716779;stroke:#000000;stroke-width:6.15804;stroke-linecap:round;stroke-linejoin:round;stroke-dasharray:none;stroke-opacity:1;paint-order:fill markers stroke"
             d="m 396.96663,346.63192 c 9.17261,8.47122 13.39743,11.41451 21.12957,12.77667"
             id="path54"
             sodipodi:nodetypes="cc" /><path
             style="fill:none;fill-opacity:0.716779;stroke:#000000;stroke-width:6.15804;stroke-linecap:round;stroke-linejoin:round;stroke-dasharray:none;stroke-opacity:1;paint-order:fill markers stroke"
             d="m 507.08581,318.83046 c -6.2882,-12.67865 -13.36008,-25.13836 -14.21339,-38.26849 0.59607,10.39263 44.06971,10.27567 41.76998,-1.61624 0.45635,13.96031 -4.64573,27.41477 -11.25214,38.44994"
             id="path55"
             sodipodi:nodetypes="cccc" /><path
             style="fill:none;fill-opacity:0.716779;stroke:#000000;stroke-width:6.15804;stroke-linecap:round;stroke-linejoin:round;stroke-dasharray:none;stroke-opacity:1;paint-order:fill markers stroke"
             d="m 507.73799,337.2219 -16.69575,21.13054"
             id="path56" /><path
             style="fill:none;fill-opacity:0.716779;stroke:#000000;stroke-width:6.15804;stroke-linecap:round;stroke-linejoin:round;stroke-dasharray:none;stroke-opacity:1;paint-order:fill markers stroke"
             d="m 525.47724,336.70015 22.86874,22.58426"
             id="path57"
             sodipodi:nodetypes="cc" /><path
             style="fill:none;fill-opacity:0.716779;stroke:#000000;stroke-width:6.15804;stroke-linecap:round;stroke-linejoin:round;stroke-dasharray:none;stroke-opacity:1;paint-order:fill markers stroke"
             d="m 557.95569,292.74335 c 3.86599,15.29054 8.45698,30.17025 6.00004,49.04379"
             id="path58"
             sodipodi:nodetypes="cc" /><path
             style="fill:none;fill-opacity:0.716779;stroke:#000000;stroke-width:6.15804;stroke-linecap:round;stroke-linejoin:round;stroke-dasharray:none;stroke-opacity:1;paint-order:fill markers stroke"
             d="m 577.26016,343.87411 c 1.0507,-4.21804 3.97989,-6.6713 7.53197,-7.22504 1.37387,-0.21419 4.02182,-1.49754 3.08158,-4.45796"
             id="path59"
             sodipodi:nodetypes="csc" /><path
             style="color:#000000;fill:#000000;stroke-width:2.11586;stroke-linecap:round;stroke-linejoin:round;-inkscape-stroke:none;paint-order:fill markers stroke"
             d="m 516.72189,312.65512 c -8.47148,0 -15.40609,6.93459 -15.40609,15.40609 0,8.47147 6.93461,15.40609 15.40609,15.40609 8.47148,0 15.40609,-6.93462 15.40609,-15.40609 0,-8.4715 -6.93461,-15.40609 -15.40609,-15.40609 z m 0,6.15746 c 5.14344,0 9.24862,4.10519 9.24862,9.24863 0,5.14344 -4.10518,9.24448 -9.24862,9.24448 -5.14343,0 -9.24861,-4.10104 -9.24861,-9.24448 0,-5.14344 4.10518,-9.24863 9.24861,-9.24863 z"
             id="path77" /><path
             style="fill:none;fill-opacity:0.716779;stroke:#000000;stroke-width:3.91874;stroke-linecap:round;stroke-linejoin:round;stroke-dasharray:none;stroke-opacity:1;paint-order:fill markers stroke"
             d="m 517.10678,327.80394 c 0.51737,3.7702 0.11825,10.16312 -1.66915,12.32599"
             id="path61"
             sodipodi:nodetypes="cc" /><circle
             style="fill:#000000;fill-opacity:1;stroke:none;stroke-width:3.91874;stroke-linecap:round;stroke-linejoin:round;stroke-dasharray:none;stroke-opacity:0.695302;paint-order:fill markers stroke"
             id="path62"
             cx="516.84998"
             cy="326.64838"
             r="3.3382936" /><path
             style="fill:none;fill-opacity:0.716779;stroke:#000000;stroke-width:6.15804;stroke-linecap:round;stroke-linejoin:round;stroke-dasharray:none;stroke-opacity:1;paint-order:fill markers stroke"
             d="m 504.36962,322.89339 c -8.16857,-0.47281 -16.2743,-1.35398 -25.13979,2.7032 l 2.97353,16.08406 c 7.70413,-1.93358 14.99057,-5.82932 22.6947,-9.85857"
             id="path63"
             sodipodi:nodetypes="cccc" /><path
             style="fill:none;fill-opacity:0.716779;stroke:#000000;stroke-width:6.15804;stroke-linecap:round;stroke-linejoin:round;stroke-dasharray:none;stroke-opacity:1;paint-order:fill markers stroke"
             d="m 527.21168,321.27146 c 15.35163,-1.44894 23.58671,0.29228 28.5188,3.51417 l -4.59545,14.05666 -21.76078,-6.75801"
             id="path64"
             sodipodi:nodetypes="cccc" /><path
             style="fill:none;fill-opacity:0.716779;stroke:#000000;stroke-width:6.15804;stroke-linecap:round;stroke-linejoin:round;stroke-dasharray:none;stroke-opacity:1;paint-order:fill markers stroke"
             d="m 550.99987,338.97745 4.32515,2.16255 -5.67676,18.24663"
             id="path65"
             sodipodi:nodetypes="ccc" /><path
             style="fill:none;fill-opacity:0.716779;stroke:#000000;stroke-width:6.15804;stroke-linecap:round;stroke-linejoin:round;stroke-dasharray:none;stroke-opacity:1;paint-order:fill markers stroke"
             d="m 483.28464,341.27516 -6.08221,4.32513 9.29143,13.69547"
             id="path66"
             sodipodi:nodetypes="ccc" /><circle
             style="fill:#000000;fill-opacity:1;stroke:none;stroke-width:5.52372;stroke-linecap:round;stroke-linejoin:round;stroke-dasharray:none;stroke-opacity:0.790604;paint-order:fill markers stroke"
             id="path67"
             cx="572.23291"
             cy="348.62555"
             r="2.5613151" /><path
             style="color:#000000;fill:#000000;stroke-width:2.11586;stroke-linecap:round;stroke-linejoin:round;-inkscape-stroke:none;paint-order:fill markers stroke"
             d="m 358.97229,132.97248 c -1.05475,-0.10121 -2.16431,0.0242 -3.28536,0.55376 -2.11993,1.00139 -3.17776,2.87001 -3.83913,4.61605 -0.66136,1.74603 -0.97315,3.57257 -1.15711,5.28964 -0.25942,2.4215 -0.14891,3.48199 -0.11157,4.59538 -0.90662,0.49974 -1.64132,0.82247 -3.33083,2.07866 -2.51795,1.87217 -5.71335,4.2186 -5.89299,8.46344 -0.0905,2.13755 0.864,3.8859 1.92989,5.22352 1.0659,1.33762 2.33644,2.39092 3.56225,3.27297 1.6301,1.17296 2.3344,1.44399 3.23164,1.90096 0.0281,1.08833 -0.0149,2.15841 0.40086,4.521 0.29281,1.6639 0.71955,3.42687 1.52077,5.08715 0.80122,1.66027 2.10132,3.44364 4.35982,4.13253 2.32838,0.71021 4.37279,-0.0711 6.0583,-0.98767 1.68551,-0.91658 3.18558,-2.14182 4.52513,-3.36802 1.93361,-1.77001 2.66243,-2.73851 3.40107,-3.6201 1.1484,0.28259 2.39067,0.66493 5.14914,0.92982 1.89289,0.18178 3.93546,0.24451 5.94259,-0.0868 2.00712,-0.33129 4.19075,-1.06705 5.6657,-3.05394 1.54471,-2.08087 1.63004,-4.51575 1.34721,-6.67818 -0.28283,-2.16243 -0.98665,-4.25557 -1.76873,-6.16161 -1.21627,-2.96423 -2.15989,-4.40651 -2.75227,-5.39296 0.46193,-0.89346 0.95386,-1.6937 1.65715,-3.7606 0.50126,-1.47315 0.93923,-3.09612 1.03727,-4.82267 0.098,-1.72655 -0.13296,-3.76906 -1.60343,-5.43842 -1.55041,-1.76012 -3.65813,-2.14765 -5.45494,-2.19438 -1.79681,-0.0467 -3.54977,0.26192 -5.16567,0.64881 -2.176,0.52099 -2.98193,0.91202 -4.02922,1.31828 -0.83607,-0.85099 -1.58726,-1.71653 -3.62424,-3.29363 -1.44376,-1.11781 -3.05071,-2.21218 -4.83093,-2.96716 -0.89011,-0.37749 -1.88761,-0.70463 -2.94237,-0.80584 z m -0.65707,6.12029 c -0.17946,0.0848 0.22068,-0.0575 1.19431,0.3554 0.97362,0.4129 2.26634,1.23891 3.46306,2.16544 2.39343,1.85308 4.39702,3.99617 4.39702,3.99617 a 3.0793256,3.0793256 0 0 0 3.46306,0.73559 c 0,0 2.38962,-1.00727 5.00037,-1.63235 1.30537,-0.31255 2.65209,-0.50739 3.57051,-0.48351 0.91842,0.0239 1.14418,0.28043 0.99181,0.10744 -0.0724,-0.0822 0.12606,0.17936 0.0785,1.01661 -0.0476,0.83723 -0.3272,2.03866 -0.71907,3.19031 -0.78373,2.30332 -1.90923,4.3433 -1.90923,4.3433 a 3.0793256,3.0793256 0 0 0 0.0827,3.14073 c 0,0 1.73589,2.77989 3.05394,5.99217 0.65903,1.60614 1.19175,3.30517 1.36374,4.62018 0.17199,1.315 -0.0654,2.04298 -0.19009,2.2109 -0.0549,0.0739 -0.55938,0.4567 -1.72327,0.64881 -1.16389,0.1921 -2.77721,0.18385 -4.34743,0.0331 -3.14043,-0.30157 -6.0211,-1.08686 -6.0211,-1.08686 a 3.0793256,3.0793256 0 0 0 -3.22751,1.0538 c 0,0 -1.81092,2.26072 -4.04988,4.31023 -1.11949,1.02476 -2.34404,1.97481 -3.31016,2.50019 -0.96614,0.52538 -1.49781,0.4548 -1.32242,0.5083 0.10552,0.0322 -0.20613,-0.0899 -0.60748,-0.92156 -0.40135,-0.83167 -0.77009,-2.14513 -1.00421,-3.47547 -0.46822,-2.66066 -0.46697,-5.28138 -0.46697,-5.28138 a 3.0793256,3.0793256 0 0 0 -1.78939,-2.80599 c 0,0 -1.96669,-0.91844 -3.84326,-2.26876 -0.93828,-0.67516 -1.82089,-1.45634 -2.34314,-2.11172 -0.52226,-0.65539 -0.59361,-1.06134 -0.59096,-1.12405 0.007,-0.15569 1.39783,-2.27951 3.41761,-3.78127 2.01977,-1.50176 4.06641,-2.54978 4.06641,-2.54978 a 3.0793256,3.0793256 0 0 0 1.68195,-2.94236 c 0,0 -0.1595,-2.66702 0.1405,-5.46735 0.15001,-1.40016 0.43086,-2.80748 0.79345,-3.76474 0.36259,-0.95725 0.76396,-1.25856 0.70666,-1.23149 z"
             id="path74" /><path
             style="fill:#47332e;fill-opacity:1;stroke:#000000;stroke-width:6.15804;stroke-linecap:round;stroke-linejoin:round;stroke-dasharray:none;stroke-opacity:1;paint-order:fill markers stroke"
             d="m 465.46764,304.88548 3.62247,17.57427"
             id="path71"
             sodipodi:nodetypes="cc" /><rect
             style="opacity:1;fill:#000000;fill-opacity:1;stroke:none;stroke-width:1.01618;stroke-linecap:round;stroke-linejoin:round;stroke-dasharray:none;stroke-opacity:1"
             id="rect161"
             width="110.32641"
             height="6.0373201"
             x="464.51251"
             y="356.51099" /></g></g></g></g></svg>
