<?xml version="1.0" encoding="UTF-8" standalone="no"?>
<!-- Created with Inkscape (http://www.inkscape.org/) -->

<svg
   width="1920"
   height="640"
   viewBox="0 0 507.99999 169.33334"
   version="1.1"
   id="svg5"
   inkscape:version="1.2.1 (9c6d41e410, 2022-07-14)"
   sodipodi:docname="aosc-os-loongarch64.svg"
   xml:space="preserve"
   inkscape:export-filename="aosc-os-loongarch64.png"
   inkscape:export-xdpi="96"
   inkscape:export-ydpi="96"
   xmlns:inkscape="http://www.inkscape.org/namespaces/inkscape"
   xmlns:sodipodi="http://sodipodi.sourceforge.net/DTD/sodipodi-0.dtd"
   xmlns="http://www.w3.org/2000/svg"
   xmlns:svg="http://www.w3.org/2000/svg"><sodipodi:namedview
     id="namedview7"
     pagecolor="#fff3eb"
     bordercolor="#000000"
     borderopacity="0.25"
     inkscape:showpageshadow="2"
     inkscape:pageopacity="1"
     inkscape:pagecheckerboard="0"
     inkscape:deskcolor="#d1d1d1"
     inkscape:document-units="mm"
     showgrid="false"
     inkscape:zoom="0.47772572"
     inkscape:cx="637.39503"
     inkscape:cy="241.77053"
     inkscape:window-width="1920"
     inkscape:window-height="1099"
     inkscape:window-x="0"
     inkscape:window-y="0"
     inkscape:window-maximized="1"
     inkscape:current-layer="layer1" /><defs
     id="defs2" /><g
     inkscape:label="图层 1"
     inkscape:groupmode="layer"
     id="layer1"><rect
       style="opacity:1;fill:#ca463a;fill-opacity:1;stroke-width:2.33675;stroke-linecap:round;paint-order:stroke fill markers;stop-color:#000000"
       id="rect844-8-5-5-3"
       width="42.4245"
       height="67.393578"
       x="198.77927"
       y="113.63615"
       transform="matrix(0.98802429,0.15429845,-0.85036973,0.52618563,0,0)"
       rx="4.9888067" /><rect
       style="opacity:1;fill:#ca463a;fill-opacity:1;stroke-width:2.33675;stroke-linecap:round;paint-order:stroke fill markers;stop-color:#000000"
       id="rect844-3-58-04-3-9"
       width="37.710667"
       height="67.393578"
       x="154.31145"
       y="64.545601"
       transform="matrix(0.98802429,0.15429845,-0.85036973,0.52618563,0,0)"
       rx="4.9888067" /><rect
       style="opacity:1;fill:#ca463a;fill-opacity:1;stroke-width:2.33675;stroke-linecap:round;paint-order:stroke fill markers;stop-color:#000000"
       id="rect844-3-5-43-8-8-7"
       width="18.855333"
       height="32.292759"
       x="198.94443"
       y="74.987839"
       transform="matrix(0.98802429,0.15429845,-0.85036973,0.52618563,0,0)"
       rx="4.9888067" /><rect
       style="opacity:1;fill:#ca463a;fill-opacity:1;stroke-width:2.33675;stroke-linecap:round;paint-order:stroke fill markers;stop-color:#000000"
       id="rect844-3-6-71-7-8-2"
       width="23.569166"
       height="42.120987"
       x="124.39126"
       y="33.576267"
       transform="matrix(0.98802429,0.15429845,-0.85036973,0.52618563,0,0)"
       inkscape:transform-center-x="5.6372972"
       inkscape:transform-center-y="33.13425"
       rx="4.9888067" /><g
       id="text3388"
       style="font-size:50.8px;font-family:'URW Gothic';-inkscape-font-specification:'URW Gothic';text-align:center;text-anchor:middle;fill:#e5e5e5;fill-opacity:0.960784;stroke-width:13.2292;stroke-opacity:0.133333" /><g
       aria-label="LoongArch"
       id="text2299"
       style="font-size:50.8px;font-family:'演示悠然小楷';-inkscape-font-specification:'演示悠然小楷';text-align:center;letter-spacing:-1.5875px;text-anchor:middle;fill:#272e31;stroke-width:13.2292;stroke-opacity:0.133333"><path
         d="m 167.26696,61.55483 v 33.172399 h 19.1008 v 4.7752 h -24.13 V 61.55483 Z"
         style="-inkscape-font-specification:MiSans"
         id="path352" /><path
         d="m 199.86794,100.21363 q -3.81,0 -6.7056,-1.727201 -2.8448,-1.778 -4.4196,-5.0292 -1.524,-3.302 -1.524,-7.6708 0,-4.4196 1.524,-7.6708 1.5748,-3.2512 4.4196,-4.9784 2.8956,-1.778 6.7056,-1.778 3.81,0 6.6548,1.778 2.8956,1.7272 4.4196,4.9784 1.5748,3.2512 1.5748,7.6708 0,4.3688 -1.5748,7.6708 -1.524,3.2512 -4.4196,5.0292 -2.8448,1.727201 -6.6548,1.727201 z m 0,-4.622801 q 3.5052,0 5.588,-2.6416 2.0828,-2.6416 2.0828,-7.1628 0,-4.572 -2.0828,-7.2136 -2.0828,-2.6416 -5.588,-2.6416 -3.5052,0 -5.588,2.6416 -2.0828,2.6416 -2.0828,7.2136 0,4.5212 2.0828,7.1628 2.0828,2.6416 5.588,2.6416 z"
         style="-inkscape-font-specification:MiSans"
         id="path354" /><path
         d="m 228.04926,100.21363 q -3.81,0 -6.7056,-1.727201 -2.8448,-1.778 -4.4196,-5.0292 -1.524,-3.302 -1.524,-7.6708 0,-4.4196 1.524,-7.6708 1.5748,-3.2512 4.4196,-4.9784 2.8956,-1.778 6.7056,-1.778 3.81,0 6.6548,1.778 2.8956,1.7272 4.4196,4.9784 1.5748,3.2512 1.5748,7.6708 0,4.3688 -1.5748,7.6708 -1.524,3.2512 -4.4196,5.0292 -2.8448,1.727201 -6.6548,1.727201 z m 0,-4.622801 q 3.5052,0 5.588,-2.6416 2.0828,-2.6416 2.0828,-7.1628 0,-4.572 -2.0828,-7.2136 -2.0828,-2.6416 -5.588,-2.6416 -3.5052,0 -5.588,2.6416 -2.0828,2.6416 -2.0828,7.2136 0,4.5212 2.0828,7.1628 2.0828,2.6416 5.588,2.6416 z"
         style="-inkscape-font-specification:MiSans"
         id="path356" /><path
         d="m 244.90218,99.502429 v -27.432 h 4.8768 v 3.81 h 0.254 q 1.27,-2.032 3.556,-3.2512 2.3368,-1.27 4.7752,-1.27 4.4704,0 7.0104,2.794 2.54,2.794 2.54,7.874 v 17.4752 h -4.8768 v -16.6624 q 0,-3.0988 -1.7272,-5.0292 -1.7272,-1.9812 -4.3688,-1.9812 -3.2004,0 -5.1816,2.0828 -1.9812,2.032 -1.9812,5.4356 v 16.1544 z"
         style="-inkscape-font-specification:MiSans"
         id="path358" /><path
         d="m 284.51345,110.93243 q -4.064,0 -7.0104,-1.5748 -2.8956,-1.524 -4.6736,-4.2672 l 3.8608,-2.7432 q 1.3208,2.032 3.3528,3.048 2.032,1.0668 4.4704,1.0668 3.5052,0 5.5372,-2.1336 2.032,-2.1336 2.032,-6.451601 v -2.8448 h -0.3048 q -1.3716,2.1844 -3.4544,3.3528 -2.0828,1.1684 -4.7244,1.1684 -3.3528,0 -6.0452,-1.8288 -2.6416,-1.8288 -4.1656,-5.08 -1.524,-3.302 -1.524,-7.5184 0,-4.064 1.4732,-7.1628 1.524,-3.1496 4.1656,-4.8768 2.6924,-1.7272 6.0452,-1.7272 2.4384,0 4.572,1.2192 2.1844,1.1684 3.6576,3.302 h 0.3048 v -3.81 h 4.8768 v 25.6032 q 0,6.451601 -3.302,9.855201 -3.2512,3.4036 -9.144,3.4036 z m 0.3048,-16.154401 q 3.3528,0 5.3848,-2.54 2.0828,-2.54 2.0828,-6.8072 0,-4.2164 -2.1336,-6.7564 -2.1336,-2.5908 -5.5372,-2.5908 -2.2352,0 -4.0132,1.1684 -1.778,1.1684 -2.794,3.302 -0.9652,2.0828 -0.9652,4.8768 0,4.2164 2.2352,6.8072 2.2352,2.54 5.7404,2.54 z"
         style="-inkscape-font-specification:MiSans"
         id="path360" /><path
         d="m 333.06555,99.502429 h -5.3848 l -4.5212,-12.446 h -13.6652 l -4.5212,12.446 h -5.4356 l 14.1224,-37.947599 h 5.2832 z m -16.9164,-30.734 -4.9276,13.5128 h 10.16 l -4.9276,-13.5128 z"
         style="-inkscape-font-specification:MiSans"
         id="path362" /><path
         d="m 335.64365,99.502429 v -27.432 h 4.8768 v 5.1816 h 0.254 q 1.6256,-2.794 4.2164,-4.318 2.6416,-1.5748 5.9436,-1.5748 h 0.3556 v 5.1308 h -0.4572 q -3.2004,0 -5.5372,1.016 -2.3368,0.9652 -3.556,2.7432 -1.2192,1.7272 -1.2192,3.8608 v 15.3924 z"
         style="-inkscape-font-specification:MiSans"
         id="path364" /><path
         d="m 364.99336,100.21363 q -3.9624,0 -6.9088,-1.778001 -2.9464,-1.8288 -4.572,-5.08 -1.5748,-3.302 -1.5748,-7.62 0,-4.318 1.5748,-7.5692 1.6256,-3.2512 4.572,-5.0292 2.9464,-1.778 6.9088,-1.778 3.048,0 5.7912,1.6256 2.794,1.5748 4.4196,4.2672 l -3.81,2.6924 q -1.1684,-1.8796 -2.9464,-2.8956 -1.7272,-1.0668 -3.7592,-1.0668 -3.5052,0 -5.6388,2.6924 -2.1336,2.6416 -2.1336,7.0612 0,4.4704 2.0828,7.1628 2.1336,2.6924 5.6388,2.6924 2.032,0 3.81,-1.016 1.778,-1.0668 2.9464,-2.9464 l 3.81,2.6924 q -1.5748,2.6924 -4.3688,4.318 -2.794,1.574801 -5.842,1.574801 z"
         style="-inkscape-font-specification:MiSans"
         id="path366" /><path
         d="M 379.15387,99.502429 V 61.55483 h 4.8768 v 14.325599 h 0.254 q 1.27,-2.032 3.556,-3.2512 2.3368,-1.27 4.7752,-1.27 4.4704,0 7.0104,2.794 2.54,2.794 2.54,7.874 v 17.4752 h -4.8768 v -16.6624 q 0,-3.0988 -1.7272,-5.0292 -1.7272,-1.9812 -4.3688,-1.9812 -3.2004,0 -5.1816,2.0828 -1.9812,2.032 -1.9812,5.4356 v 16.1544 z"
         style="-inkscape-font-specification:MiSans"
         id="path368" /></g><g
       aria-label="安同OS 龙架构版"
       id="text3392"
       style="font-size:21.1667px;font-family:MiSans;-inkscape-font-specification:MiSans;text-align:center;text-anchor:middle;fill:#272e31;stroke-width:13.2292;stroke-opacity:0.133333"><path
         d="m 302.03164,106.9629 v 2.26483 h -1.86267 v -4.0005 h 7.83168 q -0.508,-1.18534 -1.03717,-2.24367 l 1.98967,-0.381 q 0.35983,0.71966 1.2065,2.62467 h 6.64635 v 4.0005 h -1.84151 v -2.26483 z m 12.02268,5.73617 q -0.635,1.62984 -1.35466,2.83634 -0.71967,1.2065 -1.69334,2.159 2.77284,1.18534 6.05368,2.64584 l -0.82551,1.86267 q -3.09033,-1.524 -6.83684,-3.21734 -1.56634,1.03717 -3.89467,1.82034 -2.30717,0.78317 -5.73618,1.48167 l -0.508,-1.86267 q 2.83634,-0.46567 4.80484,-1.016 1.98967,-0.55034 3.36551,-1.29117 -3.34434,-1.4605 -5.60918,-2.28601 0.80434,-1.16416 1.92617,-3.13267 h -4.65667 v -1.7145 h 5.56684 q 0.91017,-1.778 1.5875,-3.45017 l 1.82034,0.635 q -0.5715,1.35467 -1.29117,2.81517 h 10.98552 v 1.7145 z m -9.54618,2.32834 q 1.86267,0.6985 4.72018,1.905 0.93133,-0.80433 1.5875,-1.82033 0.65617,-1.03717 1.16417,-2.41301 h -6.09601 q -0.762,1.43934 -1.37584,2.32834 z"
         style="stroke-opacity:1"
         id="path319" /><path
         d="m 337.7822,119.21842 q 0,1.03717 -0.27517,1.5875 -0.254,0.55033 -0.86784,0.762 -0.59266,0.23283 -1.67217,0.23283 h -2.43417 l -0.33866,-1.67217 h 2.18017 q 0.65616,0 0.97366,-0.10583 0.31751,-0.10583 0.44451,-0.381 0.127,-0.29633 0.127,-0.889 v -13.18686 h -12.82702 v 16.4042 H 321.251 v -18.09753 h 16.5312 z M 324.32017,107.8519 h 10.41402 v 1.60867 h -10.41402 z m 1.14301,3.72534 h 8.08568 v 6.77334 h -8.08568 z m 1.67216,1.56633 v 3.66184 h 4.74135 v -3.66184 z"
         style="stroke-opacity:1"
         id="path321" /><path
         d="m 348.55605,121.08109 q -2.20134,0 -3.83118,-0.97367 -1.62983,-0.99484 -2.51883,-2.83634 -0.86784,-1.86267 -0.86784,-4.40267 0,-2.54001 0.86784,-4.38151 0.889,-1.86267 2.51883,-2.83634 1.62984,-0.97367 3.83118,-0.97367 2.20133,0 3.83117,0.97367 1.62983,0.97367 2.49767,2.83634 0.889,1.8415 0.889,4.38151 0,2.54 -0.889,4.40267 -0.86784,1.8415 -2.49767,2.83634 -1.62984,0.97367 -3.83117,0.97367 z m 0,-2.01084 q 1.524,0 2.667,-0.71967 1.143,-0.74083 1.75684,-2.13783 0.635,-1.39701 0.635,-3.34434 0,-1.92617 -0.635,-3.32318 -0.61384,-1.397 -1.75684,-2.13783 -1.143,-0.74084 -2.667,-0.74084 -2.32834,0 -3.68301,1.65101 -1.35467,1.62983 -1.35467,4.55084 0,2.921 1.35467,4.572 1.35467,1.62984 3.68301,1.62984 z"
         style="stroke-opacity:1"
         id="path323" /><path
         d="m 363.43623,120.97525 q -1.92617,0 -3.47134,-0.8255 -1.54517,-0.8255 -2.39183,-2.30717 l 1.7145,-1.18533 q 0.67733,1.18533 1.73567,1.778 1.05833,0.59267 2.43417,0.59267 1.50283,0 2.4765,-0.67734 0.99484,-0.6985 0.99484,-1.778 0,-0.74084 -0.40217,-1.24884 -0.381,-0.508 -1.22767,-0.889 -0.8255,-0.381 -2.26484,-0.78317 -1.60866,-0.4445 -2.64583,-0.889 -1.016,-0.46566 -1.73567,-1.35467 -0.71967,-0.91016 -0.71967,-2.3495 0,-1.27 0.6985,-2.286 0.71967,-1.03717 1.98967,-1.60867 1.27,-0.5715 2.89984,-0.5715 1.86267,0 3.21734,0.78316 1.37583,0.76201 2.20133,2.11667 l -1.651,1.12184 q -0.67733,-0.97367 -1.67217,-1.524 -0.99483,-0.55034 -2.13783,-0.55034 -0.93134,0 -1.71451,0.3175 -0.78317,0.3175 -1.22767,0.86784 -0.4445,0.55033 -0.4445,1.2065 0,0.86784 0.48684,1.41817 0.508,0.52917 1.29117,0.84667 0.78316,0.3175 2.11667,0.65616 1.54517,0.42334 2.6035,0.93134 1.0795,0.48683 1.778,1.397 0.6985,0.889 0.6985,2.30717 0,1.35467 -0.6985,2.37067 -0.6985,1.016 -1.9685,1.56634 -1.27,0.55033 -2.96334,0.55033 z"
         style="stroke-opacity:1"
         id="path325" /><path
         d="m 395.94827,108.38107 h -7.32368 v 6.37117 q 2.81517,-2.39183 4.65668,-5.14351 l 1.37583,1.27001 q -2.37067,3.429 -6.03251,6.22301 v 1.16417 q 0,0.9525 0.29634,1.29116 0.3175,0.3175 1.22767,0.3175 h 2.13783 q 0.71967,0 1.05834,-0.10583 0.33866,-0.127 0.46566,-0.4445 0.14817,-0.3175 0.19051,-0.99483 0.0423,-0.69851 0.0635,-1.58751 0.0423,-0.91017 0.0423,-1.4605 l 1.7145,0.42333 -0.127,3.38668 q -0.0423,1.016 -0.33867,1.56633 -0.27516,0.52917 -0.91016,0.74084 -0.63501,0.23283 -1.77801,0.23283 h -3.2385 q -1.016,0 -1.56634,-0.254 -0.55033,-0.23283 -0.80433,-0.8255 -0.254,-0.61384 -0.254,-1.7145 v -0.46567 q -1.60867,1.0795 -3.66184,2.11667 l -0.91017,-1.60867 q 2.4765,-1.24884 4.57201,-2.7305 v -7.76818 h -1.86267 q -0.35984,3.00567 -1.0795,5.2705 -0.71967,2.26484 -2.01084,4.29684 -1.27,2.03201 -3.36551,4.23334 l -1.22766,-1.651 q 1.905,-1.94733 3.048,-3.72534 1.16417,-1.79917 1.79917,-3.78884 0.635,-1.98967 0.93133,-4.6355 h -5.1435 v -1.75684 h 5.31284 q 0.127,-1.5875 0.21167,-3.83117 l 1.94733,0.0212 q -0.16933,2.92101 -0.254,3.81001 h 6.37118 q -1.18534,-1.2065 -2.89984,-2.75167 l 1.22767,-1.16417 q 1.54517,1.3335 2.921,2.75167 l -1.2065,1.16417 h 4.42384 z"
         style="fill:#ca463a;stroke-opacity:1"
         id="path327" /><path
         d="m 398.59411,111.7254 q 1.48167,-1.29116 2.0955,-2.37067 0.61384,-1.10066 0.76201,-2.83633 h -2.60351 v -1.62984 h 2.68817 l 0.0212,-0.97367 0.0423,-1.16417 h 1.65101 l -0.0423,1.22767 -0.0212,0.91017 h 4.3815 l -0.1905,4.84717 q -0.0635,1.27001 -0.61383,1.75684 -0.52917,0.48684 -1.79917,0.48684 h -1.98967 l -0.33867,-1.65101 h 1.7145 q 0.78317,0 1.10067,-0.23283 0.33867,-0.254 0.35984,-0.93134 l 0.10583,-2.64583 h -2.794 q -0.19051,2.11667 -0.95251,3.57717 -0.74083,1.4605 -2.3495,2.8575 z m 10.58335,-7.47184 h 6.87918 v 7.21784 h -6.87918 z m 1.62984,5.56684 h 3.6195 v -3.91584 h -3.6195 z m 5.67267,11.76869 q -2.56117,-0.99484 -4.36034,-2.13784 -1.79917,-1.143 -3.38667,-2.68817 v 5.48217 h -1.7145 v -5.461 q -1.41817,1.43933 -3.32317,2.6035 -1.90501,1.143 -4.52968,2.18017 l -0.71967,-1.82034 q 2.62468,-0.889 4.42384,-1.86267 1.79917,-0.99483 3.09034,-2.20133 h -7.15434 v -1.56634 h 8.21268 v -1.778 h 1.7145 v 1.778 h 8.23385 v 1.56634 h -7.13318 q 1.43933,1.31233 3.175,2.30717 1.75684,0.99483 4.29684,1.82033 z"
         style="fill:#ca463a;stroke-opacity:1"
         id="path329" /><path
         d="m 437.71018,105.58706 q -0.0423,0.6985 -0.31751,11.57819 l -0.0423,1.7145 q -0.0423,1.56634 -0.78317,2.20134 -0.74083,0.635 -2.4765,0.635 H 430.958 l -0.35984,-1.86267 h 2.81518 q 0.93133,0 1.37583,-0.127 0.46567,-0.14817 0.635,-0.52917 0.1905,-0.40217 0.23284,-1.2065 l 0.29633,-10.64685 h -6.68868 q -0.97367,1.98967 -1.9685,3.40784 l -1.41817,-0.93134 q 1.0795,-1.54517 1.9685,-3.45017 0.91017,-1.905 1.43934,-3.72534 l 1.651,0.46567 q -0.29633,0.99483 -0.889,2.4765 z m -13.54669,4.97418 q 1.73567,1.397 2.83633,2.43417 l -1.016,1.43933 q -0.99483,-1.03717 -1.82033,-1.778 v 9.56735 h -1.69334 v -9.92718 q -1.03717,2.81517 -2.37067,4.97417 l -0.5715,-2.24367 q 0.80433,-1.31234 1.524,-2.9845 0.71967,-1.69334 1.22767,-3.47134 h -2.26484 v -1.75684 h 2.45534 v -4.06401 h 1.69334 v 4.06401 h 2.286 v 1.75684 h -2.286 z m 9.73668,7.53534 -0.46567,-1.143 -6.37117,0.55033 -0.52917,-1.56633 q 0.97367,-1.54517 1.8415,-3.53484 0.86784,-1.98967 1.37584,-3.64067 l 1.60867,0.52916 q -0.46567,1.37584 -1.31234,3.30201 -0.8255,1.92617 -1.43934,3.1115 l 4.12751,-0.35983 q -0.9525,-2.18017 -1.524,-3.3655 l 1.37583,-0.67734 q 0.65617,1.3335 1.48167,3.19617 0.84667,1.84151 1.27,2.89984 z"
         style="fill:#ca463a;stroke-opacity:1"
         id="path331" /><path
         d="m 456.01937,117.44041 q 1.33351,1.71451 3.51368,3.11151 l -0.95251,1.56633 q -2.20133,-1.62983 -3.57717,-3.3655 -1.48167,1.75684 -4.12751,3.59834 l -1.05833,-1.43934 q 2.62467,-1.73567 4.16984,-3.59834 -1.69334,-2.70933 -2.45534,-6.79451 h -0.3175 q 0,2.62467 -0.23283,4.46618 -0.23284,1.82033 -0.78317,3.38667 -0.52917,1.56633 -1.54517,3.34434 l -1.31233,-1.0795 v 1.29116 h -1.65101 v -7.26017 h -1.8415 q -0.0847,2.56117 -0.40217,4.318 -0.3175,1.75684 -0.99483,3.36551 l -1.56634,-0.99484 q 0.5715,-1.22767 0.84667,-2.45533 0.29633,-1.24884 0.40217,-2.89984 0.10583,-1.67217 0.10583,-4.42384 v -8.27618 h 1.651 v 5.60917 h 1.69334 v -5.96901 h 1.62984 v 5.96901 h 1.3335 v 1.56634 h -4.65668 v 1.69334 0.80433 h 3.45018 v 7.55651 q 1.31233,-2.24367 1.778,-4.445 0.48683,-2.22251 0.48683,-5.71501 v -5.71501 q 2.11667,-0.127 4.55084,-0.48684 2.43417,-0.35983 4.69901,-0.84667 l 0.33867,1.79917 q -3.59834,0.80434 -7.97985,1.24884 v 2.43417 h 7.51418 v 1.75684 q -0.46567,2.18017 -1.12183,3.85234 -0.63501,1.651 -1.58751,3.02683 z m -2.96334,-6.92151 q 0.76201,3.32317 1.94734,5.41868 1.3335,-2.13784 2.01084,-5.41868 z"
         style="fill:#ca463a;stroke-opacity:1"
         id="path333" /></g><g
       aria-label="AOSC OS"
       id="text3416"
       style="font-size:25.4px;font-family:'Source Sans 3';-inkscape-font-specification:'Source Sans 3, ';letter-spacing:-1.32292px;fill:#272e31;stroke-width:13.2292;stroke-opacity:0.133333"><path
         d="m 205.92555,66.413244 h -2.6924 l -2.2606,-6.223 h -6.8326 l -2.2606,6.223 h -2.7178 l 7.0612,-18.9738 h 2.6416 z m -8.4582,-15.367 -2.4638,6.7564 h 5.08 l -2.4638,-6.7564 z"
         style="-inkscape-font-specification:MiSans"
         id="path294" /><path
         d="m 214.07683,66.768844 q -2.6416,0 -4.5974,-1.1684 -1.9558,-1.1938 -3.0226,-3.4036 -1.0414,-2.2352 -1.0414,-5.2832 0,-3.048 1.0414,-5.2578 1.0668,-2.2352 3.0226,-3.4036 1.9558,-1.1684 4.5974,-1.1684 2.6416,0 4.5974,1.1684 1.9558,1.1684 2.9972,3.4036 1.0668,2.2098 1.0668,5.2578 0,3.048 -1.0668,5.2832 -1.0414,2.2098 -2.9972,3.4036 -1.9558,1.1684 -4.5974,1.1684 z m 0,-2.413 q 1.8288,0 3.2004,-0.8636 1.3716,-0.889 2.1082,-2.5654 0.762,-1.6764 0.762,-4.0132 0,-2.3114 -0.762,-3.9878 -0.7366,-1.6764 -2.1082,-2.5654 -1.3716,-0.889 -3.2004,-0.889 -2.794,0 -4.4196,1.9812 -1.6256,1.9558 -1.6256,5.461 0,3.5052 1.6256,5.4864 1.6256,1.9558 4.4196,1.9558 z"
         style="-inkscape-font-specification:MiSans"
         id="path296" /><path
         d="m 230.61011,66.641844 q -2.3114,0 -4.1656,-0.9906 -1.8542,-0.9906 -2.8702,-2.7686 l 2.0574,-1.4224 q 0.8128,1.4224 2.0828,2.1336 1.27,0.7112 2.921,0.7112 1.8034,0 2.9718,-0.8128 1.1938,-0.8382 1.1938,-2.1336 0,-0.889 -0.4826,-1.4986 -0.4572,-0.6096 -1.4732,-1.0668 -0.9906,-0.4572 -2.7178,-0.9398 -1.9304,-0.5334 -3.175,-1.0668 -1.2192,-0.5588 -2.0828,-1.6256 -0.8636,-1.0922 -0.8636,-2.8194 0,-1.524 0.8382,-2.7432 0.8636,-1.2446 2.3876,-1.9304 1.524,-0.6858 3.4798,-0.6858 2.2352,0 3.8608,0.9398 1.651,0.9144 2.6416,2.54 l -1.9812,1.3462 q -0.8128,-1.1684 -2.0066,-1.8288 -1.1938,-0.6604 -2.5654,-0.6604 -1.1176,0 -2.0574,0.381 -0.9398,0.381 -1.4732,1.0414 -0.5334,0.6604 -0.5334,1.4478 0,1.0414 0.5842,1.7018 0.6096,0.635 1.5494,1.016 0.9398,0.381 2.54,0.7874 1.8542,0.508 3.1242,1.1176 1.2954,0.5842 2.1336,1.6764 0.8382,1.0668 0.8382,2.7686 0,1.6256 -0.8382,2.8448 -0.8382,1.2192 -2.3622,1.8796 -1.524,0.6604 -3.556,0.6604 z"
         style="-inkscape-font-specification:MiSans"
         id="path298" /><path
         d="m 254.07757,63.212844 q -1.0414,1.651 -2.794,2.6162 -1.7272,0.9398 -3.8862,0.9398 -2.6416,0 -4.6482,-1.2192 -2.0066,-1.2192 -3.1242,-3.4544 -1.0922,-2.2606 -1.0922,-5.2832 0,-2.9464 1.0922,-5.1308 1.0922,-2.2098 3.0988,-3.4036 2.0066,-1.1938 4.6736,-1.1938 2.159,0 3.9116,0.9652 1.778,0.9398 2.7686,2.5654 l -2.032,1.397 q -0.762,-1.1684 -2.0574,-1.8542 -1.2954,-0.6858 -2.6162,-0.6858 -1.8796,0 -3.2766,0.889 -1.397,0.889 -2.159,2.5654 -0.762,1.651 -0.762,3.8862 0,2.286 0.762,3.9878 0.762,1.7018 2.159,2.6416 1.4224,0.9144 3.2766,0.9144 1.3462,0 2.5908,-0.6858 1.2446,-0.6858 2.0828,-1.8796 z"
         style="-inkscape-font-specification:MiSans"
         id="path300" /><path
         d="m 270.02453,66.768844 q -2.6416,0 -4.5974,-1.1684 -1.9558,-1.1938 -3.0226,-3.4036 -1.0414,-2.2352 -1.0414,-5.2832 0,-3.048 1.0414,-5.2578 1.0668,-2.2352 3.0226,-3.4036 1.9558,-1.1684 4.5974,-1.1684 2.6416,0 4.5974,1.1684 1.9558,1.1684 2.9972,3.4036 1.0668,2.2098 1.0668,5.2578 0,3.048 -1.0668,5.2832 -1.0414,2.2098 -2.9972,3.4036 -1.9558,1.1684 -4.5974,1.1684 z m 0,-2.413 q 1.8288,0 3.2004,-0.8636 1.3716,-0.889 2.1082,-2.5654 0.762,-1.6764 0.762,-4.0132 0,-2.3114 -0.762,-3.9878 -0.7366,-1.6764 -2.1082,-2.5654 -1.3716,-0.889 -3.2004,-0.889 -2.794,0 -4.4196,1.9812 -1.6256,1.9558 -1.6256,5.461 0,3.5052 1.6256,5.4864 1.6256,1.9558 4.4196,1.9558 z"
         style="-inkscape-font-specification:MiSans"
         id="path302" /><path
         d="m 286.55781,66.641844 q -2.3114,0 -4.1656,-0.9906 -1.8542,-0.9906 -2.8702,-2.7686 l 2.0574,-1.4224 q 0.8128,1.4224 2.0828,2.1336 1.27,0.7112 2.921,0.7112 1.8034,0 2.9718,-0.8128 1.1938,-0.8382 1.1938,-2.1336 0,-0.889 -0.4826,-1.4986 -0.4572,-0.6096 -1.4732,-1.0668 -0.9906,-0.4572 -2.7178,-0.9398 -1.9304,-0.5334 -3.175,-1.0668 -1.2192,-0.5588 -2.0828,-1.6256 -0.8636,-1.0922 -0.8636,-2.8194 0,-1.524 0.8382,-2.7432 0.8636,-1.2446 2.3876,-1.9304 1.524,-0.6858 3.4798,-0.6858 2.2352,0 3.8608,0.9398 1.651,0.9144 2.6416,2.54 l -1.9812,1.3462 q -0.8128,-1.1684 -2.0066,-1.8288 -1.1938,-0.6604 -2.5654,-0.6604 -1.1176,0 -2.0574,0.381 -0.9398,0.381 -1.4732,1.0414 -0.5334,0.6604 -0.5334,1.4478 0,1.0414 0.5842,1.7018 0.6096,0.635 1.5494,1.016 0.9398,0.381 2.54,0.7874 1.8542,0.508 3.1242,1.1176 1.2954,0.5842 2.1336,1.6764 0.8382,1.0668 0.8382,2.7686 0,1.6256 -0.8382,2.8448 -0.8382,1.2192 -2.3622,1.8796 -1.524,0.6604 -3.556,0.6604 z"
         style="-inkscape-font-specification:MiSans"
         id="path304" /></g><rect
       style="fill:#ca463a;fill-opacity:0.133333;stroke:none;stroke-width:13.2292;stroke-opacity:1"
       id="rect5261-9"
       width="34.406612"
       height="68.813225"
       x="-64.653923"
       y="134.92769"
       transform="rotate(-60)" /><rect
       style="fill:#ca463a;fill-opacity:0.133333;stroke:none;stroke-width:13.2292;stroke-opacity:1"
       id="rect5261-2"
       width="34.406612"
       height="68.813225"
       x="225.07794"
       y="-106.394"
       transform="rotate(60)" /><rect
       style="fill:#ca463a;fill-opacity:0.133333;stroke:none;stroke-width:13.2292;stroke-opacity:1"
       id="rect5261-7"
       width="34.406612"
       height="68.813225"
       x="-16.281303"
       y="29.618641"
       transform="rotate(-15)" /><rect
       style="fill:#ca463a;fill-opacity:0.133333;stroke:none;stroke-width:13.2292;stroke-opacity:1"
       id="rect5261-0"
       width="34.406612"
       height="68.813225"
       x="-175.10863"
       y="142.12573"
       transform="rotate(-105)" /><rect
       style="fill:#ca463a;fill-opacity:0.133333;stroke:none;stroke-width:13.2292;stroke-opacity:1"
       id="rect5261-23"
       width="34.406612"
       height="68.813225"
       x="296.80008"
       y="-162.15741"
       transform="rotate(45)" /><rect
       style="fill:#ca463a;fill-opacity:0.133333;stroke:none;stroke-width:13.2292;stroke-opacity:1"
       id="rect5261-75"
       width="34.406612"
       height="68.813225"
       x="156.35187"
       y="389.18774"
       transform="rotate(-45)" /><rect
       style="fill:#ca463a;fill-opacity:0.133333;stroke:none;stroke-width:7.19347;stroke-opacity:1"
       id="rect5261-92"
       width="13.229167"
       height="52.916668"
       x="137.67976"
       y="-7.3233018"
       transform="rotate(15)" /><rect
       style="fill:#ca463a;fill-opacity:0.133333;stroke:none;stroke-width:7.19347;stroke-opacity:1"
       id="rect5261-92-6"
       width="13.229167"
       height="52.916668"
       x="15.893337"
       y="41.891106"
       transform="rotate(-45)" /><rect
       style="fill:#ca463a;fill-opacity:0.133333;stroke:none;stroke-width:7.19347;stroke-opacity:1"
       id="rect5261-92-3"
       width="13.229167"
       height="52.916668"
       x="101.06784"
       y="83.650528"
       transform="rotate(15)" /><rect
       style="fill:#ca463a;fill-opacity:0.133333;stroke:none;stroke-width:7.19347;stroke-opacity:1"
       id="rect5261-92-9"
       width="13.229167"
       height="52.916668"
       x="-255.00183"
       y="390.89917"
       transform="rotate(-105)" /><rect
       style="fill:#ca463a;fill-opacity:0.133333;stroke:none;stroke-width:7.19347;stroke-opacity:1"
       id="rect5261-92-31"
       width="13.229167"
       height="52.916668"
       x="-10.300478"
       y="262.24899"
       transform="rotate(-60)" /><rect
       style="fill:#ca463a;fill-opacity:0.133333;stroke:none;stroke-width:7.19347;stroke-opacity:1"
       id="rect5261-92-31-1"
       width="13.229167"
       height="52.916668"
       x="217.78407"
       y="296.25375"
       transform="rotate(-30)" /><circle
       style="fill:#ca463a;fill-opacity:0.133333;stroke:none;stroke-width:13.2292;stroke-opacity:1"
       id="path6250"
       cx="30.472294"
       cy="-0.55681187"
       r="9.260417" /><circle
       style="fill:#ca463a;fill-opacity:0.133333;stroke:none;stroke-width:13.2292;stroke-opacity:1"
       id="path6250-8"
       cx="70.31163"
       cy="94.534134"
       r="9.260417" /><circle
       style="fill:#ca463a;fill-opacity:0.133333;stroke:none;stroke-width:13.2292;stroke-opacity:1"
       id="path6250-4"
       cx="372.20819"
       cy="135.41675"
       r="9.260417" /><circle
       style="fill:#ca463a;fill-opacity:0.133333;stroke:none;stroke-width:13.2292;stroke-opacity:1"
       id="path6250-5"
       cx="482.96045"
       cy="153.67749"
       r="9.260417" /></g></svg>
