<?xml version="1.0" encoding="UTF-8" standalone="no"?>
<!-- Created with Inkscape (http://www.inkscape.org/) -->

<svg
   width="2100"
   height="900"
   viewBox="0 0 555.62498 238.125"
   version="1.1"
   id="svg1"
   xml:space="preserve"
   inkscape:version="1.3.2 (091e20ef0f, 2023-11-25)"
   sodipodi:docname="oma-slim.svg"
   inkscape:export-filename="oma-slim.png"
   inkscape:export-xdpi="96"
   inkscape:export-ydpi="96"
   xmlns:inkscape="http://www.inkscape.org/namespaces/inkscape"
   xmlns:sodipodi="http://sodipodi.sourceforge.net/DTD/sodipodi-0.dtd"
   xmlns:xlink="http://www.w3.org/1999/xlink"
   xmlns="http://www.w3.org/2000/svg"
   xmlns:svg="http://www.w3.org/2000/svg"><sodipodi:namedview
     id="namedview1"
     pagecolor="#dacebb"
     bordercolor="#000000"
     borderopacity="0.25"
     inkscape:showpageshadow="2"
     inkscape:pageopacity="0.0"
     inkscape:pagecheckerboard="0"
     inkscape:deskcolor="#d1d1d1"
     inkscape:document-units="mm"
     inkscape:zoom="0.25921545"
     inkscape:cx="515.0156"
     inkscape:cy="-48.222435"
     inkscape:window-width="1920"
     inkscape:window-height="1021"
     inkscape:window-x="0"
     inkscape:window-y="0"
     inkscape:window-maximized="1"
     inkscape:current-layer="layer1"
     inkscape:export-bgcolor="#dacebbff" /><defs
     id="defs1"><pattern
       inkscape:collect="always"
       xlink:href="#pattern3"
       preserveAspectRatio="xMidYMid"
       id="pattern4"
       patternTransform="matrix(0.2,-0.34641016,0.34641016,0.2,275.82728,1350.0831)"
       x="0"
       y="0"
       width="179.20002136"
       height="189.88326721" /><pattern
       patternUnits="userSpaceOnUse"
       width="128.00002"
       height="135.63091"
       patternTransform="translate(133.94884,1111.7477)"
       preserveAspectRatio="xMidYMid"
       id="pattern3"
       inkscape:label="pattern3"><path
         style="color:#000000;opacity:0.2;fill:#594f09;fill-opacity:1;stroke-width:5.7346;stroke-linecap:round;stroke-linejoin:round;-inkscape-stroke:none;paint-order:fill markers stroke"
         d="M 47.763256,0.08713934 C 44.904573,-0.18725436 41.897354,0.15290312 38.858991,1.5879897 33.113354,4.3020307 30.246317,9.366522 28.453839,14.098793 26.66136,18.831064 25.816295,23.781489 25.317738,28.435259 24.614632,34.99822 24.914122,37.872437 25.015376,40.89005 22.558191,42.244481 20.56691,43.119177 15.987861,46.523813 9.163508,51.597942 0.50302299,57.957451 0.01614425,69.462182 -0.22914709,75.255555 2.3578639,79.9941 5.246708,83.619423 c 2.8889197,3.62536 6.332447,6.480075 9.654728,8.870702 4.418041,3.179074 6.326891,3.913625 8.758677,5.152139 0.07635,2.949696 -0.04044,5.849916 1.086463,12.253226 0.793587,4.50966 1.950198,9.28781 4.121726,13.78764 2.171527,4.4998 5.695181,9.33324 11.816352,11.20037 6.310602,1.92484 11.851541,-0.19276 16.419742,-2.67689 4.56824,-2.48421 8.63384,-5.80494 12.264416,-9.12831 5.240655,-4.79725 7.21595,-7.42217 9.21789,-9.81151 3.112478,0.76589 6.479395,1.80216 13.955641,2.52008 5.130293,0.49266 10.666247,0.6627 16.106157,-0.23509 5.43987,-0.8979 11.35812,-2.89202 15.35565,-8.27709 4.18662,-5.63973 4.41789,-12.238977 3.65133,-18.099777 -0.76653,-5.8608 -2.67409,-11.533833 -4.79377,-16.69973 -3.29643,-8.033915 -5.85392,-11.942929 -7.45942,-14.616491 1.25196,-2.421543 2.58523,-4.590425 4.49132,-10.19229 1.35859,-3.992693 2.54559,-8.391382 2.81133,-13.070853 0.2657,-4.679433 -0.36019,-10.215232 -4.34578,-14.739666 -4.20204,-4.770444 -9.91457,-5.820775 -14.78445,-5.947427 -4.869885,-0.126614 -9.620903,0.709909 -14.000468,1.758463 -5.897575,1.412031 -8.081877,2.471849 -10.92034,3.572938 C 76.387924,16.933439 74.351968,14.587561 68.831174,10.31318 64.918154,7.2835866 60.562853,4.3175267 55.737946,2.2712905 53.325511,1.2482102 50.621977,0.36157084 47.763294,0.08725273 Z M 45.982418,16.674881 c -0.486425,0.229795 0.598073,-0.155716 3.236901,0.963213 2.638791,1.11908 6.14245,3.357808 9.38589,5.869001 6.486879,5.02235 11.91719,10.830766 11.91719,10.830766 a 8.3458605,8.3458605 0 0 0 9.38589,1.993663 c 0,0 6.476561,-2.729991 13.552441,-4.424164 3.53794,-0.847106 7.18794,-1.375143 9.67714,-1.310438 2.48916,0.06463 3.10103,0.760063 2.68808,0.291024 -0.19616,-0.222615 0.34167,0.486122 0.21278,2.755313 -0.12888,2.269153 -0.88679,5.525367 -1.94887,8.64669 -2.12413,6.242645 -5.174554,11.771565 -5.174554,11.771565 a 8.3458605,8.3458605 0 0 0 0.224126,8.51229 c 0,0 4.704758,7.534299 8.277048,16.240516 1.78617,4.353109 3.22999,8.957972 3.69616,12.522029 0.46612,3.564019 -0.17726,5.537045 -0.51523,5.992176 -0.14891,0.200315 -1.51608,1.237795 -4.67055,1.758463 -3.15447,0.52063 -7.527043,0.498293 -11.782791,0.08957 C 85.63261,98.35924 77.825165,96.230875 77.825165,96.230875 a 8.3458605,8.3458605 0 0 0 -8.74749,2.856113 c 0,0 -4.908132,6.127182 -10.976353,11.681952 -3.034129,2.77739 -6.353008,5.3523 -8.971464,6.77624 -2.618533,1.42394 -4.059515,1.23262 -3.584164,1.37764 0.28611,0.0873 -0.558652,-0.24378 -1.646438,-2.4977 -1.087786,-2.25408 -2.087168,-5.81394 -2.721713,-9.41953 C 39.908528,99.79444 39.91193,92.691536 39.91193,92.691536 a 8.3458605,8.3458605 0 0 0 -4.849776,-7.605052 c 0,0 -5.330268,-2.489234 -10.41634,-6.148989 -2.54298,-1.829858 -4.935119,-3.947112 -6.350589,-5.723376 -1.415471,-1.776302 -1.608832,-2.876523 -1.601651,-3.046488 0.0189,-0.421985 3.788523,-6.178129 9.262715,-10.24834 5.474154,-4.070211 11.02114,-6.91064 11.02114,-6.91064 a 8.3458605,8.3458605 0 0 0 4.558564,-7.974652 c 0,0 -0.432302,-7.228384 0.380787,-14.818091 0.406564,-3.794835 1.167761,-7.609058 2.150476,-10.203515 0.982753,-2.594419 2.070576,-3.411062 1.915276,-3.337701 z"
         id="path74-7" /></pattern></defs><g
     inkscape:label="图层 1"
     inkscape:groupmode="layer"
     id="layer1"><rect
       style="opacity:0.35;fill:url(#pattern4);fill-opacity:1;stroke-width:0.723;stroke-linecap:round;stroke-linejoin:round;-inkscape-stroke:none;paint-order:stroke fill markers"
       id="rect4"
       width="555.625"
       height="238.125"
       x="1.0172526e-05"
       y="-2.6645353e-14"
       rx="1.058" /><g
       id="g4"
       transform="translate(-0.11117815)"><g
         id="g3"
         transform="matrix(0.66406249,0,0,0.66406249,65.153641,-14.858005)"><path
           id="rect50-1-9"
           style="fill:#e7534c;fill-opacity:1;stroke-width:6.15804;stroke-linecap:round;stroke-linejoin:round;paint-order:fill markers stroke"
           d="m 495.30078,350.53384 21.23957,-2.88904 33.79346,-2.41599 22.07927,4.08048 -5.10927,33.06474 -69.73438,-0.0952 z"
           sodipodi:nodetypes="ccccccc" /><path
           id="rect50-1-9-4"
           style="fill:#ffffff;fill-opacity:1;stroke-width:6.15804;stroke-linecap:round;stroke-linejoin:round;paint-order:fill markers stroke"
           d="m 524.21329,362.33686 19.41616,0.0328 21.54261,21.33589 -58.09675,-0.23268 z"
           sodipodi:nodetypes="ccccc" /><path
           id="rect68-5"
           style="fill:#ffe8e0;fill-opacity:1;stroke-width:6.15804;stroke-linecap:round;stroke-linejoin:round;paint-order:fill markers stroke"
           d="m 580.01411,337.98843 8.6963,-4.07732 13.4525,22.19869 20.70392,-4.46188 c 6.47282,0.29315 6.77153,18.59418 8.74332,32.01535 l -50.38795,1.05708 z"
           sodipodi:nodetypes="ccccccc" /><path
           id="rect68-8"
           style="fill:#e1b8ab;fill-opacity:1;stroke-width:6.15804;stroke-linecap:round;stroke-linejoin:round;paint-order:fill markers stroke"
           d="m 580.33951,356.22717 11.67572,13.86729 -8.87591,7.81079 -3.10797,-10.34961 z"
           sodipodi:nodetypes="ccccc" /><path
           id="rect68-7"
           style="fill:#ffffff;fill-opacity:1;stroke-width:6.15804;stroke-linecap:round;stroke-linejoin:round;paint-order:fill markers stroke"
           d="m 581.55888,378.48754 28.19768,-25.42345 c 12.35948,-2.90681 16.68588,-0.726 18.10427,3.29655 l 1.92467,27.78303 h -48.09043 z"
           sodipodi:nodetypes="cccccc" /><path
           id="rect50-79"
           style="fill:#1d2437;fill-opacity:0.402685;stroke-width:6.15804;stroke-linecap:round;stroke-linejoin:round;paint-order:fill markers stroke"
           d="m 581.4706,382.80416 c 0,0 6.22035,-5.32853 10.76803,-5.90267 3.14095,-0.39653 6.3941,0.74203 9.4382,0.1041 2.25928,-0.47348 4.24672,-3.71504 7.81503,-4.63273 3.23206,-0.8312 5.79853,1.80963 9.00399,1.469 4.92786,-0.52368 8.56335,-8.75401 8.56335,-8.75401 l 2.78487,17.257 z"
           sodipodi:nodetypes="cssssccc" /><path
           id="rect50-1-9-9"
           style="fill:#604640;fill-opacity:1;stroke-width:6.15804;stroke-linecap:round;stroke-linejoin:round;paint-order:fill markers stroke"
           d="m 509.21109,301.03975 42.72278,-0.52187 21.38571,19.21281 8.05192,42.85829 -12.14387,-1.8636 2.05279,-12.40337 -38.68151,-6.66079 -37.97046,10.19748 -13.92116,-5.57424 -2.62033,-9.72709 c 7.20885,-16.02267 15.16132,-31.06268 31.12413,-35.51762 z"
           sodipodi:nodetypes="ccccccccccc" /><path
           id="rect50"
           style="fill:#ffffff;fill-opacity:1;stroke-width:6.15804;stroke-linecap:round;stroke-linejoin:round;paint-order:fill markers stroke"
           d="m 425.34141,342.89271 17.82355,6.80424 3.033,5.14397 7.46684,27.22075 -6.5017,3.24522 -29.3201,-27.31956 z"
           sodipodi:nodetypes="ccccccc" /><path
           id="rect50-1-0"
           style="fill:#ffdda2;fill-opacity:1;stroke-width:6.15804;stroke-linecap:round;stroke-linejoin:round;paint-order:fill markers stroke"
           d="m 420.26957,355.5911 28.82641,29.48245 -42.10645,-2.22301 z"
           sodipodi:nodetypes="cccc" /><path
           id="rect68-9"
           style="fill:#604640;fill-opacity:1;stroke-width:6.15804;stroke-linecap:round;stroke-linejoin:round;paint-order:fill markers stroke"
           d="m 486.56499,368.23604 5.35349,-1.00207 4.19078,7.51013 -11.9849,2.58039 z"
           sodipodi:nodetypes="ccccc" /><path
           id="rect68-96"
           style="fill:#ccd2d8;fill-opacity:1;stroke-width:6.15804;stroke-linecap:round;stroke-linejoin:round;paint-order:fill markers stroke"
           d="m 521.47845,362.89534 22.07724,-0.22067 20.52126,19.60328 -11.38552,-0.0539 -10.92495,-13.76821 c -7.64928,2.64855 -13.58596,3.47746 -16.53592,1.13296 l -7.06126,12.82326 -9.37873,-0.24442 z"
           sodipodi:nodetypes="ccccccccc" /><path
           id="rect68-2"
           style="fill:#f1b181;fill-opacity:1;stroke-width:6.15804;stroke-linecap:round;stroke-linejoin:round;paint-order:fill markers stroke"
           d="m 417.77516,358.02537 9.12937,6.93138 0.86798,17.07066 -22.35366,-0.21698 c 5.15616,-6.33094 11.77577,-15.16632 12.35631,-23.78506 z"
           sodipodi:nodetypes="ccccc" /><path
           id="rect50-7"
           style="fill:none;fill-opacity:1;stroke:#000000;stroke-width:6.15804;stroke-linecap:round;stroke-linejoin:round;stroke-opacity:1;paint-order:fill markers stroke"
           d="m 511.64627,295.12673 37.48643,0.1752 c 0,0 17.51423,8.57601 25.68916,17.61358 8.17493,9.03755 22.61266,38.18775 22.61266,38.18775 0,0 1.83146,4.19181 5.48121,4.4101 3.52864,0.21095 4.39942,-2.68942 5.79254,-3.31914 1.26023,-0.56966 3.25927,0.54796 5.30065,0.4011 1.4971,-0.1077 3.49593,-0.42097 4.7402,-1.07168 4.27892,-2.23773 13.86865,4.25975 8.37694,15.75199 2.22681,2.86536 3.10453,13.70943 3.09129,16.35236 H 581.2536 l -1.59618,-21.60068 -7.35024,-0.97886 -4.00356,22.57954 h -72.09591 l -2.76719,-17.2111 -7.51117,2.00568 -6.22558,15.20542 h -75.46448 l 11.49559,-17.22697 c 0.62657,-9.91633 9.34577,-12.68193 8.73372,-28.64804 z"
           sodipodi:nodetypes="cczcsssscccccccccccccc" /><path
           id="rect68-75"
           style="fill:#47332e;fill-opacity:1;stroke-width:6.15804;stroke-linecap:round;stroke-linejoin:round;paint-order:fill markers stroke"
           d="m 479.26256,331.22291 9.79446,-9.42327 4.55123,26.78585 -13.08032,-3.28085 z"
           sodipodi:nodetypes="ccccc" /><path
           style="fill:none;fill-opacity:1;stroke:#000000;stroke-width:6.15804;stroke-linecap:round;stroke-linejoin:round;stroke-dasharray:none;stroke-opacity:0.997315;paint-order:fill markers stroke"
           d="m 412.51521,183.88131 c 6.71951,0.28262 12.13475,2.62863 17.31138,5.37249"
           id="path72"
           sodipodi:nodetypes="cc" /><path
           style="color:#000000;fill:#252e33;stroke-width:2.11586;stroke-linecap:round;stroke-linejoin:round;-inkscape-stroke:none;paint-order:fill markers stroke"
           d="m 434.12444,234.40245 c 5.64793,-43.6401 7.51226,-106.49525 5.5463,-144.666042 -2.12559,-41.27021 38.07845,-27.977867 66.04303,21.744732 6.15204,10.93867 9.40813,19.15814 9.59938,36.4203 l 16.81138,-1.19997 c 0.63235,-9.13052 -1.19046,-32.58561 12.04233,-66.295251 21.63994,-55.126328 46.03379,10.957695 60.87095,44.851231 13.33774,30.46827 -1.03696,64.10083 -1.03696,64.10083 l 4.57595,5.52874 c 4.01793,8.64081 6.29937,18.56338 9.72444,27.48144 9.89341,2.43862 8.63782,21.013 -0.14536,24.42429 12.82375,32.89152 13.68215,59.56104 -14.17399,71.29902 2.13351,5.24629 2.79014,22.39018 -7.49966,8.02551 -4.36034,5.68263 -10.66883,10.72518 -17.03951,12.96152 -0.98135,-6.6208 -2.26955,-13.80196 -4.87855,-20.83145 -6.43049,-4.95253 -15.46177,-12.20793 -24.93297,-16.78094 -12.92184,0.47305 -23.9464,3.7376 -40.10376,-1.04707 -7.70785,2.16981 -12.25702,7.65488 -19.1212,11.70897 l -13.17974,24.58373 2.85674,8.96294 c 12.42828,2.9669 17.63487,10.68872 17.05024,17.36718 -3.26948,0.67474 -4.80279,2.77004 -12.47398,-0.15658 2.23458,10.79069 -2.15406,17.11594 -5.49647,24.47464 -23.0394,1.48683 -37.8575,-16.23948 -30.79007,-30.53084 l -5.04673,-7.31236 c -57.58647,-19.70564 -20.95009,-57.7962 -13.41234,-90.20901 -6.03194,-18.16185 1.38834,-21.81424 4.21046,-24.90551 z"
           id="path35"
           sodipodi:nodetypes="cssccsscccccccccccccccccccsc" /><path
           style="fill:none;fill-opacity:1;stroke:#ffffff;stroke-width:2.23928;stroke-linecap:round;stroke-linejoin:round;stroke-dasharray:none;stroke-opacity:0.997315;paint-order:fill markers stroke"
           d="m 490.28197,312.23482 c -1.11325,11.32744 2.34413,27.5056 4.02308,38.02853"
           id="path69"
           sodipodi:nodetypes="cc" /><path
           id="rect1-9"
           style="fill:#ffffff;fill-opacity:1;stroke:none;stroke-width:0.423172;stroke-linecap:square;paint-order:fill markers stroke"
           d="m 451.27006,99.321941 c -11.35563,-65.171781 67.39788,6.488539 64.25935,48.420049 -17.51378,2.37189 -34.5854,14.91336 -51.7544,25.21489 0,0 -1.14932,-8.46316 -12.50495,-73.634939 z"
           sodipodi:nodetypes="zccz" /><path
           id="rect1-9-7"
           style="fill:#151d23;fill-opacity:1;stroke:none;stroke-width:0.423172;stroke-linecap:square;paint-order:fill markers stroke"
           d="m 581.30686,193.37896 13.07877,20.25493 10.11399,-3.59494 4.64952,7.1631 -8.03481,3.33143 6.96204,14.58225 17.63877,-1.0918 -3.42223,12.44787 -12.13189,-1.20882 -3.71667,8.45563 c 8.39974,13.17851 7.3799,19.7652 9.23629,29.26096 2.27302,11.62696 2.00918,13.39474 5.41751,8.98675 l 4.16151,-5.38207 c -2.82939,19.00697 -9.74177,30.96512 -23.62146,26.70831 l 0.62492,-23.8201 c 2.58103,-15.81185 2.64264,-32.28526 4.59856,-48.16657 0,0 -8.08021,-0.57196 -11.07548,0.89644 -1.05285,0.51614 -2.11844,2.50046 -2.34361,3.65121 -0.51098,2.61135 4.24202,4.66105 3.94972,8.01642 -0.25194,2.8921 -2.3916,3.72116 -2.88151,6.81706 -0.38352,2.42365 3.90541,7.31496 3.58056,9.78339 -0.34181,2.59751 -1.00742,4.95559 -1.79024,7.00647 -0.78941,2.06815 2.04904,8.18458 1.82613,10.29758 -0.004,0.0148 -3.46652,2.28219 -3.46652,2.28219 -2.55314,-8.77072 -2.93283,-17.78292 -8.04366,-26.26943 l 4.42703,-10.1236 -4.02686,-9.31483 c 1.98673,-3.79342 3.52491,-9.97898 6.38832,-9.09678 l -12.58874,-21.39836 c -2.60728,-6.82489 -0.62661,-13.64979 0.49004,-20.47469 z"
           sodipodi:nodetypes="ccccccccccssccccsssssscccccccc" /><path
           id="rect1-9-99"
           style="fill:#151d23;fill-opacity:1;stroke:none;stroke-width:0.423172;stroke-linecap:square;paint-order:fill markers stroke"
           d="m 549.92488,300.55281 c 12.68025,-6.77775 29.20355,-16.8176 38.11404,-34.27337 8.45967,8.41983 1.3754,15.44839 4.39318,23.35165 -18.63218,7.52894 -4.13498,24.97131 0.541,21.13145 -1.27241,12.91839 -7.3716,18.8648 -12.15342,26.71409 l -5.44903,-18.48226 c -6.43418,-7.60987 -16.21282,-12.83081 -25.44577,-18.44156 z"
           sodipodi:nodetypes="ccccccc" /><ellipse
           style="fill:#151d23;fill-opacity:1;stroke:none;stroke-width:2.42636;stroke-linecap:round;stroke-linejoin:round;stroke-dasharray:none;stroke-opacity:1;paint-order:fill markers stroke"
           id="path31"
           cx="186.83359"
           cy="496.93787"
           rx="1.6522375"
           ry="6.0582037"
           transform="rotate(-47.098907)" /><path
           id="rect1-9-4"
           style="fill:#151d23;fill-opacity:1;stroke:none;stroke-width:0.423172;stroke-linecap:square;paint-order:fill markers stroke"
           d="m 450.06538,355.48378 17.31546,-5.96748 c 7.95787,4.33004 8.54983,19.70894 7.50198,37.54755 -39.34061,-8.52229 -24.90678,-20.5139 -24.81744,-31.58007 z"
           sodipodi:nodetypes="cccc" /><path
           id="rect1-9-0"
           style="fill:#151d23;fill-opacity:1;stroke:none;stroke-width:0.423172;stroke-linecap:square;paint-order:fill markers stroke"
           d="m 471.75187,222.21116 c 21.23709,-13.20632 14.29337,-7.53666 14.29337,-7.53666 l -7.31693,23.98115 -7.7652,3.71282 -1.72022,22.74846 c -0.73553,9.72672 -3.02244,8.37293 -2.9429,-0.42552 l 0.0823,-9.10412 c 0.0199,-2.19573 -0.48675,-3.49768 -3.38868,0.51488 -3.58214,4.95309 -4.86894,4.89713 -10.66019,8.42312 -5.79125,3.52599 -4.33733,7.32059 -10.34831,28.23847 -9.31378,32.41144 -4.74412,33.27151 20.37428,44.01529 2.74032,-10.35298 4.81534,-20.73459 5.64811,-32.62391 1.16259,-16.59821 4.86262,-11.14875 5.68694,2.79207 0.30976,5.23873 -0.002,20.27707 -4.16932,30.5208 l -24.08812,8.66707 c -25.4558,-0.89355 -31.10362,-13.89199 -33.22604,-29.04483 0.057,-19.63356 11.19779,-39.26711 17.90241,-58.90066 l 0.3141,-12.08481 c 5.35223,4.31514 7.31956,5.08904 13.60028,0.41257 1.96783,-1.46521 5.13536,0.59775 7.06672,-0.70814 2.35615,-1.59311 3.79991,-7.64357 5.95184,-9.09082 2.96588,-1.99462 7.21055,-2.06775 9.65495,-3.74124 3.47146,-2.37663 2.83754,-9.38969 5.05061,-10.76589 z"
           sodipodi:nodetypes="scccsssszscsscccccssssss" /><path
           id="rect1-9-14"
           style="fill:#151d23;fill-opacity:1;stroke:none;stroke-width:0.423172;stroke-linecap:square;paint-order:fill markers stroke"
           d="m 440.24065,95.024268 c 11.26393,52.360152 8.18983,90.000342 7.48385,129.561512 l -14.27771,10.63386 c 7.27,-41.17026 6.26077,-91.53966 6.79386,-140.195372 z"
           sodipodi:nodetypes="cccc" /><path
           id="rect1-9-76"
           style="fill:#151d23;fill-opacity:1;stroke:none;stroke-width:0.423172;stroke-linecap:square;paint-order:fill markers stroke"
           d="m 489.80592,290.1968 19.32242,11.09741 -18.55057,11.32259 z"
           sodipodi:nodetypes="cccc" /><path
           id="rect34-0"
           style="fill:#ffffff;fill-opacity:1;stroke-width:3.35892;stroke-linecap:round;stroke-linejoin:round;paint-order:fill markers stroke"
           d="m 557.67316,90.804163 c -9.58942,-61.83789 62.15615,-6.330226 47.46509,97.299257 -13.04289,-11.97578 -24.85035,-24.99695 -42.37964,-33.17655 0,0 4.50397,-2.28482 -5.08545,-64.122707 z"
           sodipodi:nodetypes="zccz" /><path
           id="rect1-9-1"
           style="fill:#151d23;fill-opacity:1;stroke:none;stroke-width:0.423172;stroke-linecap:square;paint-order:fill markers stroke"
           d="m 464.48058,175.10844 c 14.6415,-11.75492 31.99292,-19.95844 47.69809,-26.39507 -24.94605,16.68183 -37.41445,31.39881 -45.69847,49.14678 z"
           sodipodi:nodetypes="cccc" /><path
           id="rect34"
           style="fill:#151d23;fill-opacity:1;stroke-width:3.35892;stroke-linecap:round;stroke-linejoin:round;paint-order:fill markers stroke"
           d="m 551.45539,71.635404 c -1.82884,25.649127 -5.02766,59.540466 -3.8439,78.561916 l -16.27235,-4.39271 c 4.4258,-32.35275 13.38936,-55.047706 20.11625,-74.169206 z"
           sodipodi:nodetypes="cccc" /><path
           id="rect49"
           style="fill:#e7534c;fill-opacity:1;stroke-width:6.15804;stroke-linecap:round;stroke-linejoin:round;paint-order:fill markers stroke"
           d="m 446.68521,355.42809 32.83813,-10.69149 -2.63045,-7.0428 c -11.85139,0.20968 -22.37084,3.27331 -31.05621,10.26722 z"
           sodipodi:nodetypes="ccccc" /><path
           id="rect49-6"
           style="fill:#3479d7;fill-opacity:1;stroke-width:6.15804;stroke-linecap:round;stroke-linejoin:round;paint-order:fill markers stroke"
           d="m 454.87646,352.76116 24.64688,-8.02456 -2.63045,-7.0428 c -4.45475,0.0789 -8.72131,0.56087 -12.77301,1.50329 z"
           sodipodi:nodetypes="ccccc" /><path
           id="rect68-90"
           style="fill:#c6cdd4;fill-opacity:1;stroke-width:6.15804;stroke-linecap:round;stroke-linejoin:round;paint-order:fill markers stroke"
           d="m 425.86872,344.63034 7.58198,2.07909 c 0,0 -1.11884,2.58811 0.94442,6.77269 0.66813,1.35506 2.9115,2.85975 4.82353,4.95322 1.90675,2.0877 0.39885,3.1338 1.73051,4.99061 2.18127,3.04151 5.53726,2.72028 5.53726,2.72028 l -2.60397,13.34852 -21.91967,-20.6147 z"
           sodipodi:nodetypes="ccssscccc" /><path
           id="rect49-0"
           style="fill:#1d2437;fill-opacity:0.402685;stroke-width:6.15804;stroke-linecap:round;stroke-linejoin:round;paint-order:fill markers stroke"
           d="m 445.62892,355.75893 22.01812,-6.03288 2.8547,-12.97878 c -11.85139,0.20968 -17.03597,4.55068 -25.72135,11.54458 z"
           sodipodi:nodetypes="ccccc" /><path
           style="fill:none;fill-opacity:1;stroke:#ffffff;stroke-width:2.23928;stroke-linecap:round;stroke-linejoin:round;stroke-dasharray:none;stroke-opacity:0.997315;paint-order:fill markers stroke"
           d="m 565.70943,311.99581 c 2.4168,10.75686 4.67262,21.72836 5.40827,34.72675"
           id="path70"
           sodipodi:nodetypes="cc" /><path
           id="rect68-06"
           style="fill:#342320;fill-opacity:0.550336;stroke-width:6.15804;stroke-linecap:round;stroke-linejoin:round;paint-order:fill markers stroke"
           d="m 551.55668,303.65142 23.86636,14.18691 3.54672,11.657 -27.56729,-13.7243 z"
           sodipodi:nodetypes="ccccc" /><path
           id="rect68-6"
           style="fill:#342320;fill-opacity:0.550336;stroke-width:6.15804;stroke-linecap:round;stroke-linejoin:round;paint-order:fill markers stroke"
           d="m 489.67214,308.36327 17.39447,-4.85837 4.12961,10.94429 -26.50391,12.75321 z"
           sodipodi:nodetypes="ccccc" /><path
           id="rect68-0"
           style="fill:#432923;fill-opacity:1;stroke-width:6.15804;stroke-linecap:round;stroke-linejoin:round;paint-order:fill markers stroke"
           d="m 510.85886,300.37093 16.35958,0.89037 -0.44519,10.87765 -15.4692,-1.33555 z"
           sodipodi:nodetypes="ccccc" /><path
           id="rect68-60-0"
           style="fill:#ba3e38;fill-opacity:1;stroke-width:6.15804;stroke-linecap:round;stroke-linejoin:round;paint-order:fill markers stroke"
           d="m 497.12822,377.64748 26.02027,-17.32344 0.90383,5.61576 -19.39216,18.07665 z"
           sodipodi:nodetypes="ccccc" /><path
           style="fill:none;fill-opacity:1;stroke:#367ad7;stroke-width:5.03839;stroke-linecap:round;stroke-linejoin:round;stroke-dasharray:none;stroke-opacity:1;paint-order:fill markers stroke"
           d="m 468.21811,173.51699 c 3.20987,-35.97295 -0.43211,-25.24489 -3.82704,-57.64472 -3.39494,-32.399834 32.38474,-1.68307 28.94195,40.90144"
           id="path37"
           sodipodi:nodetypes="czc" /><path
           style="color:#000000;fill:#e85f59;fill-opacity:1;stroke-width:2.11586;stroke-linecap:round;stroke-linejoin:round;-inkscape-stroke:none;paint-order:fill markers stroke"
           d="m 487.11681,127.95464 c 2.86636,8.20285 4.55896,18.0503 3.70476,28.61606 -0.11271,1.38794 0.92201,2.60406 2.31009,2.71508 1.38639,0.1103 2.59988,-0.92376 2.71094,-2.31009 0.75375,-9.32325 -0.27817,-18.07061 -2.37674,-25.78776 z"
           id="path37-4"
           sodipodi:nodetypes="cccccc" /><path
           style="color:#000000;fill:#e85f59;fill-opacity:1;stroke-width:2.11586;stroke-linecap:round;stroke-linejoin:round;-inkscape-stroke:none;paint-order:fill markers stroke"
           d="m 465.92574,141.65739 c 0.1356,0.7121 0.2593,1.40361 0.36924,2.09419 0.89425,5.61724 1.01259,11.61896 -0.58682,29.54349 -0.12276,1.38523 0.90014,2.60792 2.28529,2.73161 1.38677,0.12519 2.6121,-0.89839 2.73574,-2.28529 1.61046,-18.04839 1.51436,-24.67135 0.54136,-30.78326 -0.41652,-2.6164 -0.96893,-5.05814 -1.59671,-8.25661 0,0 -3.66296,7.20856 -3.7481,6.95587 z"
           id="path37-8"
           sodipodi:nodetypes="cscccscc" /><path
           id="rect34-4"
           style="fill:#264e71;fill-opacity:0.414765;stroke-width:3.35892;stroke-linecap:round;stroke-linejoin:round;paint-order:fill markers stroke"
           d="m 449.70529,92.218276 c 9.09779,20.551574 13.9617,40.838534 29.76974,61.809504 12.54243,-6.06189 23.86789,-6.64745 35.54485,-8.81475 l -50.60638,30.46701 z"
           sodipodi:nodetypes="ccccc" /><path
           style="fill:none;fill-opacity:0.524832;stroke:#000000;stroke-width:6.15804;stroke-linecap:round;stroke-linejoin:round;stroke-dasharray:none;stroke-opacity:1;paint-order:fill markers stroke"
           d="m 449.51938,93.843443 c 5.62345,37.669377 15.67739,72.025827 16.3037,109.695207 0,0 -4.95806,1.95579 -10.77511,6.965 -2.05373,1.76852 0.18763,8.27468 -3.45683,12.64041 -2.52437,3.02396 -4.43886,1.49482 -7.3425,3.66793 -1.97606,1.47891 -0.85239,7.48497 -2.91714,9.42851 -2.92763,2.75578 -9.51862,2.50503 -9.51862,2.50503"
           id="path1"
           sodipodi:nodetypes="ccssssc" /><path
           id="rect1-0"
           style="fill:#ffe8e0;fill-opacity:1;stroke:#000000;stroke-width:0.423172;stroke-linecap:square;stroke-opacity:1;paint-order:fill markers stroke"
           d="m 503.6946,197.00034 3.07679,34.2177 37.47343,-2.63361 5.23173,-6.53059 10.12272,2.6915 -1.62567,-27.52363 24.93769,18.60537 6.59744,14.40816 -3.11577,43.29802 c -23.02373,34.85419 -57.86185,33.23786 -96.71934,19.21392 l -10.40556,-64.19402 z"
           sodipodi:nodetypes="cccccccccccc" /><path
           id="rect1"
           style="fill:#ffffff;fill-opacity:0.995973;stroke-width:6.15804;stroke-linecap:round;stroke-linejoin:round;stroke-opacity:0.997315;paint-order:fill markers stroke"
           d="m 552.62453,232.2958 c 9.85745,-8.25978 22.91883,-8.86532 35.47603,-4.30132 4.84286,12.25324 -6.96589,35.31112 -22.75712,33.03148 z"
           sodipodi:nodetypes="cccc" /><path
           id="rect1-03"
           style="fill:#e0b7ab;fill-opacity:1;stroke:none;stroke-width:0.423172;stroke-linecap:square;paint-order:fill markers stroke"
           d="m 548.6231,221.87443 8.11068,4.96592 c 0,0 -3.05958,-0.61438 -4.35038,-0.30693 -1.2908,0.30744 -1.95769,3.71295 -3.94074,6.4978 -1.98305,2.78486 -26.91201,4.68714 -41.84682,4.02444 -3.38163,-0.15002 -5.29565,-2.01563 -5.64395,-5.24908 -0.30408,-2.82283 -1.87972,-27.81383 -2.37508,-30.43194 -1.5452,-0.0167 -2.50828,13.0924 -4.8339,15.82016 -1.99324,2.33791 -4.42924,1.95593 -6.22872,5.44126 -0.91582,1.77381 -0.19052,3.69482 -1.87316,5.50216 -4.14696,4.45429 -8.34546,2.33205 -7.87668,0.77227 7.83628,-8.48734 17.0108,-24.10125 26.20671,-29.05356 l 2.37243,31.08382 38.62583,-2.96642 z"
           sodipodi:nodetypes="cczzsscsssccccc" /><ellipse
           style="fill:#151d23;fill-opacity:1;stroke:none;stroke-width:2.42636;stroke-linecap:round;stroke-linejoin:round;stroke-dasharray:none;stroke-opacity:1;paint-order:fill markers stroke"
           id="path31-6"
           cx="173.91275"
           cy="498.56754"
           rx="1.6522375"
           ry="6.0582037"
           transform="rotate(-47.098907)" /><path
           style="fill:none;fill-opacity:0.524832;stroke:#000000;stroke-width:6.15804;stroke-linecap:round;stroke-linejoin:round;stroke-dasharray:none;stroke-opacity:1;paint-order:fill markers stroke"
           d="m 430.70363,258.74604 c 0,0 6.44399,5.75826 12.71852,-0.0914 1.4292,-1.33242 2.15077,-5.00113 4.00956,-6.21605 2.11196,-1.38039 6.82884,4.37993 9.01849,2.26354 2.40375,-2.32334 3.36386,-9.39826 6.081,-12.12128 3.98277,-3.9914 8.76817,1.39365 12.5416,-2.06102 4.82219,-4.41486 1.63286,-11.3055 4.48625,-13.85802 2.75834,-2.46748 4.31458,-2.60917 6.1303,-4.75828 1.45492,-1.72206 -0.59312,-5.37816 0.7638,-7.02367 1.81297,-2.19855 5.65668,-2.09396 7.48975,-3.87822 1.51172,-1.47148 -1.04201,-5.17548 0.15378,-6.52126 3.75695,-4.22823 9.79284,-5.21662 9.79284,-5.21662"
           id="path2"
           sodipodi:nodetypes="cssssssssssc" /><path
           id="rect1-9-9"
           style="fill:#151d23;fill-opacity:1;stroke:none;stroke-width:0.423172;stroke-linecap:square;paint-order:fill markers stroke"
           d="m 506.48646,220.86096 4.85028,-0.30203 c 0.80317,-0.05 1.32255,-1.16523 1.40092,-1.96614 l 0.46059,-4.70725 c 0.46484,-4.75064 2.61093,-3.4001 3.21214,-0.25922 l 0.93913,4.90632 c 0.37712,1.97018 1.81376,1.66056 3.38281,1.38079 13.15757,-2.34609 36.64035,-13.77836 36.64035,-13.77836 l 1.03414,19.48357 -9.99951,-5.70611 -4.84749,7.10709 -35.61333,2.92275 z"
           sodipodi:nodetypes="csssssscccccc" /><path
           style="fill:none;fill-opacity:0.524832;stroke:#000000;stroke-width:6.15804;stroke-linecap:round;stroke-linejoin:round;stroke-dasharray:none;stroke-opacity:1;paint-order:fill markers stroke"
           d="m 558.45748,198.5112 c 0,0 -5.72885,-4.30659 5.21257,1.57518 1.74093,0.93587 1.38862,4.46666 4.41675,6.75728 1.74194,1.31769 4.3478,0.57232 6.42233,2.1525 1.83517,1.39788 0.2172,3.79261 2.20471,5.369 2.00445,1.58984 4.33971,-0.53557 6.50537,1.13102 1.76522,1.35842 -1.88123,5.38028 1.81088,8.00082 4.31694,3.06404 4.94095,8.71434 7.90353,10.78348 5.53263,3.86417 8.06411,1.19304 12.47237,2.68434 2.34422,0.79305 2.60507,4.25408 4.79143,5.80168 2.40177,1.70012 7.73925,2.45091 7.73925,2.45091"
           id="path3"
           sodipodi:nodetypes="csssssssssc" /><path
           style="fill:none;fill-opacity:0.524832;stroke:#000000;stroke-width:6.15804;stroke-linecap:round;stroke-linejoin:round;stroke-dasharray:none;stroke-opacity:1;paint-order:fill markers stroke"
           d="m 601.95187,208.94098 c 4.58615,1.19899 11.44783,7.58464 16.03398,12.32138"
           id="path4"
           sodipodi:nodetypes="cc" /><path
           style="fill:none;fill-opacity:0.524832;stroke:#000000;stroke-width:6.15804;stroke-linecap:round;stroke-linejoin:round;stroke-dasharray:none;stroke-opacity:1;paint-order:fill markers stroke"
           d="m 478.6196,232.32224 c 6.04132,32.78153 10.78493,58.1269 12.45663,78.67347"
           id="path5"
           sodipodi:nodetypes="cc" /><path
           style="fill:none;fill-opacity:1;stroke:#367ad7;stroke-width:5.03839;stroke-linecap:round;stroke-linejoin:round;stroke-dasharray:none;stroke-opacity:1;paint-order:fill markers stroke"
           d="m 560.30614,114.19794 c 11.51336,-36.316743 32.20787,22.74729 27.26763,58.36229"
           id="path38"
           sodipodi:nodetypes="cc" /><path
           style="color:#000000;fill:#e85f59;fill-opacity:1;stroke-width:2.11586;stroke-linecap:round;stroke-linejoin:round;-inkscape-stroke:none;paint-order:fill markers stroke"
           d="m 582.7256,133.86068 c 2.72142,12.49022 3.94489,26.85984 2.35083,38.35167 -0.19212,1.38007 0.77258,2.65397 2.15305,2.84318 1.37717,0.18975 2.64774,-0.77196 2.83906,-2.14892 1.36756,-9.85907 0.87137,-21.23336 -0.83272,-32.00765 0,0 -6.4788,-7.34116 -6.51022,-7.03828 z"
           id="path38-9"
           sodipodi:nodetypes="cccccc" /><path
           style="fill:none;fill-opacity:0.995973;stroke:#367ad7;stroke-width:5.03839;stroke-linecap:round;stroke-linejoin:round;stroke-dasharray:none;stroke-opacity:1;paint-order:fill markers stroke"
           d="m 559.40718,104.00691 c 9.93687,-54.527004 33.55651,19.31427 28.03789,67.39369"
           id="path13"
           sodipodi:nodetypes="cc" /><path
           style="color:#000000;fill:#e85f59;fill-opacity:1;stroke-width:2.11586;stroke-linecap:round;stroke-linejoin:round;-inkscape-stroke:none;paint-order:fill markers stroke"
           d="m 584.33628,133.82782 c 1.51487,12.49901 1.93442,25.72836 0.60791,37.28527 -0.15827,1.38188 0.83324,2.63058 2.21504,2.78946 1.38187,0.15833 2.63057,-0.83323 2.78947,-2.21503 1.09641,-9.55228 1.08262,-20.0059 0.26598,-30.28461 0,0 -5.56883,-7.31159 -5.8784,-7.57509 z"
           id="path13-1"
           sodipodi:nodetypes="cccccc" /><path
           id="rect34-7"
           style="fill:#264e71;fill-opacity:0.414765;stroke-width:3.35892;stroke-linecap:round;stroke-linejoin:round;paint-order:fill markers stroke"
           d="m 558.87526,85.115616 c 7.98054,21.427114 15.82718,42.843074 20.29771,63.977694 12.96623,14.05617 26.7198,33.17623 26.27754,32.99933 l -1.97067,6.04969 c -10.93797,-12.93445 -23.34927,-24.90804 -41.10263,-33.39767 z"
           sodipodi:nodetypes="cccccc" /><path
           style="fill:none;fill-opacity:0.524832;stroke:#000000;stroke-width:6.15804;stroke-linecap:round;stroke-linejoin:round;stroke-dasharray:none;stroke-opacity:1;paint-order:fill markers stroke"
           d="m 464.78648,176.9166 c 52.80212,-45.20587 97.39125,-36.98178 138.41741,12.3276"
           id="path6"
           sodipodi:nodetypes="cc" /><path
           style="color:#000000;fill:#ffb771;stroke-width:2.11586;stroke-linecap:round;stroke-linejoin:round;-inkscape-stroke:none;paint-order:fill markers stroke"
           d="m 629.35458,206.16956 c 3.20614,-12.8338 -1.53854,-20.1462 -7.3452,-26.72111 -13.24992,10.68674 -10.15163,17.25293 -26.78424,34.23503 -10.40181,-5.73575 -9.00609,-13.58902 -10.03573,-21.00695 15.46889,-1.01399 28.49048,9.21855 44.16517,13.49303 z"
           id="path43" /><path
           id="rect34-46"
           style="fill:#f1935a;fill-opacity:1;stroke-width:3.35892;stroke-linecap:round;stroke-linejoin:round;paint-order:fill markers stroke"
           d="m 587.79406,204.94378 40.80413,-14.62842 -0.65831,14.46569 -18.26612,-5.12339 -14.18501,15.79334 z"
           sodipodi:nodetypes="cccccc" /><path
           style="color:#000000;fill:#000000;stroke-width:2.11586;stroke-linecap:round;stroke-linejoin:round;-inkscape-stroke:none;paint-order:fill markers stroke"
           d="m 620.07488,177.05155 c -6.9561,5.61045 -9.88631,10.49959 -12.85219,15.60858 -0.21195,0.36509 -0.52444,0.80801 -0.73973,1.17777 -6.75458,-2.66708 -13.72781,-4.74487 -21.49331,-4.23585 a 3.0793256,3.0793256 0 0 0 -2.85145,3.49613 c 0.46843,3.37474 0.33856,7.37081 1.60344,11.59589 1.26486,4.22508 4.22435,8.5039 9.99658,11.68681 a 3.0793256,3.0793256 0 0 0 3.68623,-0.54136 c 5.64693,-5.76557 8.84771,-10.22182 11.4306,-14.22419 6.15029,2.64726 12.53253,5.5731 19.69153,7.52535 a 3.0793256,3.0793256 0 0 0 3.79365,-2.2233 c 3.44593,-13.79361 -2.01567,-22.70616 -8.02124,-29.5063 a 3.0793256,3.0793256 0 0 0 -4.24411,-0.35953 z m 1.67781,6.97985 c 3.84652,4.76539 6.18687,9.92372 5.05408,17.94347 -4.88608,-1.65099 -9.70427,-3.67165 -14.52585,-5.79382 0.0738,-0.12708 0.19572,-0.30418 0.26861,-0.42978 2.49024,-4.28968 4.8976,-7.74161 9.20316,-11.71987 z M 588.742,196.09427 c 4.77833,0.24767 9.50619,1.4304 14.2779,3.26883 -1.9324,2.88653 -4.67374,6.25357 -8.2444,10.10818 -2.82391,-2.0564 -4.41309,-4.13836 -5.13261,-6.5418 -0.57321,-1.91464 -0.69506,-4.45188 -0.90089,-6.83521 z"
           id="path44" /><path
           style="fill:none;fill-opacity:0.524832;stroke:#000000;stroke-width:6.15804;stroke-linecap:round;stroke-linejoin:round;stroke-dasharray:none;stroke-opacity:1;paint-order:fill markers stroke"
           d="m 557.38915,83.340758 c 2.30224,23.713162 4.60449,47.426322 6.90674,71.139492"
           id="path7"
           sodipodi:nodetypes="cc" /><path
           style="fill:none;fill-opacity:0.524832;stroke:#000000;stroke-width:6.15804;stroke-linecap:round;stroke-linejoin:round;stroke-dasharray:none;stroke-opacity:1;paint-order:fill markers stroke"
           d="m 505.65482,185.73044 c -3.24984,15.65251 -1.20739,31.36554 0.47642,46.03132 12.74647,0.0933 25.40904,0.5782 38.87451,-2.6838 l 3.82759,-8.28309 10.31415,5.20879 c 2.36703,-15.72369 -2.43044,-31.31053 -7.88241,-41.53062"
           id="path8"
           sodipodi:nodetypes="cccccc" /><path
           style="fill:none;fill-opacity:0.524832;stroke:#000000;stroke-width:5.03839;stroke-linecap:round;stroke-linejoin:round;stroke-dasharray:none;stroke-opacity:1;paint-order:fill markers stroke"
           d="m 485.52978,214.13004 c 8.75909,-6.01863 21.63052,-6.80162 29.39693,-5.76623"
           id="path9"
           sodipodi:nodetypes="cc" /><path
           style="fill:none;fill-opacity:0.524832;stroke:#000000;stroke-width:5.03839;stroke-linecap:round;stroke-linejoin:round;stroke-dasharray:none;stroke-opacity:1;paint-order:fill markers stroke"
           d="m 551.12872,204.48834 c 5.58924,-4.68401 18.19562,-5.46609 27.6006,-2.83568"
           id="path10"
           sodipodi:nodetypes="cc" /><path
           style="fill:none;fill-opacity:0.261745;stroke:#000000;stroke-width:5.03839;stroke-linecap:round;stroke-linejoin:round;stroke-dasharray:none;stroke-opacity:1;paint-order:fill markers stroke"
           d="m 488.00699,288.56988 c 18.51089,16.27548 92.82608,24.02605 99.17793,-26.77369"
           id="path11"
           sodipodi:nodetypes="cc" /><path
           style="fill:none;fill-opacity:0.261745;stroke:#000000;stroke-width:5.03839;stroke-linecap:round;stroke-linejoin:round;stroke-dasharray:none;stroke-opacity:1;paint-order:fill markers stroke"
           d="m 591.99549,233.91923 c 0,0 -4.23055,0.40801 -5.36924,10.14343 -0.28964,2.47629 3.64349,4.63248 4.31445,9.47028 0.34143,2.46178 -3.79325,5.87602 -3.50014,8.65075 0.21095,1.99695 4.71881,6.50762 4.8893,8.52477 0.20037,2.3715 -3.18967,5.14695 -2.76701,6.9398 2.21348,9.38887 4.54785,12.02153 4.54785,12.02153 l 7.78089,2.41736 c 0,0 2.74664,-4.08455 4.50471,-12.52433 0.43809,-2.10316 -3.78282,-5.32312 -3.46542,-9.29619 0.18493,-2.31562 4.47244,-4.24735 4.89595,-6.78395 0.34719,-2.07947 -4.2125,-7.28993 -4.03084,-9.3574 0.24792,-2.82154 3.27089,-4.11958 4.0304,-6.03206 1.51451,-3.81356 1.08325,-6.86397 1.08325,-6.86397"
           id="path12"
           sodipodi:nodetypes="csssssccsssssc" /><path
           style="color:#000000;fill:#614741;stroke-width:2.11586;stroke-linecap:round;stroke-linejoin:round;-inkscape-stroke:none;paint-order:fill markers stroke"
           d="m 632.37389,228.78145 c 3.01571,-6.93054 2.8413,-11.38652 -0.6802,-15.10501 -8.67968,2.40312 -16.03355,15.03868 -22.38305,21.16637 -4.8794,-3.16497 -6.73945,-7.34185 -7.76909,-14.75979 13.37419,0.2238 15.15764,4.42394 30.83234,8.69843 z"
           id="path46" /><path
           style="color:#000000;fill:#ffd367;stroke-width:2.11586;stroke-linecap:round;stroke-linejoin:round;-inkscape-stroke:none;paint-order:fill markers stroke"
           d="m 605.00779,300.84505 a 11.043337,11.043337 0 0 1 -11.04334,11.04334 11.043337,11.043337 0 0 1 -11.04334,-11.04334 11.043337,11.043337 0 0 1 11.04334,-11.04332 11.043337,11.043337 0 0 1 11.04334,11.04332 z"
           id="path41" /><circle
           style="fill:#f1a952;fill-opacity:1;stroke:none;stroke-width:6.88792;stroke-linecap:round;stroke-linejoin:round;stroke-dasharray:none;stroke-opacity:1;paint-order:fill markers stroke"
           id="path40"
           cx="590.1911"
           cy="302.45844"
           r="6.556355" /><path
           style="color:#000000;fill:#000001;stroke-width:2.11586;stroke-linecap:round;stroke-linejoin:round;-inkscape-stroke:none;paint-order:fill markers stroke"
           d="m 558.76045,55.042577 c -2.45379,0.541981 -4.79937,1.760332 -6.81455,3.68209 -4.03035,3.843513 -6.99982,10.041297 -9.19489,19.022059 -7.52291,30.778704 -13.01869,50.466104 -13.49686,66.075104 l -11.07933,0.78932 c -0.61007,-15.37765 -3.96511,-24.29668 -9.78171,-34.63891 -14.23385,-25.308612 -31.4016,-41.586337 -46.02404,-46.408375 -7.31122,-2.411018 -14.4975,-1.743065 -19.35266,2.954762 -4.85516,4.697829 -6.9827,12.570759 -6.4261,23.377753 1.93779,37.62385 0.0905,99.76814 -5.42601,143.0849 -1.26958,1.17102 -3.74983,3.20048 -5.32271,7.0625 -1.71448,4.20969 -1.78311,10.31787 0.90916,19.05924 -3.69453,15.28031 -14.54342,32.70433 -17.58807,49.5243 -1.53818,8.49757 -0.91564,17.11719 4.14493,24.74149 4.93371,7.43318 13.87077,13.66343 28.00619,18.6584 l 3.71515,5.38056 c -2.92963,7.87576 -0.70593,16.46432 5.207,22.72068 6.39577,6.76725 16.7752,11.0992 29.12197,10.30241 a 3.0793256,3.0793256 0 0 0 2.6035,-1.79765 c 2.7351,-6.02163 6.4746,-12.57027 6.05003,-21.67928 5.16434,0.93365 7.97891,-0.53323 9.74039,-0.89676 a 3.0793256,3.0793256 0 0 0 2.44232,-2.74814 c 0.70357,-8.03719 -5.5318,-16.36513 -17.62113,-19.94361 l -2.02081,-6.34758 12.22404,-22.80744 c 6.63227,-4.11253 10.94359,-8.68175 17.05084,-10.60409 15.84994,4.37341 27.22144,1.55723 39.07312,1.00421 8.48256,4.21684 16.73554,10.65205 22.99344,15.48461 2.30233,6.46045 3.56192,13.13211 4.4962,19.4353 a 3.0793256,3.0793256 0 0 0 4.0664,2.45473 c 5.98716,-2.1017 11.35416,-6.41613 15.78629,-11.30249 1.66135,1.97001 3.25673,3.46379 5.31444,3.96723 1.48294,0.36283 3.3898,-0.11722 4.4714,-1.11992 1.08161,-1.00269 1.52431,-2.15287 1.82658,-3.26469 0.95173,-3.50058 0.49503,-7.31877 -0.3802,-10.62888 13.06267,-6.33645 20.21457,-16.48755 21.89418,-28.84509 1.69939,-12.50328 -1.59637,-27.01128 -7.52122,-42.76761 4.20665,-3.06255 6.28423,-8.46548 6.45502,-13.70762 0.10198,-3.13175 -0.44262,-6.28621 -1.90097,-9.02959 -1.15788,-2.17818 -3.15853,-3.87307 -5.55413,-4.98797 -3.131,-8.41648 -5.42292,-17.97465 -9.48416,-26.70858 a 3.0793256,3.0793256 0 0 0 -0.42152,-0.66534 l -3.54157,-4.2813 c 11.25763,-30.79887 0.74851,-74.93472 -14.67464,-104.090299 -7.86145,-14.861116 -16.73244,-26.025741 -26.50608,-29.138504 -2.44341,-0.778192 -5.00543,-0.913909 -7.45923,-0.37193 z m 1.31002,5.855802 c 1.30648,-0.285307 2.68216,-0.12911 4.2813,0.380194 6.39658,2.037216 15.41825,11.947903 22.93143,26.150683 15.0264,28.405554 24.92885,73.112874 13.85227,100.784264 a 3.0793256,3.0793256 0 0 0 0.48764,3.10767 l 4.26477,5.1574 c 3.75027,8.17217 6.03771,17.89082 9.53376,26.99372 a 3.0793256,3.0793256 0 0 0 2.13653,1.88444 c 1.57678,0.38866 2.59093,1.29075 3.4052,2.82252 0.81426,1.53177 1.25912,3.69124 1.18604,5.93433 -0.1462,4.48617 -2.43224,8.76987 -5.11195,9.81064 a 3.0793256,3.0793256 0 0 0 -1.75631,3.98788 c 6.31799,16.205 9.53194,30.69035 7.98818,42.04856 -1.54377,11.35817 -7.34046,19.75468 -20.48912,25.29525 a 3.0793256,3.0793256 0 0 0 -1.65714,3.99615 c 0.57611,1.41668 0.86655,5.69359 0.68186,8.11216 -0.61876,-0.49725 -1.13899,-0.68554 -2.82664,-3.04154 a 3.0793256,3.0793256 0 0 0 -4.94252,-0.0785 c -3.23406,4.21481 -7.76864,7.69029 -12.32322,10.07099 -0.92973,-5.51963 -2.09921,-11.29174 -4.26891,-17.13762 a 3.0793256,3.0793256 0 0 0 -1.00421,-1.36788 c -6.38287,-4.91586 -15.54359,-12.32274 -25.47294,-17.11695 a 3.0793256,3.0793256 0 0 0 -1.45465,-0.30168 c -13.37539,0.48965 -23.68834,3.64245 -39.11445,-0.92569 a 3.0793256,3.0793256 0 0 0 -1.71087,-0.008 c -8.7065,2.45092 -13.5227,8.28295 -19.8527,12.02154 a 3.0793256,3.0793256 0 0 0 -1.14471,1.1943 l -13.18278,24.58445 a 3.0793256,3.0793256 0 0 0 -0.21903,2.38861 l 2.85558,8.96347 a 3.0793256,3.0793256 0 0 0 2.21917,2.06212 c 10.03279,2.39504 13.8855,7.62627 14.44735,12.18685 -1.69308,0.6414 -3.17521,1.01168 -8.05845,-0.85129 a 3.0793256,3.0793256 0 0 0 -4.11187,3.50439 c 1.84431,8.90607 -1.263,14.07627 -4.45074,20.71226 -9.82877,0.16757 -17.76271,-3.3391 -22.47686,-8.32707 -5.00626,-5.29703 -6.51336,-11.77798 -3.58291,-17.70378 a 3.0793256,3.0793256 0 0 0 -0.22729,-3.11179 l -5.04582,-7.31459 a 3.0793256,3.0793256 0 0 0 -1.5373,-1.16125 c -14.0145,-4.79563 -21.85133,-10.56894 -25.88207,-16.6417 -4.03074,-6.07277 -4.57994,-12.69716 -3.21511,-20.23704 2.72964,-15.07975 13.72936,-32.70351 17.68725,-49.72265 a 3.0793256,3.0793256 0 0 0 -0.0785,-1.66541 c -2.87747,-8.66391 -2.39044,-13.25852 -1.28522,-15.97225 1.10522,-2.71374 2.93755,-3.7968 4.84746,-5.88888 l -0.89676,0.67775 a 3.0793256,3.0793256 0 0 0 1.67781,-2.35554 c 5.68516,-43.92756 7.54656,-106.77723 5.56653,-145.221236 -0.50619,-9.828093 1.59902,-15.770332 4.55818,-18.633602 2.95916,-2.863268 7.17182,-3.501779 13.14146,-1.53317 11.9393,3.937219 28.85509,19.163629 42.58578,43.577588 6.05653,10.76884 9.01608,18.05885 9.20316,34.94471 a 3.0793256,3.0793256 0 0 0 3.29776,3.03742 l 16.81115,-1.19844 a 3.0793256,3.0793256 0 0 0 2.85972,-3.10353 c -0.14574,-14.40866 5.54447,-34.75457 13.53818,-67.459508 2.03829,-8.339303 4.79915,-13.49334 7.45923,-16.030104 1.33004,-1.26838 2.56983,-1.99585 3.87632,-2.281159 z"
           id="path79" /><path
           style="color:#000000;fill:#000000;stroke-width:2.11586;stroke-linecap:round;stroke-linejoin:round;-inkscape-stroke:none;paint-order:fill markers stroke"
           d="m 593.96553,286.72077 c -7.76309,0 -14.12501,6.36192 -14.12501,14.125 0,7.76308 6.36192,14.12088 14.12501,14.12088 7.76308,0 14.12085,-6.3578 14.12085,-14.12088 0,-7.76308 -6.35777,-14.125 -14.12085,-14.125 z m 0,6.16161 c 4.43503,0 7.96339,3.52836 7.96339,7.96339 0,4.43503 -3.52836,7.96339 -7.96339,7.96339 -4.43505,0 -7.96342,-3.52836 -7.96342,-7.96339 0,-4.43503 3.52837,-7.96339 7.96342,-7.96339 z"
           id="path42" /><circle
           style="fill:#000000;fill-opacity:1;stroke:none;stroke-width:8.93908;stroke-linecap:round;stroke-linejoin:round;stroke-dasharray:none;stroke-opacity:0.70604;paint-order:fill markers stroke"
           id="path14"
           cx="595.35211"
           cy="298.87924"
           r="2.6018331" /><path
           style="fill:none;fill-opacity:0.571812;stroke:#000000;stroke-width:3.91874;stroke-linecap:round;stroke-linejoin:round;stroke-dasharray:none;stroke-opacity:1;paint-order:fill markers stroke"
           d="m 595.17861,298.93705 c -5.09154,3.43095 -7.75716,7.37612 -9.01969,9.59788"
           id="path15"
           sodipodi:nodetypes="cc" /><path
           style="fill:none;fill-opacity:0.571812;stroke:#000000;stroke-width:6.15804;stroke-linecap:round;stroke-linejoin:round;stroke-dasharray:none;stroke-opacity:1;paint-order:fill markers stroke"
           d="m 586.04329,309.22874 c -6.78467,5.95362 -8.90404,14.19249 -7.9946,21.64778"
           id="path16"
           sodipodi:nodetypes="cc" /><path
           style="fill:none;fill-opacity:0.571812;stroke:#000000;stroke-width:6.15804;stroke-linecap:round;stroke-linejoin:round;stroke-dasharray:none;stroke-opacity:1;paint-order:fill markers stroke"
           d="m 600.73409,309.75129 c 2.98992,4.3151 3.52054,8.36735 4.34572,13.11373"
           id="path17"
           sodipodi:nodetypes="cc" /><path
           style="fill:none;fill-opacity:0.571812;stroke:#000000;stroke-width:6.15804;stroke-linecap:round;stroke-linejoin:round;stroke-dasharray:none;stroke-opacity:1;paint-order:fill markers stroke"
           d="m 487.21937,240.68376 c 14.25916,0.18408 24.59455,2.33292 32.85829,5.19913 -12.18449,5.04964 -22.86885,12.39516 -28.72641,16.0001"
           id="path18"
           sodipodi:nodetypes="ccc" /><path
           style="color:#000000;fill:#252e33;stroke-width:2.11586;stroke-linecap:round;stroke-linejoin:round;-inkscape-stroke:none;paint-order:fill markers stroke"
           d="m 580.17959,243.81404 a 15.422593,15.422593 0 0 1 -15.42259,15.4226 15.422593,15.422593 0 0 1 -15.42259,-15.4226 15.422593,15.422593 0 0 1 15.42259,-15.42259 15.422593,15.422593 0 0 1 15.42259,15.42259 z"
           id="path27" /><ellipse
           style="fill:#656d71;fill-opacity:1;stroke:none;stroke-width:6.15804;stroke-linecap:round;stroke-linejoin:round;stroke-dasharray:none;stroke-opacity:0.70604;paint-order:fill markers stroke"
           id="path21"
           cx="563.11066"
           cy="254.07059"
           rx="7.8700066"
           ry="7.1901603" /><path
           style="color:#000000;fill:#000000;stroke-width:2.08032;stroke-linecap:round;stroke-linejoin:round;-inkscape-stroke:none;paint-order:fill markers stroke"
           d="m 565.37306,225.31129 c -9.84252,0 -17.88507,8.31968 -17.88507,18.50136 0,10.18168 8.04255,18.50136 17.88507,18.50136 9.84252,0 17.88506,-8.31968 17.88506,-18.50136 0,-10.18168 -8.04254,-18.50136 -17.88506,-18.50136 z m 0,6.15748 c 6.62531,0 11.93269,5.49025 11.93269,12.34388 0,6.85362 -5.30738,12.34389 -11.93269,12.34389 -6.62534,0 -11.9327,-5.49027 -11.9327,-12.34389 0,-6.85363 5.30736,-12.34388 11.9327,-12.34388 z"
           id="path28" /><path
           style="fill:none;fill-opacity:0.571812;stroke:#000000;stroke-width:6.15804;stroke-linecap:round;stroke-linejoin:round;stroke-dasharray:none;stroke-opacity:1;paint-order:fill markers stroke"
           d="m 550.77168,236.9758 c 6.12714,-16.1684 30.7292,-16.93949 39.04516,-8.17651"
           id="path20"
           sodipodi:nodetypes="cc" /><path
           style="color:#000000;fill:#f18a83;stroke-width:2.11586;stroke-linecap:round;stroke-linejoin:round;-inkscape-stroke:none;paint-order:fill markers stroke"
           d="m 546.99268,267.21416 c -2.25326,1.05489 -6.45447,2.38513 -11.11182,0.74388 -3.67985,2.36017 -7.51109,3.52694 -11.43728,3.81243 0.37773,7.74383 4.06834,30.46461 18.41122,6.69498"
           id="path29" /><path
           id="rect1-06"
           style="fill:#ffada5;fill-opacity:1;stroke:none;stroke-width:0.423172;stroke-linecap:square;paint-order:fill markers stroke"
           d="m 524.55065,273.45859 c 1.27562,-2.51971 9.92767,-4.17924 16.11661,-5.8319 1.93799,4.07256 1.02091,8.02729 1.81837,12.95528 -2.41958,4.10343 -5.99942,7.33667 -11.9339,8.80393 -5.23362,-4.41097 -5.98955,-10.06575 -6.00108,-15.92731 z"
           sodipodi:nodetypes="ccccc" /><path
           style="color:#000000;fill:#000000;fill-opacity:0.998658;stroke-width:2.11586;stroke-linecap:round;stroke-linejoin:round;-inkscape-stroke:none;paint-order:fill markers stroke"
           d="m 547.75551,265.1076 a 2.2392864,2.2392864 0 0 0 -1.71087,0.0785 c -1.93994,0.90821 -5.51656,2.03609 -9.41805,0.66121 a 2.2395104,2.2395104 0 0 0 -1.95469,0.22731 c -3.36759,2.15989 -6.79806,3.20192 -10.38919,3.46304 a 2.2395104,2.2395104 0 0 0 -2.07453,2.34317 c 0.20096,4.11993 0.91734,11.74472 4.41355,16.3979 0.87405,1.16327 2.01009,2.1882 3.49612,2.68199 1.48603,0.49382 3.2142,0.33715 4.79787,-0.39257 3.16736,-1.45948 6.16691,-4.83321 9.8561,-10.94709 a 2.2392864,2.2392864 0 0 0 -0.76039,-3.07462 2.2392864,2.2392864 0 0 0 -3.0746,0.7604 c -3.48224,5.77092 -6.32277,8.47128 -7.89315,9.19488 -0.78518,0.36181 -1.15209,0.3264 -1.5125,0.20672 -0.36042,-0.11976 -0.82337,-0.44473 -1.33068,-1.11992 -1.76766,-2.3526 -2.84032,-8.12014 -3.24404,-12.0422 3.2021,-0.51576 6.36344,-1.5331 9.39739,-3.35149 4.87328,1.25927 9.23047,0.15297 11.58762,-0.95049 a 2.2392864,2.2392864 0 0 0 1.0786,-2.97955 2.2392864,2.2392864 0 0 0 -1.26456,-1.15712 z"
           id="path30" /><path
           style="fill:none;fill-opacity:0.480537;stroke:#ffa598;stroke-width:3.35892;stroke-linecap:round;stroke-linejoin:round;stroke-dasharray:none;stroke-opacity:1;paint-order:fill markers stroke"
           d="m 497.30866,267.88849 3.05476,6.00045"
           id="path23" /><path
           style="fill:none;fill-opacity:0.480537;stroke:#ffa598;stroke-width:3.35892;stroke-linecap:round;stroke-linejoin:round;stroke-dasharray:none;stroke-opacity:1;paint-order:fill markers stroke"
           d="m 492.18102,267.9976 2.40017,5.89134"
           id="path24" /><path
           style="fill:none;fill-opacity:0.480537;stroke:#ffa598;stroke-width:3.35892;stroke-linecap:round;stroke-linejoin:round;stroke-dasharray:none;stroke-opacity:1;paint-order:fill markers stroke"
           d="m 573.78691,263.08816 2.08335,5.12763"
           id="path25"
           sodipodi:nodetypes="cc" /><path
           style="fill:none;fill-opacity:0.480537;stroke:#ffa598;stroke-width:3.35892;stroke-linecap:round;stroke-linejoin:round;stroke-dasharray:none;stroke-opacity:1;paint-order:fill markers stroke"
           d="m 579.02365,262.54267 2.07289,5.67312"
           id="path26"
           sodipodi:nodetypes="cc" /><ellipse
           style="fill:#151d23;fill-opacity:1;stroke:none;stroke-width:3.35892;stroke-linecap:round;stroke-linejoin:round;stroke-dasharray:none;stroke-opacity:1;paint-order:fill markers stroke"
           id="path32"
           cx="508.82358"
           cy="205.71687"
           rx="3.9912238"
           ry="5.5197773"
           transform="rotate(-1.568748)" /><ellipse
           style="fill:#151d23;fill-opacity:1;stroke:none;stroke-width:3.35892;stroke-linecap:round;stroke-linejoin:round;stroke-dasharray:none;stroke-opacity:1;paint-order:fill markers stroke"
           id="path33"
           cx="471.53931"
           cy="302.12155"
           rx="5.5622368"
           ry="7.2606301"
           transform="rotate(-12.708236)" /><ellipse
           style="fill:#151d23;fill-opacity:1;stroke:none;stroke-width:3.35892;stroke-linecap:round;stroke-linejoin:round;stroke-dasharray:none;stroke-opacity:1;paint-order:fill markers stroke"
           id="path34"
           cx="468.0405"
           cy="330.01123"
           rx="7.1757102"
           ry="8.7467232"
           transform="rotate(-15.926896)" /><path
           style="fill:none;fill-opacity:1;stroke:#fbfbfb;stroke-width:0.55982;stroke-linecap:round;stroke-linejoin:round;stroke-dasharray:none;stroke-opacity:1;paint-order:fill markers stroke"
           d="m 632.44926,220.60851 c -12.55692,-2.66548 -24.50502,3.99248 -30.3271,6.72778"
           id="path45"
           sodipodi:nodetypes="cc" /><path
           style="fill:none;fill-opacity:1;stroke:#fbfbfb;stroke-width:0.55982;stroke-linecap:round;stroke-linejoin:round;stroke-dasharray:none;stroke-opacity:1;paint-order:fill markers stroke"
           d="m 633.90537,224.16533 c -10.43717,-1.15964 -17.94755,-3.73388 -28.6674,6.57968"
           id="path45-8"
           sodipodi:nodetypes="cc" /><path
           style="color:#000000;fill:#000000;stroke-width:2.11586;stroke-linecap:round;stroke-linejoin:round;-inkscape-stroke:none;paint-order:fill markers stroke"
           d="m 629.3626,211.33439 c -5.09847,1.41161 -9.23804,5.45949 -13.01335,9.73625 -0.30572,-0.12432 -0.86079,-0.30106 -1.16537,-0.42151 -4.19257,-1.65804 -8.42023,-2.87204 -15.33997,-2.98783 a 2.239507,2.239507 0 0 0 -2.25223,2.54565 c 1.06439,7.66831 3.34905,12.81872 8.76511,16.33178 a 2.239507,2.239507 0 0 0 2.77707,-0.26861 c 2.80749,-2.70942 5.6603,-6.44944 8.57915,-9.95115 3.32037,1.37842 6.36498,2.80902 12.33974,4.43834 a 2.239507,2.239507 0 0 0 2.64068,-1.26456 c 1.58423,-3.64075 2.42259,-6.79537 2.29357,-9.74865 -0.12907,-2.95328 -1.34596,-5.61974 -3.40107,-7.78983 a 2.239507,2.239507 0 0 0 -2.22333,-0.61988 z m -0.091,5.0417 c 0.71097,1.08317 1.18393,2.18971 1.24389,3.56224 0.0624,1.42792 -0.68653,3.58579 -1.4216,5.72769 -3.4287,-1.04428 -5.74447,-1.9608 -8.08323,-2.91343 2.76229,-2.94119 5.55929,-5.22822 8.26094,-6.3765 z m -26.50609,6.06656 c 4.21303,0.34125 7.36979,1.0682 10.43465,2.26463 -2.01349,2.44338 -3.99889,4.79529 -5.72769,6.65751 -2.43701,-2.05228 -3.87194,-4.88543 -4.70696,-8.92214 z"
           id="path47" /><path
           style="fill:none;fill-opacity:1;stroke:#000000;stroke-width:6.15804;stroke-linecap:round;stroke-linejoin:round;stroke-dasharray:none;stroke-opacity:1;paint-order:fill markers stroke"
           d="m 443.9445,349.13293 c 10.65856,-9.79168 18.76003,-11.8677 33.44805,-11.68686"
           id="path48"
           sodipodi:nodetypes="cc" /><path
           style="fill:none;fill-opacity:1;stroke:#000000;stroke-width:6.15804;stroke-linecap:round;stroke-linejoin:round;stroke-dasharray:none;stroke-opacity:1;paint-order:fill markers stroke"
           d="m 448.0625,356.08098 c 11.36762,-5.28221 20.71334,-8.29333 32.08096,-10.65675"
           id="path49"
           sodipodi:nodetypes="cc" /><path
           style="fill:none;fill-opacity:1;stroke:#000000;stroke-width:6.15804;stroke-linecap:round;stroke-linejoin:round;stroke-dasharray:none;stroke-opacity:1;paint-order:fill markers stroke"
           d="m 423.33224,348.51823 2.46528,5.14972 c -2.09711,2.29186 -2.61559,4.05494 -2.01334,6.44266 0.60225,2.38775 2.4084,4.71128 5.63733,5.36889"
           id="path50"
           sodipodi:nodetypes="cczc" /><path
           style="fill:none;fill-opacity:1;stroke:#000000;stroke-width:6.15804;stroke-linecap:round;stroke-linejoin:round;stroke-dasharray:none;stroke-opacity:1;paint-order:fill markers stroke"
           d="m 438.04099,373.42683 c 1.40789,4.14283 5.10348,7.07877 7.15609,9.28745"
           id="path51"
           sodipodi:nodetypes="cc" /><circle
           style="fill:#000000;fill-opacity:1;stroke:none;stroke-width:9.33036;stroke-linecap:round;stroke-linejoin:round;stroke-dasharray:none;stroke-opacity:1;paint-order:fill markers stroke"
           id="path52"
           cx="434.25351"
           cy="369.10349"
           r="2.760165" /><path
           style="fill:#fafafd;fill-opacity:0.716779;stroke:none;stroke-width:6.15804;stroke-linecap:round;stroke-linejoin:round;stroke-dasharray:none;stroke-opacity:0.444295;paint-order:fill markers stroke"
           d="m 412.91219,371.11684 16.10666,10.60354"
           id="path53" /><path
           style="fill:none;fill-opacity:0.716779;stroke:#000000;stroke-width:6.15804;stroke-linecap:round;stroke-linejoin:round;stroke-dasharray:none;stroke-opacity:1;paint-order:fill markers stroke"
           d="m 413.33388,370.80456 c 9.17261,8.47122 13.39743,11.41451 21.12957,12.77667"
           id="path54"
           sodipodi:nodetypes="cc" /><path
           id="rect50-1"
           style="fill:#ffe8e0;fill-opacity:1;stroke-width:6.15804;stroke-linecap:round;stroke-linejoin:round;paint-order:fill markers stroke"
           d="m 509.8397,306.02154 c 11.9717,8.94676 32.08836,7.86285 40.82995,1.53442 -2.29346,10.70715 -1.66941,20.75788 -10.21921,32.87273 -5.64373,-0.8303 -11.34481,-1.00118 -17.32554,2.04388 -7.29048,-11.91184 -12.11866,-24.02887 -13.2852,-36.45103 z"
           sodipodi:nodetypes="ccccc" /><path
           id="rect68-1"
           style="fill:#e0b7aa;fill-opacity:1;stroke-width:6.15804;stroke-linecap:round;stroke-linejoin:round;paint-order:fill markers stroke"
           d="m 511.83051,310.81468 38.17377,-0.22259 c -5.59331,12.74449 -37.95117,9.31949 -37.95117,9.31949 z"
           sodipodi:nodetypes="cccc" /><path
           style="fill:none;fill-opacity:0.716779;stroke:#000000;stroke-width:6.15804;stroke-linecap:round;stroke-linejoin:round;stroke-dasharray:none;stroke-opacity:1;paint-order:fill markers stroke"
           d="m 523.45306,343.0031 c -6.2882,-12.67865 -13.36008,-25.13836 -14.21339,-38.26849 0.59607,10.39263 44.06971,10.27567 41.76998,-1.61624 0.45635,13.96031 -4.64573,27.41477 -11.25214,38.44994"
           id="path55"
           sodipodi:nodetypes="cccc" /><path
           style="fill:none;fill-opacity:0.716779;stroke:#000000;stroke-width:6.15804;stroke-linecap:round;stroke-linejoin:round;stroke-dasharray:none;stroke-opacity:1;paint-order:fill markers stroke"
           d="m 524.10524,361.39454 -16.69575,21.13054"
           id="path56" /><path
           id="rect68-60-6-7"
           style="fill:#ba3e38;fill-opacity:1;stroke-width:6.15804;stroke-linecap:round;stroke-linejoin:round;paint-order:fill markers stroke"
           d="m 547.07833,358.54096 21.35047,14.61197 -5.57364,8.62853 -19.46164,-19.74313 z"
           sodipodi:nodetypes="ccccc" /><path
           id="rect68-60-6"
           style="fill:#ba3e38;fill-opacity:1;stroke-width:6.15804;stroke-linecap:round;stroke-linejoin:round;paint-order:fill markers stroke"
           d="m 546.97043,351.06775 22.55558,5.72429 -2.41022,6.82087 -20.44664,-7.23067 z"
           sodipodi:nodetypes="ccccc" /><path
           style="fill:none;fill-opacity:0.716779;stroke:#000000;stroke-width:6.15804;stroke-linecap:round;stroke-linejoin:round;stroke-dasharray:none;stroke-opacity:1;paint-order:fill markers stroke"
           d="m 541.84449,360.87279 22.86874,22.58426"
           id="path57"
           sodipodi:nodetypes="cc" /><path
           style="fill:none;fill-opacity:0.716779;stroke:#000000;stroke-width:6.15804;stroke-linecap:round;stroke-linejoin:round;stroke-dasharray:none;stroke-opacity:1;paint-order:fill markers stroke"
           d="m 574.32294,316.91599 c 3.86599,15.29054 8.45698,30.17025 6.00004,49.04379"
           id="path58"
           sodipodi:nodetypes="cc" /><path
           style="fill:none;fill-opacity:0.716779;stroke:#000000;stroke-width:6.15804;stroke-linecap:round;stroke-linejoin:round;stroke-dasharray:none;stroke-opacity:1;paint-order:fill markers stroke"
           d="m 593.62741,368.04675 c 1.0507,-4.21804 3.97989,-6.6713 7.53197,-7.22504 1.37387,-0.21419 4.02182,-1.49754 3.08158,-4.45796"
           id="path59"
           sodipodi:nodetypes="csc" /><path
           id="rect68-60"
           style="fill:#ba3e38;fill-opacity:1;stroke-width:6.15804;stroke-linecap:round;stroke-linejoin:round;paint-order:fill markers stroke"
           d="m 498.01707,356.85505 22.25431,-6.02554 0.90383,5.61576 -22.55558,10.39407 z"
           sodipodi:nodetypes="ccccc" /><path
           style="color:#000000;fill:#ffd367;stroke-width:2.11586;stroke-linecap:round;stroke-linejoin:round;-inkscape-stroke:none;paint-order:fill markers stroke"
           d="m 545.41484,352.23332 a 12.326007,12.326007 0 0 1 -12.326,12.32601 12.326007,12.326007 0 0 1 -12.32601,-12.32601 12.326007,12.326007 0 0 1 12.32601,-12.326 12.326007,12.326007 0 0 1 12.326,12.326 z"
           id="path76" /><circle
           style="fill:#f1a952;fill-opacity:1;stroke:none;stroke-width:6.15804;stroke-linecap:round;stroke-linejoin:round;stroke-dasharray:none;stroke-opacity:0.997315;paint-order:fill markers stroke"
           id="path75"
           cx="530.7774"
           cy="354.56656"
           r="8.8760662" /><path
           style="color:#000000;fill:#000000;stroke-width:2.11586;stroke-linecap:round;stroke-linejoin:round;-inkscape-stroke:none;paint-order:fill markers stroke"
           d="m 533.08914,336.82776 c -8.47148,0 -15.40609,6.93459 -15.40609,15.40609 0,8.47147 6.93461,15.40609 15.40609,15.40609 8.47148,0 15.40609,-6.93462 15.40609,-15.40609 0,-8.4715 -6.93461,-15.40609 -15.40609,-15.40609 z m 0,6.15746 c 5.14344,0 9.24862,4.10519 9.24862,9.24863 0,5.14344 -4.10518,9.24448 -9.24862,9.24448 -5.14343,0 -9.24861,-4.10104 -9.24861,-9.24448 0,-5.14344 4.10518,-9.24863 9.24861,-9.24863 z"
           id="path77" /><path
           style="fill:none;fill-opacity:0.716779;stroke:#000000;stroke-width:3.91874;stroke-linecap:round;stroke-linejoin:round;stroke-dasharray:none;stroke-opacity:1;paint-order:fill markers stroke"
           d="m 533.47403,351.97658 c 0.51737,3.7702 0.11825,10.16312 -1.66915,12.32599"
           id="path61"
           sodipodi:nodetypes="cc" /><circle
           style="fill:#000000;fill-opacity:1;stroke:none;stroke-width:3.91874;stroke-linecap:round;stroke-linejoin:round;stroke-dasharray:none;stroke-opacity:0.695302;paint-order:fill markers stroke"
           id="path62"
           cx="533.21722"
           cy="350.82101"
           r="3.3382936" /><path
           style="fill:none;fill-opacity:0.716779;stroke:#000000;stroke-width:6.15804;stroke-linecap:round;stroke-linejoin:round;stroke-dasharray:none;stroke-opacity:1;paint-order:fill markers stroke"
           d="m 520.73687,347.06603 c -8.16857,-0.47281 -16.2743,-1.35398 -25.13979,2.7032 l 2.97353,16.08406 c 7.70413,-1.93358 14.99057,-5.82932 22.6947,-9.85857"
           id="path63"
           sodipodi:nodetypes="cccc" /><path
           style="fill:none;fill-opacity:0.716779;stroke:#000000;stroke-width:6.15804;stroke-linecap:round;stroke-linejoin:round;stroke-dasharray:none;stroke-opacity:1;paint-order:fill markers stroke"
           d="m 543.57893,345.4441 c 15.35163,-1.44894 23.58671,0.29228 28.5188,3.51417 l -4.59545,14.05666 -21.76078,-6.75801"
           id="path64"
           sodipodi:nodetypes="cccc" /><path
           style="fill:none;fill-opacity:0.716779;stroke:#000000;stroke-width:6.15804;stroke-linecap:round;stroke-linejoin:round;stroke-dasharray:none;stroke-opacity:1;paint-order:fill markers stroke"
           d="m 567.36712,363.15009 4.32515,2.16255 -5.67676,18.24663"
           id="path65"
           sodipodi:nodetypes="ccc" /><path
           style="fill:none;fill-opacity:0.716779;stroke:#000000;stroke-width:6.15804;stroke-linecap:round;stroke-linejoin:round;stroke-dasharray:none;stroke-opacity:1;paint-order:fill markers stroke"
           d="m 499.65189,365.4478 -6.08221,4.32513 9.29143,13.69547"
           id="path66"
           sodipodi:nodetypes="ccc" /><circle
           style="fill:#000000;fill-opacity:1;stroke:none;stroke-width:5.52372;stroke-linecap:round;stroke-linejoin:round;stroke-dasharray:none;stroke-opacity:0.790604;paint-order:fill markers stroke"
           id="path67"
           cx="588.60016"
           cy="372.79822"
           r="2.5613151" /><path
           style="fill:none;fill-opacity:0.402685;stroke:#000000;stroke-width:6.15804;stroke-linecap:round;stroke-linejoin:round;stroke-dasharray:none;stroke-opacity:1;paint-order:fill markers stroke"
           d="m 484.0722,377.32485 11.57965,-2.98228"
           id="path68"
           sodipodi:nodetypes="cc" /><path
           style="color:#000000;fill:#ffd367;stroke-width:2.11586;stroke-linecap:round;stroke-linejoin:round;-inkscape-stroke:none;paint-order:fill markers stroke"
           d="m 379.71727,160.4821 c 4.12527,-1.94864 12.62455,7.20306 12.62455,7.20306 0,0 10.28708,-4.38487 13.08317,-1.21059 2.79609,3.17429 -2.17447,12.08637 -2.17447,12.08637 0,0 7.43379,11.79993 4.09506,16.29751 -3.05969,4.12168 -15.38231,0.73063 -15.38231,0.73063 0,0 -7.68311,9.66057 -11.9891,8.34715 -4.30598,-1.31341 -4.26069,-12.63365 -4.26069,-12.63365 0,0 -8.74949,-4.02859 -8.56325,-8.42911 0.18623,-4.40053 9.16857,-8.94813 9.16857,-8.94813 0,0 -0.7268,-11.49459 3.39847,-13.44324 z"
           id="path73" /><path
           id="rect72"
           style="fill:#f1a952;fill-opacity:1;stroke:none;stroke-width:6.15804;stroke-linecap:round;stroke-linejoin:round;stroke-opacity:0.997315;paint-order:fill markers stroke"
           d="m 375.76931,174.85514 18.70815,20.36775 -13.12588,8.75059 -5.98601,-11.8483 -8.95034,-9.72643 z"
           sodipodi:nodetypes="cccccc" /><path
           style="color:#000000;fill:#000000;stroke-width:2.11586;stroke-linecap:round;stroke-linejoin:round;-inkscape-stroke:none;paint-order:fill markers stroke"
           d="m 381.68958,157.14512 c -1.05475,-0.10121 -2.16431,0.0242 -3.28536,0.55376 -2.11993,1.00139 -3.17776,2.87001 -3.83913,4.61605 -0.66136,1.74603 -0.97315,3.57257 -1.15711,5.28964 -0.25942,2.4215 -0.14891,3.48199 -0.11157,4.59538 -0.90662,0.49974 -1.64132,0.82247 -3.33083,2.07866 -2.51795,1.87217 -5.71335,4.2186 -5.89299,8.46344 -0.0905,2.13755 0.864,3.8859 1.92989,5.22352 1.0659,1.33762 2.33644,2.39092 3.56225,3.27297 1.6301,1.17296 2.3344,1.44399 3.23164,1.90096 0.0281,1.08833 -0.0149,2.15841 0.40086,4.521 0.29281,1.6639 0.71955,3.42687 1.52077,5.08715 0.80122,1.66027 2.10132,3.44364 4.35982,4.13253 2.32838,0.71021 4.37279,-0.0711 6.0583,-0.98767 1.68551,-0.91658 3.18558,-2.14182 4.52513,-3.36802 1.93361,-1.77001 2.66243,-2.73851 3.40107,-3.6201 1.1484,0.28259 2.39067,0.66493 5.14914,0.92982 1.89289,0.18178 3.93546,0.24451 5.94259,-0.0868 2.00712,-0.33129 4.19075,-1.06705 5.6657,-3.05394 1.54471,-2.08087 1.63004,-4.51575 1.34721,-6.67818 -0.28283,-2.16243 -0.98665,-4.25557 -1.76873,-6.16161 -1.21627,-2.96423 -2.15989,-4.40651 -2.75227,-5.39296 0.46193,-0.89346 0.95386,-1.6937 1.65715,-3.7606 0.50126,-1.47315 0.93923,-3.09612 1.03727,-4.82267 0.098,-1.72655 -0.13296,-3.76906 -1.60343,-5.43842 -1.55041,-1.76012 -3.65813,-2.14765 -5.45494,-2.19438 -1.79681,-0.0467 -3.54977,0.26192 -5.16567,0.64881 -2.176,0.52099 -2.98193,0.91202 -4.02922,1.31828 -0.83607,-0.85099 -1.58726,-1.71653 -3.62424,-3.29363 -1.44376,-1.11781 -3.05071,-2.21218 -4.83093,-2.96716 -0.89011,-0.37749 -1.88761,-0.70463 -2.94237,-0.80584 z m -0.65707,6.12029 c -0.17946,0.0848 0.22068,-0.0575 1.19431,0.3554 0.97362,0.4129 2.26634,1.23891 3.46306,2.16544 2.39343,1.85308 4.39702,3.99617 4.39702,3.99617 a 3.0793256,3.0793256 0 0 0 3.46306,0.73559 c 0,0 2.38962,-1.00727 5.00037,-1.63235 1.30537,-0.31255 2.65209,-0.50739 3.57051,-0.48351 0.91842,0.0239 1.14418,0.28043 0.99181,0.10744 -0.0724,-0.0822 0.12606,0.17936 0.0785,1.01661 -0.0476,0.83723 -0.3272,2.03866 -0.71907,3.19031 -0.78373,2.30332 -1.90923,4.3433 -1.90923,4.3433 a 3.0793256,3.0793256 0 0 0 0.0827,3.14073 c 0,0 1.73589,2.77989 3.05394,5.99217 0.65903,1.60614 1.19175,3.30517 1.36374,4.62018 0.17199,1.315 -0.0654,2.04298 -0.19009,2.2109 -0.0549,0.0739 -0.55938,0.4567 -1.72327,0.64881 -1.16389,0.1921 -2.77721,0.18385 -4.34743,0.0331 -3.14043,-0.30157 -6.0211,-1.08686 -6.0211,-1.08686 a 3.0793256,3.0793256 0 0 0 -3.22751,1.0538 c 0,0 -1.81092,2.26072 -4.04988,4.31023 -1.11949,1.02476 -2.34404,1.97481 -3.31016,2.50019 -0.96614,0.52538 -1.49781,0.4548 -1.32242,0.5083 0.10552,0.0322 -0.20613,-0.0899 -0.60748,-0.92156 -0.40135,-0.83167 -0.77009,-2.14513 -1.00421,-3.47547 -0.46822,-2.66066 -0.46697,-5.28138 -0.46697,-5.28138 a 3.0793256,3.0793256 0 0 0 -1.78939,-2.80599 c 0,0 -1.96669,-0.91844 -3.84326,-2.26876 -0.93828,-0.67516 -1.82089,-1.45634 -2.34314,-2.11172 -0.52226,-0.65539 -0.59361,-1.06134 -0.59096,-1.12405 0.007,-0.15569 1.39783,-2.27951 3.41761,-3.78127 2.01977,-1.50176 4.06641,-2.54978 4.06641,-2.54978 a 3.0793256,3.0793256 0 0 0 1.68195,-2.94236 c 0,0 -0.1595,-2.66702 0.1405,-5.46735 0.15001,-1.40016 0.43086,-2.80748 0.79345,-3.76474 0.36259,-0.95725 0.76396,-1.25856 0.70666,-1.23149 z"
           id="path74" /><path
           style="fill:#47332e;fill-opacity:1;stroke:#000000;stroke-width:6.15804;stroke-linecap:round;stroke-linejoin:round;stroke-dasharray:none;stroke-opacity:1;paint-order:fill markers stroke"
           d="m 481.60426,328.02739 3.8531,18.605"
           id="path71"
           sodipodi:nodetypes="cc" /></g><g
         id="g1"
         transform="matrix(0.77211608,0,0,0.77211608,23.898755,-31.609658)"><text
           xml:space="preserve"
           style="font-size:135.467px;line-height:1.1;font-family:MiSans;-inkscape-font-specification:MiSans;text-decoration-color:#000000;letter-spacing:0px;fill:#000000;stroke-width:0.723;stroke-linecap:round;stroke-linejoin:round;-inkscape-stroke:none;paint-order:stroke fill markers"
           x="54.131229"
           y="267.40826"
           id="text1"><tspan
             sodipodi:role="line"
             id="tspan1"
             style="font-style:normal;font-variant:normal;font-weight:normal;font-stretch:normal;font-size:135.467px;font-family:'Trebuchet MS';-inkscape-font-specification:'Trebuchet MS';stroke-width:0.723"
             x="54.131229"
             y="267.40826">oma</tspan></text><text
           xml:space="preserve"
           style="font-style:normal;font-variant:normal;font-weight:normal;font-stretch:normal;font-size:39.3565px;line-height:1.1;font-family:'Trebuchet MS';-inkscape-font-specification:'Trebuchet MS';text-decoration-color:#000000;letter-spacing:0px;fill:#000000;stroke-width:1.12026;stroke-linecap:round;stroke-linejoin:round;-inkscape-stroke:none;paint-order:stroke fill markers"
           x="63.015083"
           y="181.51418"
           id="text2"><tspan
             sodipodi:role="line"
             id="tspan2"
             style="font-style:normal;font-variant:normal;font-weight:normal;font-stretch:normal;font-size:39.3565px;font-family:'霞鹜文楷';-inkscape-font-specification:'霞鹜文楷';stroke-width:1.12026"
             x="63.015083"
             y="181.51418">小熊猫包管理</tspan></text></g></g></g></svg>
